<?xml version="1.0" encoding="UTF-8" standalone="no"?>
<!DOCTYPE svg PUBLIC "-//W3C//DTD SVG 1.1//EN"
 "http://www.w3.org/Graphics/SVG/1.1/DTD/svg11.dtd">
<!-- Generated by graphviz version 2.38.0 (20140413.2041)
 -->
<!-- Title: PY_MACROS.h Pages: 1 -->
<svg width="644pt" height="84pt"
 viewBox="0.00 0.00 644.00 84.00" xmlns="http://www.w3.org/2000/svg" xmlns:xlink="http://www.w3.org/1999/xlink">
<g id="graph0" class="graph" transform="scale(1 1) rotate(0) translate(4 80)">
<title>PY_MACROS.h</title>
<polygon fill="white" stroke="none" points="-4,4 -4,-80 640,-80 640,4 -4,4"/>
<!-- Node1 -->
<g id="node1" class="node"><title>Node1</title>
<polygon fill="#bfbfbf" stroke="black" points="302,-56.5 302,-75.5 390,-75.5 390,-56.5 302,-56.5"/>
<text text-anchor="middle" x="346" y="-63.5" font-family="Helvetica,sans-Serif" font-size="10.00">PY_MACROS.h</text>
</g>
<!-- Node2 -->
<g id="node2" class="node"><title>Node2</title>
<g id="a_node2"><a xlink:href="pychemistry_8c.html" target="_top" xlink:title="Chemistry&#45;related Functions. ">
<polygon fill="white" stroke="black" points="0,-0.5 0,-19.5 78,-19.5 78,-0.5 0,-0.5"/>
<text text-anchor="middle" x="39" y="-7.5" font-family="Helvetica,sans-Serif" font-size="10.00">pychemistry.c</text>
</a>
</g>
</g>
<!-- Node1&#45;&gt;Node2 -->
<g id="edge1" class="edge"><title>Node1&#45;&gt;Node2</title>
<path fill="none" stroke="midnightblue" d="M291.893,-55.8149C239.469,-46.8647 157.737,-32.7761 87,-20 84.0798,-19.4726 81.0608,-18.9211 78.0247,-18.3621"/>
<polygon fill="midnightblue" stroke="midnightblue" points="291.528,-59.3032 301.974,-57.5345 292.705,-52.4029 291.528,-59.3032"/>
</g>
<!-- Node3 -->
<g id="node3" class="node"><title>Node3</title>
<g id="a_node3"><a xlink:href="pygeometry_8c.html" target="_top" xlink:title="Geometry Equations. ">
<polygon fill="white" stroke="black" points="96,-0.5 96,-19.5 172,-19.5 172,-0.5 96,-0.5"/>
<text text-anchor="middle" x="134" y="-7.5" font-family="Helvetica,sans-Serif" font-size="10.00">pygeometry.c</text>
</a>
</g>
</g>
<!-- Node1&#45;&gt;Node3 -->
<g id="edge2" class="edge"><title>Node1&#45;&gt;Node3</title>
<path fill="none" stroke="midnightblue" d="M302.654,-53.959C262.613,-43.7598 203.967,-28.8217 167.435,-19.5164"/>
<polygon fill="midnightblue" stroke="midnightblue" points="301.853,-57.3668 312.408,-56.4435 303.581,-50.5834 301.853,-57.3668"/>
</g>
<!-- Node4 -->
<g id="node4" class="node"><title>Node4</title>
<g id="a_node4"><a xlink:href="pymathconstants_8c.html" target="_top" xlink:title="Math Constants. ">
<polygon fill="white" stroke="black" points="190,-0.5 190,-19.5 290,-19.5 290,-0.5 190,-0.5"/>
<text text-anchor="middle" x="240" y="-7.5" font-family="Helvetica,sans-Serif" font-size="10.00">pymathconstants.c</text>
</a>
</g>
</g>
<!-- Node1&#45;&gt;Node4 -->
<g id="edge3" class="edge"><title>Node1&#45;&gt;Node4</title>
<path fill="none" stroke="midnightblue" d="M319.944,-51.7261C300.316,-41.7271 273.972,-28.3065 256.988,-19.6545"/>
<polygon fill="midnightblue" stroke="midnightblue" points="318.47,-54.9033 328.969,-56.324 321.648,-48.666 318.47,-54.9033"/>
</g>
<!-- Node5 -->
<g id="node5" class="node"><title>Node5</title>
<g id="a_node5"><a xlink:href="pymathfunc_8c.html" target="_top" xlink:title="Math Functions. ">
<polygon fill="white" stroke="black" points="308,-0.5 308,-19.5 384,-19.5 384,-0.5 308,-0.5"/>
<text text-anchor="middle" x="346" y="-7.5" font-family="Helvetica,sans-Serif" font-size="10.00">pymathfunc.c</text>
</a>
</g>
</g>
<!-- Node1&#45;&gt;Node5 -->
<g id="edge4" class="edge"><title>Node1&#45;&gt;Node5</title>
<path fill="none" stroke="midnightblue" d="M346,-45.8045C346,-36.9102 346,-26.7798 346,-19.7511"/>
<polygon fill="midnightblue" stroke="midnightblue" points="342.5,-46.083 346,-56.083 349.5,-46.083 342.5,-46.083"/>
</g>
<!-- Node6 -->
<g id="node6" class="node"><title>Node6</title>
<g id="a_node6"><a xlink:href="pyphysics_8c.html" target="_top" xlink:title="Physics Functions. ">
<polygon fill="white" stroke="black" points="402.5,-0.5 402.5,-19.5 471.5,-19.5 471.5,-0.5 402.5,-0.5"/>
<text text-anchor="middle" x="437" y="-7.5" font-family="Helvetica,sans-Serif" font-size="10.00">pyphysics.c</text>
</a>
</g>
</g>
<!-- Node1&#45;&gt;Node6 -->
<g id="edge5" class="edge"><title>Node1&#45;&gt;Node6</title>
<path fill="none" stroke="midnightblue" d="M369.294,-51.1774C386.039,-41.2407 408.1,-28.1492 422.416,-19.6545"/>
<polygon fill="midnightblue" stroke="midnightblue" points="367.434,-48.2108 360.621,-56.324 371.007,-54.2307 367.434,-48.2108"/>
</g>
<!-- Node7 -->
<g id="node7" class="node"><title>Node7</title>
<g id="a_node7"><a xlink:href="pytools_8c.html" target="_top" xlink:title="Miscellaneous Functions (from tools.c and x86_64_asm_func.c) ">
<polygon fill="white" stroke="black" points="490,-0.5 490,-19.5 546,-19.5 546,-0.5 490,-0.5"/>
<text text-anchor="middle" x="518" y="-7.5" font-family="Helvetica,sans-Serif" font-size="10.00">pytools.c</text>
</a>
</g>
</g>
<!-- Node1&#45;&gt;Node7 -->
<g id="edge6" class="edge"><title>Node1&#45;&gt;Node7</title>
<path fill="none" stroke="midnightblue" d="M382.832,-53.4363C415.262,-43.2551 461.737,-28.664 490.874,-19.5164"/>
<polygon fill="midnightblue" stroke="midnightblue" points="381.746,-50.1088 373.254,-56.4435 383.843,-56.7874 381.746,-50.1088"/>
</g>
<!-- Node8 -->
<g id="node8" class="node"><title>Node8</title>
<g id="a_node8"><a xlink:href="pytypesize_8c.html" target="_top" xlink:title="Get the size (in bytes) of various C data&#45;types. ">
<polygon fill="white" stroke="black" points="564,-0.5 564,-19.5 636,-19.5 636,-0.5 564,-0.5"/>
<text text-anchor="middle" x="600" y="-7.5" font-family="Helvetica,sans-Serif" font-size="10.00">pytypesize.c</text>
</a>
</g>
</g>
<!-- Node1&#45;&gt;Node8 -->
<g id="edge7" class="edge"><title>Node1&#45;&gt;Node8</title>
<path fill="none" stroke="midnightblue" d="M396.077,-54.3537C445.44,-43.8593 519.678,-28.0764 563.645,-18.729"/>
<polygon fill="midnightblue" stroke="midnightblue" points="395.301,-50.9405 386.247,-56.4435 396.756,-57.7874 395.301,-50.9405"/>
</g>
</g>
</svg>
