<?xml version="1.0" encoding="UTF-8" standalone="no"?>
<!DOCTYPE svg PUBLIC "-//W3C//DTD SVG 1.1//EN"
 "http://www.w3.org/Graphics/SVG/1.1/DTD/svg11.dtd">
<!-- Generated by graphviz version 2.38.0 (20140413.2041)
 -->
<!-- Title: pymathfunc.c Pages: 1 -->
<!--zoomable 252 -->
<svg id="main" version="1.1" xmlns="http://www.w3.org/2000/svg" xmlns:xlink="http://www.w3.org/1999/xlink" xml:space="preserve" onload="init(evt)">
<style type="text/css"><![CDATA[
.edge:hover path { stroke: red; }
.edge:hover polygon { stroke: red; fill: red; }
]]></style>
<script type="text/javascript"><![CDATA[
var edges = document.getElementsByTagName('g');
if (edges && edges.length) {
  for (var i=0;i<edges.length;i++) {
    if (edges[i].id.substr(0,4)=='edge') {
      edges[i].setAttribute('class','edge');
    }
  }
}
]]></script>
        <defs>
                <circle id="rim" cx="0" cy="0" r="7"/>
                <circle id="rim2" cx="0" cy="0" r="3.5"/>
                <g id="zoomPlus">
                        <use xlink:href="#rim" fill="#404040">
                                <set attributeName="fill" to="#808080" begin="zoomplus.mouseover" end="zoomplus.mouseout"/>
                        </use>
                        <path d="M-4,0h8M0,-4v8" fill="none" stroke="white" stroke-width="1.5" pointer-events="none"/>
                </g>
                <g id="zoomMin">
                        <use xlink:href="#rim" fill="#404040">
                                <set attributeName="fill" to="#808080" begin="zoomminus.mouseover" end="zoomminus.mouseout"/>
                        </use>
                        <path d="M-4,0h8" fill="none" stroke="white" stroke-width="1.5" pointer-events="none"/>
                </g>
                <g id="dirArrow">
                        <path fill="none" stroke="white" stroke-width="1.5" d="M0,-3.0v7 M-2.5,-0.5L0,-3.0L2.5,-0.5"/>
                </g>
               <g id="resetDef">
                       <use xlink:href="#rim2" fill="#404040">
                               <set attributeName="fill" to="#808080" begin="reset.mouseover" end="reset.mouseout"/>
                       </use>
               </g>
        </defs>

<script type="text/javascript">
var viewWidth = 679;
var viewHeight = 252;
var sectionId = 'dynsection-0';
</script>
<script xlink:href="svgpan.js"/>
<svg id="graph" class="graph">
<g id="viewport">
<title>pymathfunc.c</title>
<polygon fill="white" stroke="none" points="-4,4 -4,-248 675,-248 675,4 -4,4"/>
<!-- Node1 -->
<g id="node1" class="node"><title>Node1</title>
<polygon fill="#bfbfbf" stroke="black" points="302,-224.5 302,-243.5 378,-243.5 378,-224.5 302,-224.5"/>
<text text-anchor="middle" x="340" y="-231.5" font-family="Helvetica,sans-Serif" font-size="10.00">pymathfunc.c</text>
</g>
<!-- Node2 -->
<g id="node2" class="node"><title>Node2</title>
<g id="a_node2"><a xlink:href="PY__MACROS_8h.html" target="_top" xlink:title="Standard Python Header Macros (header) ">
<polygon fill="white" stroke="black" points="242,-168.5 242,-187.5 330,-187.5 330,-168.5 242,-168.5"/>
<text text-anchor="middle" x="286" y="-175.5" font-family="Helvetica,sans-Serif" font-size="10.00">PY_MACROS.h</text>
</a>
</g>
</g>
<!-- Node1&#45;&gt;Node2 -->
<g id="edge1" class="edge"><title>Node1&#45;&gt;Node2</title>
<path fill="none" stroke="midnightblue" d="M331.083,-224.083C323.22,-216.22 311.569,-204.569 302.081,-195.081"/>
<polygon fill="midnightblue" stroke="midnightblue" points="304.297,-192.347 294.751,-187.751 299.347,-197.297 304.297,-192.347"/>
</g>
<!-- Node15 -->
<g id="node15" class="node"><title>Node15</title>
<g id="a_node15"><a xlink:href="mathfunc_8h.html" target="_top" xlink:title="Math Functions (header) ">
<polygon fill="white" stroke="black" points="361.5,-168.5 361.5,-187.5 426.5,-187.5 426.5,-168.5 361.5,-168.5"/>
<text text-anchor="middle" x="394" y="-175.5" font-family="Helvetica,sans-Serif" font-size="10.00">mathfunc.h</text>
</a>
</g>
</g>
<!-- Node1&#45;&gt;Node15 -->
<g id="edge14" class="edge"><title>Node1&#45;&gt;Node15</title>
<path fill="none" stroke="midnightblue" d="M348.917,-224.083C356.78,-216.22 368.431,-204.569 377.919,-195.081"/>
<polygon fill="midnightblue" stroke="midnightblue" points="380.653,-197.297 385.249,-187.751 375.703,-192.347 380.653,-197.297"/>
</g>
<!-- Node3 -->
<g id="node3" class="node"><title>Node3</title>
<g id="a_node3"><a xlink:href="MACROS_8h.html" target="_top" xlink:title="Standard Header Macros (header) ">
<polygon fill="white" stroke="black" points="307.5,-56.5 307.5,-75.5 376.5,-75.5 376.5,-56.5 307.5,-56.5"/>
<text text-anchor="middle" x="342" y="-63.5" font-family="Helvetica,sans-Serif" font-size="10.00">MACROS.h</text>
</a>
</g>
</g>
<!-- Node2&#45;&gt;Node3 -->
<g id="edge2" class="edge"><title>Node2&#45;&gt;Node3</title>
<path fill="none" stroke="midnightblue" d="M274.87,-168.451C259.92,-155.892 236.583,-131.802 249,-112 259.823,-94.7392 279.351,-83.9365 297.727,-77.2591"/>
<polygon fill="midnightblue" stroke="midnightblue" points="299.067,-80.5026 307.467,-74.0451 296.874,-73.8552 299.067,-80.5026"/>
</g>
<!-- Node14 -->
<g id="node14" class="node"><title>Node14</title>
<polygon fill="white" stroke="#bfbfbf" points="258,-112.5 258,-131.5 314,-131.5 314,-112.5 258,-112.5"/>
<text text-anchor="middle" x="286" y="-119.5" font-family="Helvetica,sans-Serif" font-size="10.00">Python.h</text>
</g>
<!-- Node2&#45;&gt;Node14 -->
<g id="edge13" class="edge"><title>Node2&#45;&gt;Node14</title>
<path fill="none" stroke="midnightblue" d="M286,-168.083C286,-161.006 286,-150.861 286,-141.986"/>
<polygon fill="midnightblue" stroke="midnightblue" points="289.5,-141.751 286,-131.751 282.5,-141.751 289.5,-141.751"/>
</g>
<!-- Node4 -->
<g id="node4" class="node"><title>Node4</title>
<polygon fill="white" stroke="#bfbfbf" points="0,-0.5 0,-19.5 62,-19.5 62,-0.5 0,-0.5"/>
<text text-anchor="middle" x="31" y="-7.5" font-family="Helvetica,sans-Serif" font-size="10.00">complex.h</text>
</g>
<!-- Node3&#45;&gt;Node4 -->
<g id="edge3" class="edge"><title>Node3&#45;&gt;Node4</title>
<path fill="none" stroke="midnightblue" d="M307.236,-59.8735C257.375,-52.38 162.465,-37.5931 72.248,-20.1596"/>
<polygon fill="midnightblue" stroke="midnightblue" points="72.892,-16.7193 62.4074,-18.2435 71.5541,-23.5903 72.892,-16.7193"/>
</g>
<!-- Node5 -->
<g id="node5" class="node"><title>Node5</title>
<polygon fill="white" stroke="#bfbfbf" points="80.5,-0.5 80.5,-19.5 127.5,-19.5 127.5,-0.5 80.5,-0.5"/>
<text text-anchor="middle" x="104" y="-7.5" font-family="Helvetica,sans-Serif" font-size="10.00">errno.h</text>
</g>
<!-- Node3&#45;&gt;Node5 -->
<g id="edge4" class="edge"><title>Node3&#45;&gt;Node5</title>
<path fill="none" stroke="midnightblue" d="M307.42,-57.9617C268.563,-49.9319 203.382,-36.0995 137.848,-20.1107"/>
<polygon fill="midnightblue" stroke="midnightblue" points="138.302,-16.6184 127.756,-17.6318 136.632,-23.4163 138.302,-16.6184"/>
</g>
<!-- Node6 -->
<g id="node6" class="node"><title>Node6</title>
<polygon fill="white" stroke="#bfbfbf" points="146,-0.5 146,-19.5 190,-19.5 190,-0.5 146,-0.5"/>
<text text-anchor="middle" x="168" y="-7.5" font-family="Helvetica,sans-Serif" font-size="10.00">float.h</text>
</g>
<!-- Node3&#45;&gt;Node6 -->
<g id="edge5" class="edge"><title>Node3&#45;&gt;Node6</title>
<path fill="none" stroke="midnightblue" d="M314.429,-56.4435C283.253,-46.768 232.572,-31.0397 199.764,-20.8577"/>
<polygon fill="midnightblue" stroke="midnightblue" points="200.785,-17.51 190.197,-17.8886 198.71,-24.1954 200.785,-17.51"/>
</g>
<!-- Node7 -->
<g id="node7" class="node"><title>Node7</title>
<polygon fill="white" stroke="#bfbfbf" points="208.5,-0.5 208.5,-19.5 267.5,-19.5 267.5,-0.5 208.5,-0.5"/>
<text text-anchor="middle" x="238" y="-7.5" font-family="Helvetica,sans-Serif" font-size="10.00">inttypes.h</text>
</g>
<!-- Node3&#45;&gt;Node7 -->
<g id="edge6" class="edge"><title>Node3&#45;&gt;Node7</title>
<path fill="none" stroke="midnightblue" d="M325.291,-56.324C308.688,-47.7034 282.998,-34.3643 263.78,-24.3855"/>
<polygon fill="midnightblue" stroke="midnightblue" points="265.156,-21.1565 254.668,-19.6545 261.93,-27.3689 265.156,-21.1565"/>
</g>
<!-- Node8 -->
<g id="node8" class="node"><title>Node8</title>
<polygon fill="white" stroke="#bfbfbf" points="286,-0.5 286,-19.5 334,-19.5 334,-0.5 286,-0.5"/>
<text text-anchor="middle" x="310" y="-7.5" font-family="Helvetica,sans-Serif" font-size="10.00">limits.h</text>
</g>
<!-- Node3&#45;&gt;Node8 -->
<g id="edge7" class="edge"><title>Node3&#45;&gt;Node8</title>
<path fill="none" stroke="midnightblue" d="M336.716,-56.083C332.289,-48.6127 325.837,-37.7244 320.382,-28.5199"/>
<polygon fill="midnightblue" stroke="midnightblue" points="323.295,-26.5697 315.186,-19.7511 317.273,-30.1383 323.295,-26.5697"/>
</g>
<!-- Node9 -->
<g id="node9" class="node"><title>Node9</title>
<polygon fill="white" stroke="#bfbfbf" points="352,-0.5 352,-19.5 398,-19.5 398,-0.5 352,-0.5"/>
<text text-anchor="middle" x="375" y="-7.5" font-family="Helvetica,sans-Serif" font-size="10.00">stdio.h</text>
</g>
<!-- Node3&#45;&gt;Node9 -->
<g id="edge8" class="edge"><title>Node3&#45;&gt;Node9</title>
<path fill="none" stroke="midnightblue" d="M347.449,-56.083C352.014,-48.6127 358.668,-37.7244 364.293,-28.5199"/>
<polygon fill="midnightblue" stroke="midnightblue" points="367.424,-30.109 369.652,-19.7511 361.451,-26.4588 367.424,-30.109"/>
</g>
<!-- Node10 -->
<g id="node10" class="node"><title>Node10</title>
<polygon fill="white" stroke="#bfbfbf" points="416,-0.5 416,-19.5 464,-19.5 464,-0.5 416,-0.5"/>
<text text-anchor="middle" x="440" y="-7.5" font-family="Helvetica,sans-Serif" font-size="10.00">stdlib.h</text>
</g>
<!-- Node3&#45;&gt;Node10 -->
<g id="edge9" class="edge"><title>Node3&#45;&gt;Node10</title>
<path fill="none" stroke="midnightblue" d="M357.745,-56.324C373.319,-47.7428 397.377,-34.486 415.459,-24.5224"/>
<polygon fill="midnightblue" stroke="midnightblue" points="417.224,-27.546 424.294,-19.6545 413.846,-21.4152 417.224,-27.546"/>
</g>
<!-- Node11 -->
<g id="node11" class="node"><title>Node11</title>
<polygon fill="white" stroke="#bfbfbf" points="482.5,-0.5 482.5,-19.5 531.5,-19.5 531.5,-0.5 482.5,-0.5"/>
<text text-anchor="middle" x="507" y="-7.5" font-family="Helvetica,sans-Serif" font-size="10.00">string.h</text>
</g>
<!-- Node3&#45;&gt;Node11 -->
<g id="edge10" class="edge"><title>Node3&#45;&gt;Node11</title>
<path fill="none" stroke="midnightblue" d="M368.145,-56.4435C396.433,-47.1854 441.656,-32.3854 472.761,-22.2054"/>
<polygon fill="midnightblue" stroke="midnightblue" points="473.91,-25.5123 482.325,-19.0755 471.732,-18.8595 473.91,-25.5123"/>
</g>
<!-- Node12 -->
<g id="node12" class="node"><title>Node12</title>
<polygon fill="white" stroke="#bfbfbf" points="549.5,-0.5 549.5,-19.5 600.5,-19.5 600.5,-0.5 549.5,-0.5"/>
<text text-anchor="middle" x="575" y="-7.5" font-family="Helvetica,sans-Serif" font-size="10.00">wchar.h</text>
</g>
<!-- Node3&#45;&gt;Node12 -->
<g id="edge11" class="edge"><title>Node3&#45;&gt;Node12</title>
<path fill="none" stroke="midnightblue" d="M376.602,-57.5755C414.35,-49.3877 476.798,-35.5869 539.367,-20.3404"/>
<polygon fill="midnightblue" stroke="midnightblue" points="540.525,-23.6601 549.406,-17.8816 538.86,-16.861 540.525,-23.6601"/>
</g>
<!-- Node13 -->
<g id="node13" class="node"><title>Node13</title>
<polygon fill="white" stroke="#bfbfbf" points="619,-0.5 619,-19.5 671,-19.5 671,-0.5 619,-0.5"/>
<text text-anchor="middle" x="645" y="-7.5" font-family="Helvetica,sans-Serif" font-size="10.00">stdarg.h</text>
</g>
<!-- Node3&#45;&gt;Node13 -->
<g id="edge12" class="edge"><title>Node3&#45;&gt;Node13</title>
<path fill="none" stroke="midnightblue" d="M376.871,-60.116C426.326,-52.9779 519.852,-38.7022 608.712,-20.1303"/>
<polygon fill="midnightblue" stroke="midnightblue" points="609.623,-23.5152 618.683,-18.0237 608.176,-16.6664 609.623,-23.5152"/>
</g>
<!-- Node15&#45;&gt;Node3 -->
<g id="edge15" class="edge"><title>Node15&#45;&gt;Node3</title>
<path fill="none" stroke="midnightblue" d="M386.174,-168.3C378.758,-159.65 367.776,-145.726 361,-132 353.681,-117.175 348.67,-99.0235 345.639,-85.6736"/>
<polygon fill="midnightblue" stroke="midnightblue" points="349.039,-84.8311 343.553,-75.7675 342.189,-86.2742 349.039,-84.8311"/>
</g>
<!-- Node16 -->
<g id="node16" class="node"><title>Node16</title>
<polygon fill="white" stroke="#bfbfbf" points="370.5,-112.5 370.5,-131.5 417.5,-131.5 417.5,-112.5 370.5,-112.5"/>
<text text-anchor="middle" x="394" y="-119.5" font-family="Helvetica,sans-Serif" font-size="10.00">math.h</text>
</g>
<!-- Node15&#45;&gt;Node16 -->
<g id="edge16" class="edge"><title>Node15&#45;&gt;Node16</title>
<path fill="none" stroke="midnightblue" d="M394,-168.083C394,-161.006 394,-150.861 394,-141.986"/>
<polygon fill="midnightblue" stroke="midnightblue" points="397.5,-141.751 394,-131.751 390.5,-141.751 397.5,-141.751"/>
</g>
<!-- Node17 -->
<g id="node17" class="node"><title>Node17</title>
<g id="a_node17"><a xlink:href="MATH__MACROS_8h.html" target="_top" xlink:title="Math Macros Constants (header) ">
<polygon fill="white" stroke="black" points="435.5,-112.5 435.5,-131.5 538.5,-131.5 538.5,-112.5 435.5,-112.5"/>
<text text-anchor="middle" x="487" y="-119.5" font-family="Helvetica,sans-Serif" font-size="10.00">MATH_MACROS.h</text>
</a>
</g>
</g>
<!-- Node15&#45;&gt;Node17 -->
<g id="edge17" class="edge"><title>Node15&#45;&gt;Node17</title>
<path fill="none" stroke="midnightblue" d="M408.942,-168.324C423.585,-159.822 446.134,-146.729 463.238,-136.797"/>
<polygon fill="midnightblue" stroke="midnightblue" points="465.205,-139.703 472.095,-131.655 461.69,-133.649 465.205,-139.703"/>
</g>
<!-- Node18 -->
<g id="node18" class="node"><title>Node18</title>
<g id="a_node18"><a xlink:href="math__types_8h.html" target="_top" xlink:title="Math&#45;related Data&#45;types (header) ">
<polygon fill="white" stroke="black" points="557,-112.5 557,-131.5 633,-131.5 633,-112.5 557,-112.5"/>
<text text-anchor="middle" x="595" y="-119.5" font-family="Helvetica,sans-Serif" font-size="10.00">math_types.h</text>
</a>
</g>
</g>
<!-- Node15&#45;&gt;Node18 -->
<g id="edge18" class="edge"><title>Node15&#45;&gt;Node18</title>
<path fill="none" stroke="midnightblue" d="M425.849,-168.444C460.398,-159.162 515.682,-144.309 553.583,-134.127"/>
<polygon fill="midnightblue" stroke="midnightblue" points="554.551,-137.491 563.3,-131.516 552.734,-130.731 554.551,-137.491"/>
</g>
<!-- Node18&#45;&gt;Node3 -->
<g id="edge19" class="edge"><title>Node18&#45;&gt;Node3</title>
<path fill="none" stroke="midnightblue" d="M556.849,-112.857C511.227,-103.12 434.983,-86.8463 386.659,-76.5319"/>
<polygon fill="midnightblue" stroke="midnightblue" points="387.302,-73.0905 376.792,-74.4259 385.841,-79.9363 387.302,-73.0905"/>
</g>
</g>
</svg>
        <g id="navigator" transform="translate(0 0)" fill="#404254">
                <rect fill="#f2f5e9" fill-opacity="0.5" stroke="#606060" stroke-width=".5" x="0" y="0" width="60" height="60"/>
                <use id="zoomplus" xlink:href="#zoomPlus" x="17" y="9" onmousedown="handleZoom(evt,'in')"/>
                <use id="zoomminus" xlink:href="#zoomMin" x="42" y="9" onmousedown="handleZoom(evt,'out')"/>
                <use id="reset" xlink:href="#resetDef" x="30" y="36" onmousedown="handleReset()"/>
                <g id="arrowUp" xlink:href="#dirArrow" transform="translate(30 24)" onmousedown="handlePan(0,-1)">
                  <use xlink:href="#rim" fill="#404040">
                        <set attributeName="fill" to="#808080" begin="arrowUp.mouseover" end="arrowUp.mouseout"/>
                  </use>
                  <path fill="none" stroke="white" stroke-width="1.5" d="M0,-3.0v7 M-2.5,-0.5L0,-3.0L2.5,-0.5"/>
                </g>
                <g id="arrowRight" xlink:href="#dirArrow" transform="rotate(90) translate(36 -43)" onmousedown="handlePan(1,0)">
                  <use xlink:href="#rim" fill="#404040">
                        <set attributeName="fill" to="#808080" begin="arrowRight.mouseover" end="arrowRight.mouseout"/>
                  </use>
                  <path fill="none" stroke="white" stroke-width="1.5" d="M0,-3.0v7 M-2.5,-0.5L0,-3.0L2.5,-0.5"/>
                </g>
                <g id="arrowDown" xlink:href="#dirArrow" transform="rotate(180) translate(-30 -48)" onmousedown="handlePan(0,1)">
                  <use xlink:href="#rim" fill="#404040">
                        <set attributeName="fill" to="#808080" begin="arrowDown.mouseover" end="arrowDown.mouseout"/>
                  </use>
                  <path fill="none" stroke="white" stroke-width="1.5" d="M0,-3.0v7 M-2.5,-0.5L0,-3.0L2.5,-0.5"/>
                </g>
                <g id="arrowLeft" xlink:href="#dirArrow" transform="rotate(270) translate(-36 17)" onmousedown="handlePan(-1,0)">
                  <use xlink:href="#rim" fill="#404040">
                        <set attributeName="fill" to="#808080" begin="arrowLeft.mouseover" end="arrowLeft.mouseout"/>
                  </use>
                  <path fill="none" stroke="white" stroke-width="1.5" d="M0,-3.0v7 M-2.5,-0.5L0,-3.0L2.5,-0.5"/>
                </g>
        </g>
        <svg viewBox="0 0 15 15" width="100%" height="30px" preserveAspectRatio="xMaxYMin meet">
         <g id="arrow_out" transform="scale(0.3 0.3)">
          <a xlink:href="pymathfunc_8c__incl_org.svg" target="_base">
           <rect id="button" ry="5" rx="5" y="6" x="6" height="38" width="38"
                fill="#f2f5e9" fill-opacity="0.5" stroke="#606060" stroke-width="1.0"/>
           <path id="arrow"
             d="M 11.500037,31.436501 C 11.940474,20.09759 22.043105,11.32322 32.158766,21.979434 L 37.068811,17.246167 C 37.068811,17.246167 37.088388,32 37.088388,32 L 22.160133,31.978069 C 22.160133,31.978069 26.997745,27.140456 26.997745,27.140456 C 18.528582,18.264221 13.291696,25.230495 11.500037,31.436501 z"
             style="fill:#404040;"/>
          </a>
         </g>
        </svg>
</svg>
