<?xml version="1.0" encoding="UTF-8" standalone="no"?>
<!DOCTYPE svg PUBLIC "-//W3C//DTD SVG 1.1//EN"
 "http://www.w3.org/Graphics/SVG/1.1/DTD/svg11.dtd">
<!-- Generated by graphviz version 2.38.0 (20140413.2041)
 -->
<!-- Title: pointf Pages: 1 -->
<svg width="49pt" height="106pt"
 viewBox="0.00 0.00 49.00 106.00" xmlns="http://www.w3.org/2000/svg" xmlns:xlink="http://www.w3.org/1999/xlink">
<g id="graph0" class="graph" transform="scale(1 1) rotate(0) translate(4 102)">
<title>pointf</title>
<polygon fill="white" stroke="none" points="-4,4 -4,-102 45,-102 45,4 -4,4"/>
<!-- Node1 -->
<g id="node1" class="node"><title>Node1</title>
<polygon fill="#bfbfbf" stroke="black" points="0,-0.5 0,-19.5 41,-19.5 41,-0.5 0,-0.5"/>
<text text-anchor="middle" x="20.5" y="-7.5" font-family="Helvetica,sans-Serif" font-size="10.00">pointf</text>
</g>
<!-- Node2 -->
<g id="node2" class="node"><title>Node2</title>
<polygon fill="white" stroke="#bfbfbf" points="3,-78.5 3,-97.5 38,-97.5 38,-78.5 3,-78.5"/>
<text text-anchor="middle" x="20.5" y="-85.5" font-family="Helvetica,sans-Serif" font-size="10.00">float</text>
</g>
<!-- Node2&#45;&gt;Node1 -->
<g id="edge1" class="edge"><title>Node2&#45;&gt;Node1</title>
<path fill="none" stroke="#9a32cd" stroke-dasharray="5,2" d="M20.5,-68.2239C20.5,-52.6974 20.5,-31.3582 20.5,-19.6165"/>
<polygon fill="#9a32cd" stroke="#9a32cd" points="17.0001,-68.2818 20.5,-78.2818 24.0001,-68.2819 17.0001,-68.2818"/>
<text text-anchor="middle" x="25" y="-52" font-family="Helvetica,sans-Serif" font-size="10.00"> x</text>
<text text-anchor="middle" x="25" y="-41" font-family="Helvetica,sans-Serif" font-size="10.00">y</text>
</g>
</g>
</svg>
