<?xml version="1.0" encoding="UTF-8" standalone="no"?>
<!DOCTYPE svg PUBLIC "-//W3C//DTD SVG 1.1//EN"
 "http://www.w3.org/Graphics/SVG/1.1/DTD/svg11.dtd">
<!-- Generated by graphviz version 2.38.0 (20140413.2041)
 -->
<!-- Title: floattriplet_t Pages: 1 -->
<svg width="76pt" height="117pt"
 viewBox="0.00 0.00 76.00 117.00" xmlns="http://www.w3.org/2000/svg" xmlns:xlink="http://www.w3.org/1999/xlink">
<g id="graph0" class="graph" transform="scale(1 1) rotate(0) translate(4 113)">
<title>floattriplet_t</title>
<polygon fill="white" stroke="none" points="-4,4 -4,-113 72,-113 72,4 -4,4"/>
<!-- Node1 -->
<g id="node1" class="node"><title>Node1</title>
<polygon fill="#bfbfbf" stroke="black" points="0,-0.5 0,-19.5 68,-19.5 68,-0.5 0,-0.5"/>
<text text-anchor="middle" x="34" y="-7.5" font-family="Helvetica,sans-Serif" font-size="10.00">floattriplet_t</text>
</g>
<!-- Node2 -->
<g id="node2" class="node"><title>Node2</title>
<polygon fill="white" stroke="#bfbfbf" points="16.5,-89.5 16.5,-108.5 51.5,-108.5 51.5,-89.5 16.5,-89.5"/>
<text text-anchor="middle" x="34" y="-96.5" font-family="Helvetica,sans-Serif" font-size="10.00">float</text>
</g>
<!-- Node2&#45;&gt;Node1 -->
<g id="edge1" class="edge"><title>Node2&#45;&gt;Node1</title>
<path fill="none" stroke="#9a32cd" stroke-dasharray="5,2" d="M34,-79.1946C34,-60.7379 34,-33.412 34,-19.6249"/>
<polygon fill="#9a32cd" stroke="#9a32cd" points="30.5001,-79.34 34,-89.34 37.5001,-79.3401 30.5001,-79.34"/>
<text text-anchor="middle" x="38.5" y="-63" font-family="Helvetica,sans-Serif" font-size="10.00"> x</text>
<text text-anchor="middle" x="38.5" y="-52" font-family="Helvetica,sans-Serif" font-size="10.00">y</text>
<text text-anchor="middle" x="38.5" y="-41" font-family="Helvetica,sans-Serif" font-size="10.00">z</text>
</g>
</g>
</svg>
