<?xml version="1.0" encoding="UTF-8" standalone="no"?>
<!DOCTYPE svg PUBLIC "-//W3C//DTD SVG 1.1//EN"
 "http://www.w3.org/Graphics/SVG/1.1/DTD/svg11.dtd">
<!-- Generated by graphviz version 2.38.0 (20140413.2041)
 -->
<!-- Title: line Pages: 1 -->
<svg width="53pt" height="184pt"
 viewBox="0.00 0.00 53.00 184.00" xmlns="http://www.w3.org/2000/svg" xmlns:xlink="http://www.w3.org/1999/xlink">
<g id="graph0" class="graph" transform="scale(1 1) rotate(0) translate(4 180)">
<title>line</title>
<polygon fill="white" stroke="none" points="-4,4 -4,-180 49,-180 49,4 -4,4"/>
<!-- Node1 -->
<g id="node1" class="node"><title>Node1</title>
<polygon fill="#bfbfbf" stroke="black" points="6.5,-0.5 6.5,-19.5 38.5,-19.5 38.5,-0.5 6.5,-0.5"/>
<text text-anchor="middle" x="22.5" y="-7.5" font-family="Helvetica,sans-Serif" font-size="10.00">line</text>
</g>
<!-- Node2 -->
<g id="node2" class="node"><title>Node2</title>
<g id="a_node2"><a xlink:href="math__types_8h.html#structpoint" target="_top" xlink:title="point">
<polygon fill="white" stroke="black" points="3.5,-78.5 3.5,-97.5 41.5,-97.5 41.5,-78.5 3.5,-78.5"/>
<text text-anchor="middle" x="22.5" y="-85.5" font-family="Helvetica,sans-Serif" font-size="10.00">point</text>
</a>
</g>
</g>
<!-- Node2&#45;&gt;Node1 -->
<g id="edge1" class="edge"><title>Node2&#45;&gt;Node1</title>
<path fill="none" stroke="#9a32cd" stroke-dasharray="5,2" d="M22.5,-68.2239C22.5,-52.6974 22.5,-31.3582 22.5,-19.6165"/>
<polygon fill="#9a32cd" stroke="#9a32cd" points="19.0001,-68.2818 22.5,-78.2818 26.0001,-68.2819 19.0001,-68.2818"/>
<text text-anchor="middle" x="27" y="-52" font-family="Helvetica,sans-Serif" font-size="10.00"> x</text>
<text text-anchor="middle" x="27" y="-41" font-family="Helvetica,sans-Serif" font-size="10.00">y</text>
</g>
<!-- Node3 -->
<g id="node3" class="node"><title>Node3</title>
<polygon fill="white" stroke="#bfbfbf" points="0,-156.5 0,-175.5 45,-175.5 45,-156.5 0,-156.5"/>
<text text-anchor="middle" x="22.5" y="-163.5" font-family="Helvetica,sans-Serif" font-size="10.00">double</text>
</g>
<!-- Node3&#45;&gt;Node2 -->
<g id="edge2" class="edge"><title>Node3&#45;&gt;Node2</title>
<path fill="none" stroke="#9a32cd" stroke-dasharray="5,2" d="M22.5,-146.224C22.5,-130.697 22.5,-109.358 22.5,-97.6165"/>
<polygon fill="#9a32cd" stroke="#9a32cd" points="19.0001,-146.282 22.5,-156.282 26.0001,-146.282 19.0001,-146.282"/>
<text text-anchor="middle" x="27" y="-130" font-family="Helvetica,sans-Serif" font-size="10.00"> x</text>
<text text-anchor="middle" x="27" y="-119" font-family="Helvetica,sans-Serif" font-size="10.00">y</text>
</g>
</g>
</svg>
