<?xml version="1.0" encoding="UTF-8" standalone="no"?>
<!DOCTYPE svg PUBLIC "-//W3C//DTD SVG 1.1//EN"
 "http://www.w3.org/Graphics/SVG/1.1/DTD/svg11.dtd">
<!-- Generated by graphviz version 2.38.0 (20140413.2041)
 -->
<!-- Title: ellipsef Pages: 1 -->
<svg width="86pt" height="106pt"
 viewBox="0.00 0.00 85.50 106.00" xmlns="http://www.w3.org/2000/svg" xmlns:xlink="http://www.w3.org/1999/xlink">
<g id="graph0" class="graph" transform="scale(1 1) rotate(0) translate(4 102)">
<title>ellipsef</title>
<polygon fill="white" stroke="none" points="-4,4 -4,-102 81.5,-102 81.5,4 -4,4"/>
<!-- Node1 -->
<g id="node1" class="node"><title>Node1</title>
<polygon fill="#bfbfbf" stroke="black" points="0,-0.5 0,-19.5 47,-19.5 47,-0.5 0,-0.5"/>
<text text-anchor="middle" x="23.5" y="-7.5" font-family="Helvetica,sans-Serif" font-size="10.00">ellipsef</text>
</g>
<!-- Node2 -->
<g id="node2" class="node"><title>Node2</title>
<polygon fill="white" stroke="#bfbfbf" points="6,-78.5 6,-97.5 41,-97.5 41,-78.5 6,-78.5"/>
<text text-anchor="middle" x="23.5" y="-85.5" font-family="Helvetica,sans-Serif" font-size="10.00">float</text>
</g>
<!-- Node2&#45;&gt;Node1 -->
<g id="edge1" class="edge"><title>Node2&#45;&gt;Node1</title>
<path fill="none" stroke="#9a32cd" stroke-dasharray="5,2" d="M23.5,-68.2239C23.5,-52.6974 23.5,-31.3582 23.5,-19.6165"/>
<polygon fill="#9a32cd" stroke="#9a32cd" points="20.0001,-68.2818 23.5,-78.2818 27.0001,-68.2819 20.0001,-68.2818"/>
<text text-anchor="middle" x="50.5" y="-52" font-family="Helvetica,sans-Serif" font-size="10.00"> minorradius</text>
<text text-anchor="middle" x="50.5" y="-41" font-family="Helvetica,sans-Serif" font-size="10.00">majorradius</text>
</g>
</g>
</svg>
