<?xml version="1.0" encoding="UTF-8" standalone="no"?>
<!DOCTYPE svg PUBLIC "-//W3C//DTD SVG 1.1//EN"
 "http://www.w3.org/Graphics/SVG/1.1/DTD/svg11.dtd">
<!-- Generated by graphviz version 2.38.0 (20140413.2041)
 -->
<!-- Title: IOStream_t Pages: 1 -->
<svg width="179pt" height="150pt"
 viewBox="0.00 0.00 178.50 150.00" xmlns="http://www.w3.org/2000/svg" xmlns:xlink="http://www.w3.org/1999/xlink">
<g id="graph0" class="graph" transform="scale(1 1) rotate(0) translate(4 146)">
<title>IOStream_t</title>
<polygon fill="white" stroke="none" points="-4,4 -4,-146 174.5,-146 174.5,4 -4,4"/>
<!-- Node1 -->
<g id="node1" class="node"><title>Node1</title>
<polygon fill="#bfbfbf" stroke="black" points="14,-0.5 14,-19.5 81,-19.5 81,-0.5 14,-0.5"/>
<text text-anchor="middle" x="47.5" y="-7.5" font-family="Helvetica,sans-Serif" font-size="10.00">IOStream_t</text>
</g>
<!-- Node2 -->
<g id="node2" class="node"><title>Node2</title>
<polygon fill="white" stroke="#bfbfbf" points="0,-122.5 0,-141.5 35,-141.5 35,-122.5 0,-122.5"/>
<text text-anchor="middle" x="17.5" y="-129.5" font-family="Helvetica,sans-Serif" font-size="10.00">char</text>
</g>
<!-- Node2&#45;&gt;Node1 -->
<g id="edge1" class="edge"><title>Node2&#45;&gt;Node1</title>
<path fill="none" stroke="#9a32cd" stroke-dasharray="5,2" d="M18.2183,-112.165C19.433,-93.0051 22.7022,-62.6993 31.5,-38 33.8402,-31.43 37.8402,-24.68 41.2552,-19.5725"/>
<polygon fill="#9a32cd" stroke="#9a32cd" points="14.7169,-112.104 17.7052,-122.269 21.7079,-112.459 14.7169,-112.104"/>
<text text-anchor="middle" x="44" y="-68.5" font-family="Helvetica,sans-Serif" font-size="10.00"> peek</text>
</g>
<!-- Node3 -->
<g id="node3" class="node"><title>Node3</title>
<polygon fill="white" stroke="#bfbfbf" points="53,-122.5 53,-141.5 104,-141.5 104,-122.5 53,-122.5"/>
<text text-anchor="middle" x="78.5" y="-129.5" font-family="Helvetica,sans-Serif" font-size="10.00">uint16_t</text>
</g>
<!-- Node3&#45;&gt;Node1 -->
<g id="edge2" class="edge"><title>Node3&#45;&gt;Node1</title>
<path fill="none" stroke="#9a32cd" stroke-dasharray="5,2" d="M74.5829,-112.258C70.5177,-93.3852 63.7488,-63.4943 56.5,-38 54.7703,-31.9166 52.5203,-25.1666 50.7027,-19.9374"/>
<polygon fill="#9a32cd" stroke="#9a32cd" points="71.196,-113.159 76.696,-122.214 78.0434,-111.705 71.196,-113.159"/>
<text text-anchor="middle" x="121" y="-96" font-family="Helvetica,sans-Serif" font-size="10.00"> readBytes</text>
<text text-anchor="middle" x="121" y="-85" font-family="Helvetica,sans-Serif" font-size="10.00">readLineTruncate</text>
<text text-anchor="middle" x="121" y="-74" font-family="Helvetica,sans-Serif" font-size="10.00">writeLine</text>
<text text-anchor="middle" x="121" y="-63" font-family="Helvetica,sans-Serif" font-size="10.00">readLine</text>
<text text-anchor="middle" x="121" y="-52" font-family="Helvetica,sans-Serif" font-size="10.00">writeBytes</text>
<text text-anchor="middle" x="121" y="-41" font-family="Helvetica,sans-Serif" font-size="10.00">bytesAvailableToRead</text>
</g>
</g>
</svg>
