<?xml version="1.0" encoding="UTF-8" standalone="no"?>
<!DOCTYPE svg PUBLIC "-//W3C//DTD SVG 1.1//EN"
 "http://www.w3.org/Graphics/SVG/1.1/DTD/svg11.dtd">
<!-- Generated by graphviz version 2.38.0 (20140413.2041)
 -->
<!-- Title: quark Pages: 1 -->
<svg width="165pt" height="106pt"
 viewBox="0.00 0.00 164.50 106.00" xmlns="http://www.w3.org/2000/svg" xmlns:xlink="http://www.w3.org/1999/xlink">
<g id="graph0" class="graph" transform="scale(1 1) rotate(0) translate(4 102)">
<title>quark</title>
<polygon fill="white" stroke="none" points="-4,4 -4,-102 160.5,-102 160.5,4 -4,4"/>
<!-- Node1 -->
<g id="node1" class="node"><title>Node1</title>
<polygon fill="#bfbfbf" stroke="black" points="60,-0.5 60,-19.5 101,-19.5 101,-0.5 60,-0.5"/>
<text text-anchor="middle" x="80.5" y="-7.5" font-family="Helvetica,sans-Serif" font-size="10.00">quark</text>
</g>
<!-- Node2 -->
<g id="node2" class="node"><title>Node2</title>
<polygon fill="white" stroke="#bfbfbf" points="0,-78.5 0,-97.5 45,-97.5 45,-78.5 0,-78.5"/>
<text text-anchor="middle" x="22.5" y="-85.5" font-family="Helvetica,sans-Serif" font-size="10.00">double</text>
</g>
<!-- Node2&#45;&gt;Node1 -->
<g id="edge1" class="edge"><title>Node2&#45;&gt;Node1</title>
<path fill="none" stroke="#9a32cd" stroke-dasharray="5,2" d="M27.7193,-68.7107C31.129,-58.914 36.3008,-47.0378 43.5,-38 49.3464,-30.6605 57.6643,-24.3506 64.9331,-19.6805"/>
<polygon fill="#9a32cd" stroke="#9a32cd" points="24.3674,-67.7028 24.6985,-78.2924 31.0434,-69.8076 24.3674,-67.7028"/>
<text text-anchor="middle" x="60" y="-46.5" font-family="Helvetica,sans-Serif" font-size="10.00"> charge</text>
</g>
<!-- Node3 -->
<g id="node3" class="node"><title>Node3</title>
<polygon fill="white" stroke="#bfbfbf" points="63,-78.5 63,-97.5 98,-97.5 98,-78.5 63,-78.5"/>
<text text-anchor="middle" x="80.5" y="-85.5" font-family="Helvetica,sans-Serif" font-size="10.00">float</text>
</g>
<!-- Node3&#45;&gt;Node1 -->
<g id="edge2" class="edge"><title>Node3&#45;&gt;Node1</title>
<path fill="none" stroke="#9a32cd" stroke-dasharray="5,2" d="M80.5,-68.2239C80.5,-52.6974 80.5,-31.3582 80.5,-19.6165"/>
<polygon fill="#9a32cd" stroke="#9a32cd" points="77.0001,-68.2818 80.5,-78.2818 84.0001,-68.2819 77.0001,-68.2818"/>
<text text-anchor="middle" x="93" y="-52" font-family="Helvetica,sans-Serif" font-size="10.00"> spin</text>
<text text-anchor="middle" x="93" y="-41" font-family="Helvetica,sans-Serif" font-size="10.00">mass</text>
</g>
<!-- Node4 -->
<g id="node4" class="node"><title>Node4</title>
<polygon fill="white" stroke="#bfbfbf" points="116,-78.5 116,-97.5 151,-97.5 151,-78.5 116,-78.5"/>
<text text-anchor="middle" x="133.5" y="-85.5" font-family="Helvetica,sans-Serif" font-size="10.00">char</text>
</g>
<!-- Node4&#45;&gt;Node1 -->
<g id="edge3" class="edge"><title>Node4&#45;&gt;Node1</title>
<path fill="none" stroke="#9a32cd" stroke-dasharray="5,2" d="M126.456,-68.73C122.289,-59.1058 116.463,-47.3859 109.5,-38 104.418,-31.1493 97.455,-24.6005 91.6258,-19.6685"/>
<polygon fill="#9a32cd" stroke="#9a32cd" points="123.28,-70.2088 130.303,-78.1412 129.759,-67.5604 123.28,-70.2088"/>
<text text-anchor="middle" x="139" y="-52" font-family="Helvetica,sans-Serif" font-size="10.00"> symbol</text>
<text text-anchor="middle" x="139" y="-41" font-family="Helvetica,sans-Serif" font-size="10.00">name</text>
</g>
</g>
</svg>
