<?xml version="1.0" encoding="UTF-8" standalone="no"?>
<!DOCTYPE svg PUBLIC "-//W3C//DTD SVG 1.1//EN"
 "http://www.w3.org/Graphics/SVG/1.1/DTD/svg11.dtd">
<!-- Generated by graphviz version 2.38.0 (20140413.2041)
 -->
<!-- Title: prismf Pages: 1 -->
<svg width="57pt" height="117pt"
 viewBox="0.00 0.00 57.00 117.00" xmlns="http://www.w3.org/2000/svg" xmlns:xlink="http://www.w3.org/1999/xlink">
<g id="graph0" class="graph" transform="scale(1 1) rotate(0) translate(4 113)">
<title>prismf</title>
<polygon fill="white" stroke="none" points="-4,4 -4,-113 53,-113 53,4 -4,4"/>
<!-- Node1 -->
<g id="node1" class="node"><title>Node1</title>
<polygon fill="#bfbfbf" stroke="black" points="-3.55271e-15,-0.5 -3.55271e-15,-19.5 44,-19.5 44,-0.5 -3.55271e-15,-0.5"/>
<text text-anchor="middle" x="22" y="-7.5" font-family="Helvetica,sans-Serif" font-size="10.00">prismf</text>
</g>
<!-- Node2 -->
<g id="node2" class="node"><title>Node2</title>
<polygon fill="white" stroke="#bfbfbf" points="4.5,-89.5 4.5,-108.5 39.5,-108.5 39.5,-89.5 4.5,-89.5"/>
<text text-anchor="middle" x="22" y="-96.5" font-family="Helvetica,sans-Serif" font-size="10.00">float</text>
</g>
<!-- Node2&#45;&gt;Node1 -->
<g id="edge1" class="edge"><title>Node2&#45;&gt;Node1</title>
<path fill="none" stroke="#9a32cd" stroke-dasharray="5,2" d="M22,-79.1946C22,-60.7379 22,-33.412 22,-19.6249"/>
<polygon fill="#9a32cd" stroke="#9a32cd" points="18.5001,-79.34 22,-89.34 25.5001,-79.3401 18.5001,-79.34"/>
<text text-anchor="middle" x="35.5" y="-63" font-family="Helvetica,sans-Serif" font-size="10.00"> width</text>
<text text-anchor="middle" x="35.5" y="-52" font-family="Helvetica,sans-Serif" font-size="10.00">height</text>
<text text-anchor="middle" x="35.5" y="-41" font-family="Helvetica,sans-Serif" font-size="10.00">depth</text>
</g>
</g>
</svg>
