<?xml version="1.0" encoding="UTF-8" standalone="no"?>
<!DOCTYPE svg PUBLIC "-//W3C//DTD SVG 1.1//EN"
 "http://www.w3.org/Graphics/SVG/1.1/DTD/svg11.dtd">
<!-- Generated by graphviz version 2.38.0 (20140413.2041)
 -->
<!-- Title: intpair_t Pages: 1 -->
<svg width="67pt" height="106pt"
 viewBox="0.00 0.00 67.00 106.00" xmlns="http://www.w3.org/2000/svg" xmlns:xlink="http://www.w3.org/1999/xlink">
<g id="graph0" class="graph" transform="scale(1 1) rotate(0) translate(4 102)">
<title>intpair_t</title>
<polygon fill="white" stroke="none" points="-4,4 -4,-102 63,-102 63,4 -4,4"/>
<!-- Node1 -->
<g id="node1" class="node"><title>Node1</title>
<polygon fill="#bfbfbf" stroke="black" points="4,-0.5 4,-19.5 55,-19.5 55,-0.5 4,-0.5"/>
<text text-anchor="middle" x="29.5" y="-7.5" font-family="Helvetica,sans-Serif" font-size="10.00">intpair_t</text>
</g>
<!-- Node2 -->
<g id="node2" class="node"><title>Node2</title>
<polygon fill="white" stroke="#bfbfbf" points="0,-78.5 0,-97.5 59,-97.5 59,-78.5 0,-78.5"/>
<text text-anchor="middle" x="29.5" y="-85.5" font-family="Helvetica,sans-Serif" font-size="10.00">signed int</text>
</g>
<!-- Node2&#45;&gt;Node1 -->
<g id="edge1" class="edge"><title>Node2&#45;&gt;Node1</title>
<path fill="none" stroke="#9a32cd" stroke-dasharray="5,2" d="M29.5,-68.2239C29.5,-52.6974 29.5,-31.3582 29.5,-19.6165"/>
<polygon fill="#9a32cd" stroke="#9a32cd" points="26.0001,-68.2818 29.5,-78.2818 33.0001,-68.2819 26.0001,-68.2818"/>
<text text-anchor="middle" x="34" y="-52" font-family="Helvetica,sans-Serif" font-size="10.00"> x</text>
<text text-anchor="middle" x="34" y="-41" font-family="Helvetica,sans-Serif" font-size="10.00">y</text>
</g>
</g>
</svg>
