<?xml version="1.0" encoding="UTF-8" standalone="no"?>
<!DOCTYPE svg PUBLIC "-//W3C//DTD SVG 1.1//EN"
 "http://www.w3.org/Graphics/SVG/1.1/DTD/svg11.dtd">
<!-- Generated by graphviz version 2.38.0 (20140413.2041)
 -->
<!-- Title: line_int Pages: 1 -->
<svg width="88pt" height="184pt"
 viewBox="0.00 0.00 88.00 184.00" xmlns="http://www.w3.org/2000/svg" xmlns:xlink="http://www.w3.org/1999/xlink">
<g id="graph0" class="graph" transform="scale(1 1) rotate(0) translate(4 180)">
<title>line_int</title>
<polygon fill="white" stroke="none" points="-4,4 -4,-180 84,-180 84,4 -4,4"/>
<!-- Node1 -->
<g id="node1" class="node"><title>Node1</title>
<polygon fill="#bfbfbf" stroke="black" points="16.5,-0.5 16.5,-19.5 63.5,-19.5 63.5,-0.5 16.5,-0.5"/>
<text text-anchor="middle" x="40" y="-7.5" font-family="Helvetica,sans-Serif" font-size="10.00">line_int</text>
</g>
<!-- Node2 -->
<g id="node2" class="node"><title>Node2</title>
<g id="a_node2"><a xlink:href="math__types_8h.html#structpoint__int" target="_top" xlink:title="point_int">
<polygon fill="white" stroke="black" points="13.5,-78.5 13.5,-97.5 66.5,-97.5 66.5,-78.5 13.5,-78.5"/>
<text text-anchor="middle" x="40" y="-85.5" font-family="Helvetica,sans-Serif" font-size="10.00">point_int</text>
</a>
</g>
</g>
<!-- Node2&#45;&gt;Node1 -->
<g id="edge1" class="edge"><title>Node2&#45;&gt;Node1</title>
<path fill="none" stroke="#9a32cd" stroke-dasharray="5,2" d="M40,-68.2239C40,-52.6974 40,-31.3582 40,-19.6165"/>
<polygon fill="#9a32cd" stroke="#9a32cd" points="36.5001,-68.2818 40,-78.2818 43.5001,-68.2819 36.5001,-68.2818"/>
<text text-anchor="middle" x="44.5" y="-52" font-family="Helvetica,sans-Serif" font-size="10.00"> x</text>
<text text-anchor="middle" x="44.5" y="-41" font-family="Helvetica,sans-Serif" font-size="10.00">y</text>
</g>
<!-- Node3 -->
<g id="node3" class="node"><title>Node3</title>
<polygon fill="white" stroke="#bfbfbf" points="0,-156.5 0,-175.5 80,-175.5 80,-156.5 0,-156.5"/>
<text text-anchor="middle" x="40" y="-163.5" font-family="Helvetica,sans-Serif" font-size="10.00">signed long int</text>
</g>
<!-- Node3&#45;&gt;Node2 -->
<g id="edge2" class="edge"><title>Node3&#45;&gt;Node2</title>
<path fill="none" stroke="#9a32cd" stroke-dasharray="5,2" d="M40,-146.224C40,-130.697 40,-109.358 40,-97.6165"/>
<polygon fill="#9a32cd" stroke="#9a32cd" points="36.5001,-146.282 40,-156.282 43.5001,-146.282 36.5001,-146.282"/>
<text text-anchor="middle" x="44.5" y="-130" font-family="Helvetica,sans-Serif" font-size="10.00"> x</text>
<text text-anchor="middle" x="44.5" y="-119" font-family="Helvetica,sans-Serif" font-size="10.00">y</text>
</g>
</g>
</svg>
