<?xml version="1.0" encoding="UTF-8" standalone="no"?>
<!DOCTYPE svg PUBLIC "-//W3C//DTD SVG 1.1//EN"
 "http://www.w3.org/Graphics/SVG/1.1/DTD/svg11.dtd">
<!-- Generated by graphviz version 2.38.0 (20140413.2041)
 -->
<!-- Title: atom Pages: 1 -->
<svg width="231pt" height="106pt"
 viewBox="0.00 0.00 230.50 106.00" xmlns="http://www.w3.org/2000/svg" xmlns:xlink="http://www.w3.org/1999/xlink">
<g id="graph0" class="graph" transform="scale(1 1) rotate(0) translate(4 102)">
<title>atom</title>
<polygon fill="white" stroke="none" points="-4,4 -4,-102 226.5,-102 226.5,4 -4,4"/>
<!-- Node1 -->
<g id="node1" class="node"><title>Node1</title>
<polygon fill="#bfbfbf" stroke="black" points="83.5,-0.5 83.5,-19.5 121.5,-19.5 121.5,-0.5 83.5,-0.5"/>
<text text-anchor="middle" x="102.5" y="-7.5" font-family="Helvetica,sans-Serif" font-size="10.00">atom</text>
</g>
<!-- Node2 -->
<g id="node2" class="node"><title>Node2</title>
<polygon fill="white" stroke="#bfbfbf" points="0,-78.5 0,-97.5 45,-97.5 45,-78.5 0,-78.5"/>
<text text-anchor="middle" x="22.5" y="-85.5" font-family="Helvetica,sans-Serif" font-size="10.00">double</text>
</g>
<!-- Node2&#45;&gt;Node1 -->
<g id="edge1" class="edge"><title>Node2&#45;&gt;Node1</title>
<path fill="none" stroke="#9a32cd" stroke-dasharray="5,2" d="M26.0622,-68.4348C28.8131,-58.3768 33.5436,-46.3377 41.5,-38 52.7735,-26.1862 70.1335,-19.1953 83.4554,-15.2985"/>
<polygon fill="#9a32cd" stroke="#9a32cd" points="22.6232,-67.7726 23.7951,-78.3024 29.4455,-69.3401 22.6232,-67.7726"/>
<text text-anchor="middle" x="70" y="-46.5" font-family="Helvetica,sans-Serif" font-size="10.00"> atomicmass</text>
</g>
<!-- Node3 -->
<g id="node3" class="node"><title>Node3</title>
<polygon fill="white" stroke="#bfbfbf" points="85,-78.5 85,-97.5 120,-97.5 120,-78.5 85,-78.5"/>
<text text-anchor="middle" x="102.5" y="-85.5" font-family="Helvetica,sans-Serif" font-size="10.00">char</text>
</g>
<!-- Node3&#45;&gt;Node1 -->
<g id="edge2" class="edge"><title>Node3&#45;&gt;Node1</title>
<path fill="none" stroke="#9a32cd" stroke-dasharray="5,2" d="M102.5,-68.2239C102.5,-52.6974 102.5,-31.3582 102.5,-19.6165"/>
<polygon fill="#9a32cd" stroke="#9a32cd" points="99.0001,-68.2818 102.5,-78.2818 106,-68.2819 99.0001,-68.2818"/>
<text text-anchor="middle" x="120" y="-52" font-family="Helvetica,sans-Serif" font-size="10.00"> symbol</text>
<text text-anchor="middle" x="120" y="-41" font-family="Helvetica,sans-Serif" font-size="10.00">name</text>
</g>
<!-- Node4 -->
<g id="node4" class="node"><title>Node4</title>
<polygon fill="white" stroke="#bfbfbf" points="138,-78.5 138,-97.5 207,-97.5 207,-78.5 138,-78.5"/>
<text text-anchor="middle" x="172.5" y="-85.5" font-family="Helvetica,sans-Serif" font-size="10.00">unsigned int</text>
</g>
<!-- Node4&#45;&gt;Node1 -->
<g id="edge3" class="edge"><title>Node4&#45;&gt;Node1</title>
<path fill="none" stroke="#9a32cd" stroke-dasharray="5,2" d="M163.625,-69.3571C158.11,-59.4524 150.385,-47.2617 141.5,-38 134.659,-30.8689 125.662,-24.4906 118.033,-19.7263"/>
<polygon fill="#9a32cd" stroke="#9a32cd" points="160.592,-71.1083 168.366,-78.3067 166.778,-67.8316 160.592,-71.1083"/>
<text text-anchor="middle" x="190" y="-46.5" font-family="Helvetica,sans-Serif" font-size="10.00"> atomicnumber</text>
</g>
</g>
</svg>
