<?xml version="1.0" encoding="UTF-8" standalone="no"?>
<!DOCTYPE svg PUBLIC "-//W3C//DTD SVG 1.1//EN"
 "http://www.w3.org/Graphics/SVG/1.1/DTD/svg11.dtd">
<!-- Generated by graphviz version 2.38.0 (20140413.2041)
 -->
<!-- Title: tone Pages: 1 -->
<svg width="104pt" height="106pt"
 viewBox="0.00 0.00 103.50 106.00" xmlns="http://www.w3.org/2000/svg" xmlns:xlink="http://www.w3.org/1999/xlink">
<g id="graph0" class="graph" transform="scale(1 1) rotate(0) translate(4 102)">
<title>tone</title>
<polygon fill="white" stroke="none" points="-4,4 -4,-102 99.5,-102 99.5,4 -4,4"/>
<!-- Node1 -->
<g id="node1" class="node"><title>Node1</title>
<polygon fill="#bfbfbf" stroke="black" points="25,-0.5 25,-19.5 60,-19.5 60,-0.5 25,-0.5"/>
<text text-anchor="middle" x="42.5" y="-7.5" font-family="Helvetica,sans-Serif" font-size="10.00">tone</text>
</g>
<!-- Node2 -->
<g id="node2" class="node"><title>Node2</title>
<polygon fill="white" stroke="#bfbfbf" points="0,-78.5 0,-97.5 35,-97.5 35,-78.5 0,-78.5"/>
<text text-anchor="middle" x="17.5" y="-85.5" font-family="Helvetica,sans-Serif" font-size="10.00">char</text>
</g>
<!-- Node2&#45;&gt;Node1 -->
<g id="edge1" class="edge"><title>Node2&#45;&gt;Node1</title>
<path fill="none" stroke="#9a32cd" stroke-dasharray="5,2" d="M14.8843,-68.1229C14.3259,-58.7607 14.7917,-47.4619 18.5,-38 21.2462,-30.9929 26.6913,-24.6224 31.7016,-19.8312"/>
<polygon fill="#9a32cd" stroke="#9a32cd" points="11.4285,-68.7348 15.9242,-78.3285 18.3924,-68.0252 11.4285,-68.7348"/>
<text text-anchor="middle" x="32.5" y="-46.5" font-family="Helvetica,sans-Serif" font-size="10.00"> buffer</text>
</g>
<!-- Node3 -->
<g id="node3" class="node"><title>Node3</title>
<polygon fill="white" stroke="#bfbfbf" points="54,-78.5 54,-97.5 83,-97.5 83,-78.5 54,-78.5"/>
<text text-anchor="middle" x="68.5" y="-85.5" font-family="Helvetica,sans-Serif" font-size="10.00">int</text>
</g>
<!-- Node3&#45;&gt;Node1 -->
<g id="edge2" class="edge"><title>Node3&#45;&gt;Node1</title>
<path fill="none" stroke="#9a32cd" stroke-dasharray="5,2" d="M62.2307,-68.6744C56.907,-53.1127 49.5036,-31.4722 45.4477,-19.6165"/>
<polygon fill="#9a32cd" stroke="#9a32cd" points="58.969,-69.9531 65.5175,-78.2818 65.5921,-67.6873 58.969,-69.9531"/>
<text text-anchor="middle" x="77" y="-52" font-family="Helvetica,sans-Serif" font-size="10.00"> sample</text>
<text text-anchor="middle" x="77" y="-41" font-family="Helvetica,sans-Serif" font-size="10.00">buf_size</text>
</g>
</g>
</svg>
