<?xml version="1.0" encoding="UTF-8" standalone="no"?>
<!DOCTYPE svg PUBLIC "-//W3C//DTD SVG 1.1//EN"
 "http://www.w3.org/Graphics/SVG/1.1/DTD/svg11.dtd">
<!-- Generated by graphviz version 2.38.0 (20140413.2041)
 -->
<!-- Title: chemistry.h Pages: 1 -->
<svg width="172pt" height="84pt"
 viewBox="0.00 0.00 172.00 84.00" xmlns="http://www.w3.org/2000/svg" xmlns:xlink="http://www.w3.org/1999/xlink">
<g id="graph0" class="graph" transform="scale(1 1) rotate(0) translate(4 80)">
<title>chemistry.h</title>
<polygon fill="white" stroke="none" points="-4,4 -4,-80 168,-80 168,4 -4,4"/>
<!-- Node1 -->
<g id="node1" class="node"><title>Node1</title>
<polygon fill="#bfbfbf" stroke="black" points="45,-56.5 45,-75.5 113,-75.5 113,-56.5 45,-56.5"/>
<text text-anchor="middle" x="79" y="-63.5" font-family="Helvetica,sans-Serif" font-size="10.00">chemistry.h</text>
</g>
<!-- Node2 -->
<g id="node2" class="node"><title>Node2</title>
<g id="a_node2"><a xlink:href="chemistry_8c.html" target="_top" xlink:title="Chemistry&#45;related Functions. ">
<polygon fill="white" stroke="black" points="0,-0.5 0,-19.5 68,-19.5 68,-0.5 0,-0.5"/>
<text text-anchor="middle" x="34" y="-7.5" font-family="Helvetica,sans-Serif" font-size="10.00">chemistry.c</text>
</a>
</g>
</g>
<!-- Node1&#45;&gt;Node2 -->
<g id="edge1" class="edge"><title>Node1&#45;&gt;Node2</title>
<path fill="none" stroke="midnightblue" d="M64.9533,-48.144C57.1131,-38.7357 47.6705,-27.4046 41.2926,-19.7511"/>
<polygon fill="midnightblue" stroke="midnightblue" points="62.4785,-50.6414 71.5692,-56.083 67.8561,-46.1601 62.4785,-50.6414"/>
</g>
<!-- Node3 -->
<g id="node3" class="node"><title>Node3</title>
<g id="a_node3"><a xlink:href="pychemistry_8c.html" target="_top" xlink:title="Chemistry&#45;related Functions. ">
<polygon fill="white" stroke="black" points="86,-0.5 86,-19.5 164,-19.5 164,-0.5 86,-0.5"/>
<text text-anchor="middle" x="125" y="-7.5" font-family="Helvetica,sans-Serif" font-size="10.00">pychemistry.c</text>
</a>
</g>
</g>
<!-- Node1&#45;&gt;Node3 -->
<g id="edge2" class="edge"><title>Node1&#45;&gt;Node3</title>
<path fill="none" stroke="midnightblue" d="M93.114,-48.4314C101.176,-38.9673 110.959,-27.4827 117.545,-19.7511"/>
<polygon fill="midnightblue" stroke="midnightblue" points="90.4163,-46.2009 86.596,-56.083 95.745,-50.7402 90.4163,-46.2009"/>
</g>
</g>
</svg>
