<?xml version="1.0" encoding="UTF-8" standalone="no"?>
<!DOCTYPE svg PUBLIC "-//W3C//DTD SVG 1.1//EN"
 "http://www.w3.org/Graphics/SVG/1.1/DTD/svg11.dtd">
<!-- Generated by graphviz version 2.38.0 (20140413.2041)
 -->
<!-- Title: chemistry_types.h Pages: 1 -->
<svg width="679pt" height="140pt"
 viewBox="0.00 0.00 679.00 140.00" xmlns="http://www.w3.org/2000/svg" xmlns:xlink="http://www.w3.org/1999/xlink">
<g id="graph0" class="graph" transform="scale(1 1) rotate(0) translate(4 136)">
<title>chemistry_types.h</title>
<polygon fill="white" stroke="none" points="-4,4 -4,-136 675,-136 675,4 -4,4"/>
<!-- Node1 -->
<g id="node1" class="node"><title>Node1</title>
<polygon fill="#bfbfbf" stroke="black" points="293.5,-112.5 293.5,-131.5 390.5,-131.5 390.5,-112.5 293.5,-112.5"/>
<text text-anchor="middle" x="342" y="-119.5" font-family="Helvetica,sans-Serif" font-size="10.00">chemistry_types.h</text>
</g>
<!-- Node2 -->
<g id="node2" class="node"><title>Node2</title>
<g id="a_node2"><a xlink:href="MACROS_8h.html" target="_top" xlink:title="Standard Macros Header. ">
<polygon fill="white" stroke="black" points="307.5,-56.5 307.5,-75.5 376.5,-75.5 376.5,-56.5 307.5,-56.5"/>
<text text-anchor="middle" x="342" y="-63.5" font-family="Helvetica,sans-Serif" font-size="10.00">MACROS.h</text>
</a>
</g>
</g>
<!-- Node1&#45;&gt;Node2 -->
<g id="edge1" class="edge"><title>Node1&#45;&gt;Node2</title>
<path fill="none" stroke="midnightblue" d="M342,-112.083C342,-105.006 342,-94.8611 342,-85.9865"/>
<polygon fill="midnightblue" stroke="midnightblue" points="345.5,-85.751 342,-75.7511 338.5,-85.7511 345.5,-85.751"/>
</g>
<!-- Node3 -->
<g id="node3" class="node"><title>Node3</title>
<polygon fill="white" stroke="#bfbfbf" points="0,-0.5 0,-19.5 62,-19.5 62,-0.5 0,-0.5"/>
<text text-anchor="middle" x="31" y="-7.5" font-family="Helvetica,sans-Serif" font-size="10.00">complex.h</text>
</g>
<!-- Node2&#45;&gt;Node3 -->
<g id="edge2" class="edge"><title>Node2&#45;&gt;Node3</title>
<path fill="none" stroke="midnightblue" d="M307.236,-59.8735C257.375,-52.38 162.465,-37.5931 72.248,-20.1596"/>
<polygon fill="midnightblue" stroke="midnightblue" points="72.892,-16.7193 62.4074,-18.2435 71.5541,-23.5903 72.892,-16.7193"/>
</g>
<!-- Node4 -->
<g id="node4" class="node"><title>Node4</title>
<polygon fill="white" stroke="#bfbfbf" points="80.5,-0.5 80.5,-19.5 127.5,-19.5 127.5,-0.5 80.5,-0.5"/>
<text text-anchor="middle" x="104" y="-7.5" font-family="Helvetica,sans-Serif" font-size="10.00">errno.h</text>
</g>
<!-- Node2&#45;&gt;Node4 -->
<g id="edge3" class="edge"><title>Node2&#45;&gt;Node4</title>
<path fill="none" stroke="midnightblue" d="M307.42,-57.9617C268.563,-49.9319 203.382,-36.0995 137.848,-20.1107"/>
<polygon fill="midnightblue" stroke="midnightblue" points="138.302,-16.6184 127.756,-17.6318 136.632,-23.4163 138.302,-16.6184"/>
</g>
<!-- Node5 -->
<g id="node5" class="node"><title>Node5</title>
<polygon fill="white" stroke="#bfbfbf" points="146,-0.5 146,-19.5 190,-19.5 190,-0.5 146,-0.5"/>
<text text-anchor="middle" x="168" y="-7.5" font-family="Helvetica,sans-Serif" font-size="10.00">float.h</text>
</g>
<!-- Node2&#45;&gt;Node5 -->
<g id="edge4" class="edge"><title>Node2&#45;&gt;Node5</title>
<path fill="none" stroke="midnightblue" d="M314.429,-56.4435C283.253,-46.768 232.572,-31.0397 199.764,-20.8577"/>
<polygon fill="midnightblue" stroke="midnightblue" points="200.785,-17.51 190.197,-17.8886 198.71,-24.1954 200.785,-17.51"/>
</g>
<!-- Node6 -->
<g id="node6" class="node"><title>Node6</title>
<polygon fill="white" stroke="#bfbfbf" points="208.5,-0.5 208.5,-19.5 267.5,-19.5 267.5,-0.5 208.5,-0.5"/>
<text text-anchor="middle" x="238" y="-7.5" font-family="Helvetica,sans-Serif" font-size="10.00">inttypes.h</text>
</g>
<!-- Node2&#45;&gt;Node6 -->
<g id="edge5" class="edge"><title>Node2&#45;&gt;Node6</title>
<path fill="none" stroke="midnightblue" d="M325.291,-56.324C308.688,-47.7034 282.998,-34.3643 263.78,-24.3855"/>
<polygon fill="midnightblue" stroke="midnightblue" points="265.156,-21.1565 254.668,-19.6545 261.93,-27.3689 265.156,-21.1565"/>
</g>
<!-- Node7 -->
<g id="node7" class="node"><title>Node7</title>
<polygon fill="white" stroke="#bfbfbf" points="286,-0.5 286,-19.5 334,-19.5 334,-0.5 286,-0.5"/>
<text text-anchor="middle" x="310" y="-7.5" font-family="Helvetica,sans-Serif" font-size="10.00">limits.h</text>
</g>
<!-- Node2&#45;&gt;Node7 -->
<g id="edge6" class="edge"><title>Node2&#45;&gt;Node7</title>
<path fill="none" stroke="midnightblue" d="M336.716,-56.083C332.289,-48.6127 325.837,-37.7244 320.382,-28.5199"/>
<polygon fill="midnightblue" stroke="midnightblue" points="323.295,-26.5697 315.186,-19.7511 317.273,-30.1383 323.295,-26.5697"/>
</g>
<!-- Node8 -->
<g id="node8" class="node"><title>Node8</title>
<polygon fill="white" stroke="#bfbfbf" points="352,-0.5 352,-19.5 398,-19.5 398,-0.5 352,-0.5"/>
<text text-anchor="middle" x="375" y="-7.5" font-family="Helvetica,sans-Serif" font-size="10.00">stdio.h</text>
</g>
<!-- Node2&#45;&gt;Node8 -->
<g id="edge7" class="edge"><title>Node2&#45;&gt;Node8</title>
<path fill="none" stroke="midnightblue" d="M347.449,-56.083C352.014,-48.6127 358.668,-37.7244 364.293,-28.5199"/>
<polygon fill="midnightblue" stroke="midnightblue" points="367.424,-30.109 369.652,-19.7511 361.451,-26.4588 367.424,-30.109"/>
</g>
<!-- Node9 -->
<g id="node9" class="node"><title>Node9</title>
<polygon fill="white" stroke="#bfbfbf" points="416,-0.5 416,-19.5 464,-19.5 464,-0.5 416,-0.5"/>
<text text-anchor="middle" x="440" y="-7.5" font-family="Helvetica,sans-Serif" font-size="10.00">stdlib.h</text>
</g>
<!-- Node2&#45;&gt;Node9 -->
<g id="edge8" class="edge"><title>Node2&#45;&gt;Node9</title>
<path fill="none" stroke="midnightblue" d="M357.745,-56.324C373.319,-47.7428 397.377,-34.486 415.459,-24.5224"/>
<polygon fill="midnightblue" stroke="midnightblue" points="417.224,-27.546 424.294,-19.6545 413.846,-21.4152 417.224,-27.546"/>
</g>
<!-- Node10 -->
<g id="node10" class="node"><title>Node10</title>
<polygon fill="white" stroke="#bfbfbf" points="482.5,-0.5 482.5,-19.5 531.5,-19.5 531.5,-0.5 482.5,-0.5"/>
<text text-anchor="middle" x="507" y="-7.5" font-family="Helvetica,sans-Serif" font-size="10.00">string.h</text>
</g>
<!-- Node2&#45;&gt;Node10 -->
<g id="edge9" class="edge"><title>Node2&#45;&gt;Node10</title>
<path fill="none" stroke="midnightblue" d="M368.145,-56.4435C396.433,-47.1854 441.656,-32.3854 472.761,-22.2054"/>
<polygon fill="midnightblue" stroke="midnightblue" points="473.91,-25.5123 482.325,-19.0755 471.732,-18.8595 473.91,-25.5123"/>
</g>
<!-- Node11 -->
<g id="node11" class="node"><title>Node11</title>
<polygon fill="white" stroke="#bfbfbf" points="549.5,-0.5 549.5,-19.5 600.5,-19.5 600.5,-0.5 549.5,-0.5"/>
<text text-anchor="middle" x="575" y="-7.5" font-family="Helvetica,sans-Serif" font-size="10.00">wchar.h</text>
</g>
<!-- Node2&#45;&gt;Node11 -->
<g id="edge10" class="edge"><title>Node2&#45;&gt;Node11</title>
<path fill="none" stroke="midnightblue" d="M376.602,-57.5755C414.35,-49.3877 476.798,-35.5869 539.367,-20.3404"/>
<polygon fill="midnightblue" stroke="midnightblue" points="540.525,-23.6601 549.406,-17.8816 538.86,-16.861 540.525,-23.6601"/>
</g>
<!-- Node12 -->
<g id="node12" class="node"><title>Node12</title>
<polygon fill="white" stroke="#bfbfbf" points="619,-0.5 619,-19.5 671,-19.5 671,-0.5 619,-0.5"/>
<text text-anchor="middle" x="645" y="-7.5" font-family="Helvetica,sans-Serif" font-size="10.00">stdarg.h</text>
</g>
<!-- Node2&#45;&gt;Node12 -->
<g id="edge11" class="edge"><title>Node2&#45;&gt;Node12</title>
<path fill="none" stroke="midnightblue" d="M376.871,-60.116C426.326,-52.9779 519.852,-38.7022 608.712,-20.1303"/>
<polygon fill="midnightblue" stroke="midnightblue" points="609.623,-23.5152 618.683,-18.0237 608.176,-16.6664 609.623,-23.5152"/>
</g>
</g>
</svg>
