<?xml version="1.0" encoding="UTF-8" standalone="no"?>
<!DOCTYPE svg PUBLIC "-//W3C//DTD SVG 1.1//EN"
 "http://www.w3.org/Graphics/SVG/1.1/DTD/svg11.dtd">
<!-- Generated by graphviz version 2.38.0 (20140413.2041)
 -->
<!-- Title: ObjectError Pages: 1 -->
<svg width="230pt" height="84pt"
 viewBox="0.00 0.00 230.00 84.00" xmlns="http://www.w3.org/2000/svg" xmlns:xlink="http://www.w3.org/1999/xlink">
<g id="graph0" class="graph" transform="scale(1 1) rotate(0) translate(4 80)">
<title>ObjectError</title>
<polygon fill="white" stroke="none" points="-4,4 -4,-80 226,-80 226,4 -4,4"/>
<!-- Node1 -->
<g id="node1" class="node"><title>Node1</title>
<polygon fill="#bfbfbf" stroke="black" points="79,-0.5 79,-19.5 145,-19.5 145,-0.5 79,-0.5"/>
<text text-anchor="middle" x="112" y="-7.5" font-family="Helvetica,sans-Serif" font-size="10.00">ObjectError</text>
</g>
<!-- Node2 -->
<g id="node2" class="node"><title>Node2</title>
<g id="a_node2"><a xlink:href="classNameError.html" target="_top" xlink:title="NameError">
<polygon fill="white" stroke="black" points="0,-56.5 0,-75.5 64,-75.5 64,-56.5 0,-56.5"/>
<text text-anchor="middle" x="32" y="-63.5" font-family="Helvetica,sans-Serif" font-size="10.00">NameError</text>
</a>
</g>
</g>
<!-- Node2&#45;&gt;Node1 -->
<g id="edge1" class="edge"><title>Node2&#45;&gt;Node1</title>
<path fill="none" stroke="midnightblue" d="M53.3006,-50.6221C67.915,-40.7574 86.8268,-27.9919 99.1785,-19.6545"/>
<polygon fill="midnightblue" stroke="midnightblue" points="51.1837,-47.8282 44.8534,-56.324 55.1001,-53.6302 51.1837,-47.8282"/>
</g>
<!-- Node3 -->
<g id="node3" class="node"><title>Node3</title>
<g id="a_node3"><a xlink:href="classTypeError.html" target="_top" xlink:title="TypeError">
<polygon fill="white" stroke="black" points="82.5,-56.5 82.5,-75.5 141.5,-75.5 141.5,-56.5 82.5,-56.5"/>
<text text-anchor="middle" x="112" y="-63.5" font-family="Helvetica,sans-Serif" font-size="10.00">TypeError</text>
</a>
</g>
</g>
<!-- Node3&#45;&gt;Node1 -->
<g id="edge2" class="edge"><title>Node3&#45;&gt;Node1</title>
<path fill="none" stroke="midnightblue" d="M112,-45.8045C112,-36.9102 112,-26.7798 112,-19.7511"/>
<polygon fill="midnightblue" stroke="midnightblue" points="108.5,-46.083 112,-56.083 115.5,-46.083 108.5,-46.083"/>
</g>
<!-- Node4 -->
<g id="node4" class="node"><title>Node4</title>
<g id="a_node4"><a xlink:href="classValueError.html" target="_top" xlink:title="ValueError">
<polygon fill="white" stroke="black" points="160,-56.5 160,-75.5 222,-75.5 222,-56.5 160,-56.5"/>
<text text-anchor="middle" x="191" y="-63.5" font-family="Helvetica,sans-Serif" font-size="10.00">ValueError</text>
</a>
</g>
</g>
<!-- Node4&#45;&gt;Node1 -->
<g id="edge3" class="edge"><title>Node4&#45;&gt;Node1</title>
<path fill="none" stroke="midnightblue" d="M169.966,-50.6221C155.534,-40.7574 136.859,-27.9919 124.661,-19.6545"/>
<polygon fill="midnightblue" stroke="midnightblue" points="168.077,-53.5703 178.307,-56.324 172.027,-47.7914 168.077,-53.5703"/>
</g>
</g>
</svg>
