<?xml version="1.0" encoding="UTF-8" standalone="no"?>
<!DOCTYPE svg PUBLIC "-//W3C//DTD SVG 1.1//EN"
 "http://www.w3.org/Graphics/SVG/1.1/DTD/svg11.dtd">
<!-- Generated by graphviz version 2.38.0 (20140413.2041)
 -->
<!-- Title: Graphical Class Hierarchy Pages: 1 -->
<svg width="174pt" height="104pt"
 viewBox="0.00 0.00 174.00 104.00" xmlns="http://www.w3.org/2000/svg" xmlns:xlink="http://www.w3.org/1999/xlink">
<g id="graph0" class="graph" transform="scale(1 1) rotate(0) translate(4 100)">
<title>Graphical Class Hierarchy</title>
<polygon fill="white" stroke="none" points="-4,4 -4,-100 170,-100 170,4 -4,4"/>
<!-- Node1 -->
<g id="node1" class="node"><title>Node1</title>
<g id="a_node1"><a xlink:href="classNameError.html" target="_top" xlink:title="NameError">
<polygon fill="white" stroke="black" points="0,-76.5 0,-95.5 64,-95.5 64,-76.5 0,-76.5"/>
<text text-anchor="middle" x="32" y="-83.5" font-family="Helvetica,sans-Serif" font-size="10.00">NameError</text>
</a>
</g>
</g>
<!-- Node2 -->
<g id="node2" class="node"><title>Node2</title>
<g id="a_node2"><a xlink:href="classlib_1_1basic_1_1ObjectError.html" target="_top" xlink:title="ObjectError">
<polygon fill="white" stroke="black" points="100,-38.5 100,-57.5 166,-57.5 166,-38.5 100,-38.5"/>
<text text-anchor="middle" x="133" y="-45.5" font-family="Helvetica,sans-Serif" font-size="10.00">ObjectError</text>
</a>
</g>
</g>
<!-- Node1&#45;&gt;Node2 -->
<g id="edge1" class="edge"><title>Node1&#45;&gt;Node2</title>
<path fill="none" stroke="midnightblue" d="M67.5577,-72.7354C80.5546,-67.7467 95.068,-62.1759 107.026,-57.5859"/>
<polygon fill="midnightblue" stroke="midnightblue" points="66.0635,-69.5599 57.9819,-76.411 68.572,-76.095 66.0635,-69.5599"/>
</g>
<!-- Node3 -->
<g id="node3" class="node"><title>Node3</title>
<g id="a_node3"><a xlink:href="classTypeError.html" target="_top" xlink:title="TypeError">
<polygon fill="white" stroke="black" points="2.5,-38.5 2.5,-57.5 61.5,-57.5 61.5,-38.5 2.5,-38.5"/>
<text text-anchor="middle" x="32" y="-45.5" font-family="Helvetica,sans-Serif" font-size="10.00">TypeError</text>
</a>
</g>
</g>
<!-- Node3&#45;&gt;Node2 -->
<g id="edge2" class="edge"><title>Node3&#45;&gt;Node2</title>
<path fill="none" stroke="midnightblue" d="M71.8462,-48C81.1553,-48 90.9921,-48 99.9537,-48"/>
<polygon fill="midnightblue" stroke="midnightblue" points="71.6349,-44.5001 61.6349,-48 71.6349,-51.5001 71.6349,-44.5001"/>
</g>
<!-- Node4 -->
<g id="node4" class="node"><title>Node4</title>
<g id="a_node4"><a xlink:href="classValueError.html" target="_top" xlink:title="ValueError">
<polygon fill="white" stroke="black" points="1,-0.5 1,-19.5 63,-19.5 63,-0.5 1,-0.5"/>
<text text-anchor="middle" x="32" y="-7.5" font-family="Helvetica,sans-Serif" font-size="10.00">ValueError</text>
</a>
</g>
</g>
<!-- Node4&#45;&gt;Node2 -->
<g id="edge3" class="edge"><title>Node4&#45;&gt;Node2</title>
<path fill="none" stroke="midnightblue" d="M67.5577,-23.2646C80.5546,-28.2533 95.068,-33.8241 107.026,-38.4141"/>
<polygon fill="midnightblue" stroke="midnightblue" points="68.572,-19.905 57.9819,-19.589 66.0635,-26.4401 68.572,-19.905"/>
</g>
</g>
</svg>
