<?xml version="1.0" encoding="UTF-8" standalone="no"?>
<!DOCTYPE svg PUBLIC "-//W3C//DTD SVG 1.1//EN"
 "http://www.w3.org/Graphics/SVG/1.1/DTD/svg11.dtd">
<!-- Generated by graphviz version 2.38.0 (20140413.2041)
 -->
<!-- Title: MACROS.h Pages: 1 -->
<svg width="1851pt" height="196pt"
 viewBox="0.00 0.00 1850.50 196.00" xmlns="http://www.w3.org/2000/svg" xmlns:xlink="http://www.w3.org/1999/xlink">
<g id="graph0" class="graph" transform="scale(1 1) rotate(0) translate(4 192)">
<title>MACROS.h</title>
<polygon fill="white" stroke="none" points="-4,4 -4,-192 1846.5,-192 1846.5,4 -4,4"/>
<!-- Node1 -->
<g id="node1" class="node"><title>Node1</title>
<polygon fill="#bfbfbf" stroke="black" points="712,-168.5 712,-187.5 781,-187.5 781,-168.5 712,-168.5"/>
<text text-anchor="middle" x="746.5" y="-175.5" font-family="Helvetica,sans-Serif" font-size="10.00">MACROS.h</text>
</g>
<!-- Node2 -->
<g id="node2" class="node"><title>Node2</title>
<g id="a_node2"><a xlink:href="chemistry_8h.html" target="_top" xlink:title="Chemistry&#45;related Functions (header) ">
<polygon fill="white" stroke="black" points="464.5,-56.5 464.5,-75.5 532.5,-75.5 532.5,-56.5 464.5,-56.5"/>
<text text-anchor="middle" x="498.5" y="-63.5" font-family="Helvetica,sans-Serif" font-size="10.00">chemistry.h</text>
</a>
</g>
</g>
<!-- Node1&#45;&gt;Node2 -->
<g id="edge1" class="edge"><title>Node1&#45;&gt;Node2</title>
<path fill="none" stroke="midnightblue" d="M701.706,-171.804C664.53,-166.079 611.195,-154.515 569.5,-132 542.149,-117.23 517.062,-89.6098 505.388,-75.6091"/>
<polygon fill="midnightblue" stroke="midnightblue" points="701.339,-175.287 711.739,-173.268 702.35,-168.361 701.339,-175.287"/>
</g>
<!-- Node5 -->
<g id="node5" class="node"><title>Node5</title>
<g id="a_node5"><a xlink:href="chemistry__types_8h.html" target="_top" xlink:title="Chemistry&#45;related Data&#45;types (header) ">
<polygon fill="white" stroke="black" points="425,-112.5 425,-131.5 522,-131.5 522,-112.5 425,-112.5"/>
<text text-anchor="middle" x="473.5" y="-119.5" font-family="Helvetica,sans-Serif" font-size="10.00">chemistry_types.h</text>
</a>
</g>
</g>
<!-- Node1&#45;&gt;Node5 -->
<g id="edge4" class="edge"><title>Node1&#45;&gt;Node5</title>
<path fill="none" stroke="midnightblue" d="M701.826,-168.163C650.65,-158.041 567.365,-141.567 516.781,-131.561"/>
<polygon fill="midnightblue" stroke="midnightblue" points="701.435,-171.654 711.924,-170.161 702.794,-164.787 701.435,-171.654"/>
</g>
<!-- Node7 -->
<g id="node7" class="node"><title>Node7</title>
<g id="a_node7"><a xlink:href="chron_8h.html" target="_top" xlink:title="Time Functions (header) ">
<polygon fill="white" stroke="black" points="10,-112.5 10,-131.5 59,-131.5 59,-112.5 10,-112.5"/>
<text text-anchor="middle" x="34.5" y="-119.5" font-family="Helvetica,sans-Serif" font-size="10.00">chron.h</text>
</a>
</g>
</g>
<!-- Node1&#45;&gt;Node7 -->
<g id="edge7" class="edge"><title>Node1&#45;&gt;Node7</title>
<path fill="none" stroke="midnightblue" d="M701.662,-176.569C593.076,-174.97 307.616,-167.441 72.5,-132 68.2094,-131.353 63.6892,-130.467 59.3222,-129.502"/>
<polygon fill="midnightblue" stroke="midnightblue" points="701.866,-180.072 711.913,-176.71 701.962,-173.073 701.866,-180.072"/>
</g>
<!-- Node9 -->
<g id="node9" class="node"><title>Node9</title>
<g id="a_node9"><a xlink:href="compression_8h.html" target="_top" xlink:title="Compression Functions (header) ">
<polygon fill="white" stroke="black" points="81.5,-112.5 81.5,-131.5 161.5,-131.5 161.5,-112.5 81.5,-112.5"/>
<text text-anchor="middle" x="121.5" y="-119.5" font-family="Helvetica,sans-Serif" font-size="10.00">compression.h</text>
</a>
</g>
</g>
<!-- Node1&#45;&gt;Node9 -->
<g id="edge9" class="edge"><title>Node1&#45;&gt;Node9</title>
<path fill="none" stroke="midnightblue" d="M701.687,-174.585C605.718,-169.164 373.293,-154.694 179.5,-132 173.731,-131.324 167.656,-130.504 161.697,-129.636"/>
<polygon fill="midnightblue" stroke="midnightblue" points="701.715,-178.092 711.895,-175.157 702.107,-171.103 701.715,-178.092"/>
</g>
<!-- Node11 -->
<g id="node11" class="node"><title>Node11</title>
<g id="a_node11"><a xlink:href="cryptx_8h.html" target="_top" xlink:title="Cryptography Functions (header) ">
<polygon fill="white" stroke="black" points="188.5,-112.5 188.5,-131.5 240.5,-131.5 240.5,-112.5 188.5,-112.5"/>
<text text-anchor="middle" x="214.5" y="-119.5" font-family="Helvetica,sans-Serif" font-size="10.00">cryptx.h</text>
</a>
</g>
</g>
<!-- Node1&#45;&gt;Node11 -->
<g id="edge11" class="edge"><title>Node1&#45;&gt;Node11</title>
<path fill="none" stroke="midnightblue" d="M701.776,-173.917C616.895,-167.818 426.689,-152.964 267.5,-132 258.709,-130.842 249.144,-129.305 240.59,-127.828"/>
<polygon fill="midnightblue" stroke="midnightblue" points="701.614,-177.414 711.838,-174.634 702.112,-170.432 701.614,-177.414"/>
</g>
<!-- Node13 -->
<g id="node13" class="node"><title>Node13</title>
<g id="a_node13"><a xlink:href="extra__datatypes_8h.html" target="_top" xlink:title="Additional datatypes, such as FILO&#45;Stack, Queue (FIFO Stack), etc. (header) ">
<polygon fill="white" stroke="black" points="277,-112.5 277,-131.5 372,-131.5 372,-112.5 277,-112.5"/>
<text text-anchor="middle" x="324.5" y="-119.5" font-family="Helvetica,sans-Serif" font-size="10.00">extra_datatypes.h</text>
</a>
</g>
</g>
<!-- Node1&#45;&gt;Node13 -->
<g id="edge13" class="edge"><title>Node1&#45;&gt;Node13</title>
<path fill="none" stroke="midnightblue" d="M701.715,-171.269C621.587,-161.016 454.405,-139.623 372.21,-129.105"/>
<polygon fill="midnightblue" stroke="midnightblue" points="701.603,-174.783 711.966,-172.581 702.491,-167.84 701.603,-174.783"/>
</g>
<!-- Node15 -->
<g id="node15" class="node"><title>Node15</title>
<g id="a_node15"><a xlink:href="fuzzy__logic_8h.html" target="_top" xlink:title="Fuzzy Logic (header) ">
<polygon fill="white" stroke="black" points="578.5,-112.5 578.5,-131.5 652.5,-131.5 652.5,-112.5 578.5,-112.5"/>
<text text-anchor="middle" x="615.5" y="-119.5" font-family="Helvetica,sans-Serif" font-size="10.00">fuzzy_logic.h</text>
</a>
</g>
</g>
<!-- Node1&#45;&gt;Node15 -->
<g id="edge15" class="edge"><title>Node1&#45;&gt;Node15</title>
<path fill="none" stroke="midnightblue" d="M716.183,-164.503C691.624,-154.38 657.682,-140.388 636.16,-131.516"/>
<polygon fill="midnightblue" stroke="midnightblue" points="715.163,-167.868 725.743,-168.444 717.831,-161.397 715.163,-167.868"/>
</g>
<!-- Node17 -->
<g id="node17" class="node"><title>Node17</title>
<g id="a_node17"><a xlink:href="geometry_8h.html" target="_top" xlink:title="Geometry Equations (header) ">
<polygon fill="white" stroke="black" points="643,-56.5 643,-75.5 708,-75.5 708,-56.5 643,-56.5"/>
<text text-anchor="middle" x="675.5" y="-63.5" font-family="Helvetica,sans-Serif" font-size="10.00">geometry.h</text>
</a>
</g>
</g>
<!-- Node1&#45;&gt;Node17 -->
<g id="edge17" class="edge"><title>Node1&#45;&gt;Node17</title>
<path fill="none" stroke="midnightblue" d="M726.885,-161.812C717.566,-153.775 706.879,-143.252 699.5,-132 687.494,-113.692 680.429,-88.5626 677.347,-75.5644"/>
<polygon fill="midnightblue" stroke="midnightblue" points="724.667,-164.519 734.605,-168.19 729.125,-159.122 724.667,-164.519"/>
</g>
<!-- Node19 -->
<g id="node19" class="node"><title>Node19</title>
<g id="a_node19"><a xlink:href="math__types_8h.html" target="_top" xlink:title="Math&#45;related Data&#45;types (header) ">
<polygon fill="white" stroke="black" points="708.5,-112.5 708.5,-131.5 784.5,-131.5 784.5,-112.5 708.5,-112.5"/>
<text text-anchor="middle" x="746.5" y="-119.5" font-family="Helvetica,sans-Serif" font-size="10.00">math_types.h</text>
</a>
</g>
</g>
<!-- Node1&#45;&gt;Node19 -->
<g id="edge19" class="edge"><title>Node1&#45;&gt;Node19</title>
<path fill="none" stroke="midnightblue" d="M746.5,-157.805C746.5,-148.91 746.5,-138.78 746.5,-131.751"/>
<polygon fill="midnightblue" stroke="midnightblue" points="743,-158.083 746.5,-168.083 750,-158.083 743,-158.083"/>
</g>
<!-- Node20 -->
<g id="node20" class="node"><title>Node20</title>
<g id="a_node20"><a xlink:href="mathconstants_8h.html" target="_top" xlink:title="Math Constants (header) ">
<polygon fill="white" stroke="black" points="726,-56.5 726,-75.5 815,-75.5 815,-56.5 726,-56.5"/>
<text text-anchor="middle" x="770.5" y="-63.5" font-family="Helvetica,sans-Serif" font-size="10.00">mathconstants.h</text>
</a>
</g>
</g>
<!-- Node1&#45;&gt;Node20 -->
<g id="edge26" class="edge"><title>Node1&#45;&gt;Node20</title>
<path fill="none" stroke="midnightblue" d="M768.674,-162.161C778.219,-154.424 788.353,-144.053 793.5,-132 801.961,-112.184 787.153,-88.0994 777.615,-75.5455"/>
<polygon fill="midnightblue" stroke="midnightblue" points="766.46,-159.447 760.578,-168.259 770.672,-165.038 766.46,-159.447"/>
</g>
<!-- Node22 -->
<g id="node22" class="node"><title>Node22</title>
<g id="a_node22"><a xlink:href="mathfunc_8h.html" target="_top" xlink:title="Math Functions (header) ">
<polygon fill="white" stroke="black" points="833,-56.5 833,-75.5 898,-75.5 898,-56.5 833,-56.5"/>
<text text-anchor="middle" x="865.5" y="-63.5" font-family="Helvetica,sans-Serif" font-size="10.00">mathfunc.h</text>
</a>
</g>
</g>
<!-- Node1&#45;&gt;Node22 -->
<g id="edge27" class="edge"><title>Node1&#45;&gt;Node22</title>
<path fill="none" stroke="midnightblue" d="M768.963,-162.873C781.453,-154.558 796.959,-143.449 809.5,-132 829.52,-113.722 849.378,-88.5797 859.186,-75.5719"/>
<polygon fill="midnightblue" stroke="midnightblue" points="766.952,-160.006 760.486,-168.399 770.775,-165.87 766.952,-160.006"/>
</g>
<!-- Node25 -->
<g id="node25" class="node"><title>Node25</title>
<g id="a_node25"><a xlink:href="physics_8h.html" target="_top" xlink:title="Physics Functions (header) ">
<polygon fill="white" stroke="black" points="916,-112.5 916,-131.5 975,-131.5 975,-112.5 916,-112.5"/>
<text text-anchor="middle" x="945.5" y="-119.5" font-family="Helvetica,sans-Serif" font-size="10.00">physics.h</text>
</a>
</g>
</g>
<!-- Node1&#45;&gt;Node25 -->
<g id="edge28" class="edge"><title>Node1&#45;&gt;Node25</title>
<path fill="none" stroke="midnightblue" d="M787.815,-165.789C825.987,-155.431 881.771,-140.293 915.74,-131.075"/>
<polygon fill="midnightblue" stroke="midnightblue" points="786.767,-162.447 778.032,-168.444 788.6,-169.202 786.767,-162.447"/>
</g>
<!-- Node28 -->
<g id="node28" class="node"><title>Node28</title>
<g id="a_node28"><a xlink:href="PY__MACROS_8h.html" target="_top" xlink:title="Standard Python Header Macros (header) ">
<polygon fill="white" stroke="black" points="1143.5,-112.5 1143.5,-131.5 1231.5,-131.5 1231.5,-112.5 1143.5,-112.5"/>
<text text-anchor="middle" x="1187.5" y="-119.5" font-family="Helvetica,sans-Serif" font-size="10.00">PY_MACROS.h</text>
</a>
</g>
</g>
<!-- Node1&#45;&gt;Node28 -->
<g id="edge31" class="edge"><title>Node1&#45;&gt;Node28</title>
<path fill="none" stroke="midnightblue" d="M791.183,-171.529C875.952,-161.149 1059.15,-138.716 1143.44,-128.395"/>
<polygon fill="midnightblue" stroke="midnightblue" points="790.605,-168.073 781.105,-172.763 791.456,-175.021 790.605,-168.073"/>
</g>
<!-- Node33 -->
<g id="node33" class="node"><title>Node33</title>
<g id="a_node33"><a xlink:href="tools_8h.html" target="_top" xlink:title="Miscellaneous Functions (header) ">
<polygon fill="white" stroke="black" points="1326.5,-112.5 1326.5,-131.5 1372.5,-131.5 1372.5,-112.5 1326.5,-112.5"/>
<text text-anchor="middle" x="1349.5" y="-119.5" font-family="Helvetica,sans-Serif" font-size="10.00">tools.h</text>
</a>
</g>
</g>
<!-- Node1&#45;&gt;Node33 -->
<g id="edge39" class="edge"><title>Node1&#45;&gt;Node33</title>
<path fill="none" stroke="midnightblue" d="M791.382,-172.981C911.432,-162.23 1236.87,-133.086 1326.42,-125.067"/>
<polygon fill="midnightblue" stroke="midnightblue" points="790.734,-169.525 781.086,-173.903 791.358,-176.497 790.734,-169.525"/>
</g>
<!-- Node35 -->
<g id="node35" class="node"><title>Node35</title>
<g id="a_node35"><a xlink:href="x86__64__asm__func_8h.html" target="_top" xlink:title="x86&#45;64 Assembly Functions (header) ">
<polygon fill="white" stroke="black" points="1390.5,-112.5 1390.5,-131.5 1494.5,-131.5 1494.5,-112.5 1390.5,-112.5"/>
<text text-anchor="middle" x="1442.5" y="-119.5" font-family="Helvetica,sans-Serif" font-size="10.00">x86_64_asm_func.h</text>
</a>
</g>
</g>
<!-- Node1&#45;&gt;Node35 -->
<g id="edge42" class="edge"><title>Node1&#45;&gt;Node35</title>
<path fill="none" stroke="midnightblue" d="M791.486,-174.985C895.542,-170.068 1160.83,-156.063 1381.5,-132 1384.37,-131.687 1387.32,-131.339 1390.29,-130.969"/>
<polygon fill="midnightblue" stroke="midnightblue" points="791.17,-171.496 781.344,-175.459 791.497,-178.488 791.17,-171.496"/>
</g>
<!-- Node37 -->
<g id="node37" class="node"><title>Node37</title>
<g id="a_node37"><a xlink:href="typesize_8h.html" target="_top" xlink:title="Get the size (in bytes) of various C data&#45;types (header) ">
<polygon fill="white" stroke="black" points="1633.5,-112.5 1633.5,-131.5 1695.5,-131.5 1695.5,-112.5 1633.5,-112.5"/>
<text text-anchor="middle" x="1664.5" y="-119.5" font-family="Helvetica,sans-Serif" font-size="10.00">typesize.h</text>
</a>
</g>
</g>
<!-- Node1&#45;&gt;Node37 -->
<g id="edge45" class="edge"><title>Node1&#45;&gt;Node37</title>
<path fill="none" stroke="midnightblue" d="M791.089,-174.377C951.513,-164.94 1497.01,-132.852 1633.4,-124.83"/>
<polygon fill="midnightblue" stroke="midnightblue" points="790.865,-170.884 781.088,-174.965 791.276,-177.872 790.865,-170.884"/>
</g>
<!-- Node39 -->
<g id="node39" class="node"><title>Node39</title>
<g id="a_node39"><a xlink:href="tone_8h.html" target="_top" xlink:title="Play tones (header) ">
<polygon fill="white" stroke="black" points="1755.5,-112.5 1755.5,-131.5 1799.5,-131.5 1799.5,-112.5 1755.5,-112.5"/>
<text text-anchor="middle" x="1777.5" y="-119.5" font-family="Helvetica,sans-Serif" font-size="10.00">tone.h</text>
</a>
</g>
</g>
<!-- Node1&#45;&gt;Node39 -->
<g id="edge48" class="edge"><title>Node1&#45;&gt;Node39</title>
<path fill="none" stroke="midnightblue" d="M791.489,-176.097C928.658,-173.084 1353.63,-161.827 1704.5,-132 1721.55,-130.551 1740.75,-128.153 1755.18,-126.196"/>
<polygon fill="midnightblue" stroke="midnightblue" points="791.283,-172.601 781.361,-176.316 791.434,-179.599 791.283,-172.601"/>
</g>
<!-- Node3 -->
<g id="node3" class="node"><title>Node3</title>
<g id="a_node3"><a xlink:href="chemistry_8c.html" target="_top" xlink:title="Chemistry&#45;related Functions. ">
<polygon fill="white" stroke="black" points="464.5,-0.5 464.5,-19.5 532.5,-19.5 532.5,-0.5 464.5,-0.5"/>
<text text-anchor="middle" x="498.5" y="-7.5" font-family="Helvetica,sans-Serif" font-size="10.00">chemistry.c</text>
</a>
</g>
</g>
<!-- Node2&#45;&gt;Node3 -->
<g id="edge2" class="edge"><title>Node2&#45;&gt;Node3</title>
<path fill="none" stroke="midnightblue" d="M498.5,-45.8045C498.5,-36.9102 498.5,-26.7798 498.5,-19.7511"/>
<polygon fill="midnightblue" stroke="midnightblue" points="495,-46.083 498.5,-56.083 502,-46.083 495,-46.083"/>
</g>
<!-- Node4 -->
<g id="node4" class="node"><title>Node4</title>
<g id="a_node4"><a xlink:href="pychemistry_8c.html" target="_top" xlink:title="Chemistry&#45;related Functions. ">
<polygon fill="white" stroke="black" points="983.5,-0.5 983.5,-19.5 1061.5,-19.5 1061.5,-0.5 983.5,-0.5"/>
<text text-anchor="middle" x="1022.5" y="-7.5" font-family="Helvetica,sans-Serif" font-size="10.00">pychemistry.c</text>
</a>
</g>
</g>
<!-- Node2&#45;&gt;Node4 -->
<g id="edge3" class="edge"><title>Node2&#45;&gt;Node4</title>
<path fill="none" stroke="midnightblue" d="M542.895,-55.9852C644.049,-41.7222 887.818,-21.7104 983.319,-14.0898"/>
<polygon fill="midnightblue" stroke="midnightblue" points="542.092,-52.5653 532.704,-57.477 543.106,-59.4915 542.092,-52.5653"/>
</g>
<!-- Node5&#45;&gt;Node2 -->
<g id="edge5" class="edge"><title>Node5&#45;&gt;Node2</title>
<path fill="none" stroke="midnightblue" d="M481.841,-102.983C486.085,-93.8168 491.05,-83.0922 494.449,-75.7511"/>
<polygon fill="midnightblue" stroke="midnightblue" points="478.653,-101.538 477.628,-112.083 485.006,-104.479 478.653,-101.538"/>
</g>
<!-- Node6 -->
<g id="node6" class="node"><title>Node6</title>
<g id="a_node6"><a xlink:href="chemistry__types_8c.html" target="_top" xlink:title="Chemistry&#45;related Data&#45;types. ">
<polygon fill="white" stroke="black" points="349,-56.5 349,-75.5 446,-75.5 446,-56.5 349,-56.5"/>
<text text-anchor="middle" x="397.5" y="-63.5" font-family="Helvetica,sans-Serif" font-size="10.00">chemistry_types.c</text>
</a>
</g>
</g>
<!-- Node5&#45;&gt;Node6 -->
<g id="edge6" class="edge"><title>Node5&#45;&gt;Node6</title>
<path fill="none" stroke="midnightblue" d="M452.924,-106.38C439.188,-96.6204 421.575,-84.1057 409.933,-75.8339"/>
<polygon fill="midnightblue" stroke="midnightblue" points="451.11,-109.385 461.289,-112.324 455.165,-103.679 451.11,-109.385"/>
</g>
<!-- Node8 -->
<g id="node8" class="node"><title>Node8</title>
<g id="a_node8"><a xlink:href="chron_8c.html" target="_top" xlink:title="Time Functions. ">
<polygon fill="white" stroke="black" points="0,-56.5 0,-75.5 49,-75.5 49,-56.5 0,-56.5"/>
<text text-anchor="middle" x="24.5" y="-63.5" font-family="Helvetica,sans-Serif" font-size="10.00">chron.c</text>
</a>
</g>
</g>
<!-- Node7&#45;&gt;Node8 -->
<g id="edge8" class="edge"><title>Node7&#45;&gt;Node8</title>
<path fill="none" stroke="midnightblue" d="M31.0001,-102.101C29.34,-93.1357 27.4367,-82.8579 26.1206,-75.7511"/>
<polygon fill="midnightblue" stroke="midnightblue" points="27.5862,-102.888 32.8487,-112.083 34.4692,-101.613 27.5862,-102.888"/>
</g>
<!-- Node10 -->
<g id="node10" class="node"><title>Node10</title>
<g id="a_node10"><a xlink:href="compression_8c.html" target="_top" xlink:title="Compression Functions. ">
<polygon fill="white" stroke="black" points="67.5,-56.5 67.5,-75.5 147.5,-75.5 147.5,-56.5 67.5,-56.5"/>
<text text-anchor="middle" x="107.5" y="-63.5" font-family="Helvetica,sans-Serif" font-size="10.00">compression.c</text>
</a>
</g>
</g>
<!-- Node9&#45;&gt;Node10 -->
<g id="edge10" class="edge"><title>Node9&#45;&gt;Node10</title>
<path fill="none" stroke="midnightblue" d="M116.677,-102.396C114.335,-93.362 111.632,-82.936 109.769,-75.7511"/>
<polygon fill="midnightblue" stroke="midnightblue" points="113.29,-103.281 119.188,-112.083 120.066,-101.525 113.29,-103.281"/>
</g>
<!-- Node12 -->
<g id="node12" class="node"><title>Node12</title>
<g id="a_node12"><a xlink:href="cryptx_8c.html" target="_top" xlink:title="Cryptography Functions. ">
<polygon fill="white" stroke="black" points="165.5,-56.5 165.5,-75.5 217.5,-75.5 217.5,-56.5 165.5,-56.5"/>
<text text-anchor="middle" x="191.5" y="-63.5" font-family="Helvetica,sans-Serif" font-size="10.00">cryptx.c</text>
</a>
</g>
</g>
<!-- Node11&#45;&gt;Node12 -->
<g id="edge12" class="edge"><title>Node11&#45;&gt;Node12</title>
<path fill="none" stroke="midnightblue" d="M206.701,-102.69C202.825,-93.589 198.321,-83.0141 195.227,-75.7511"/>
<polygon fill="midnightblue" stroke="midnightblue" points="203.563,-104.254 210.702,-112.083 210.003,-101.511 203.563,-104.254"/>
</g>
<!-- Node14 -->
<g id="node14" class="node"><title>Node14</title>
<g id="a_node14"><a xlink:href="extra__datatypes_8c.html" target="_top" xlink:title="Additional datatypes, such as FILO&#45;Stack, Queue (FIFO Stack), etc. ">
<polygon fill="white" stroke="black" points="236,-56.5 236,-75.5 331,-75.5 331,-56.5 236,-56.5"/>
<text text-anchor="middle" x="283.5" y="-63.5" font-family="Helvetica,sans-Serif" font-size="10.00">extra_datatypes.c</text>
</a>
</g>
</g>
<!-- Node13&#45;&gt;Node14 -->
<g id="edge14" class="edge"><title>Node13&#45;&gt;Node14</title>
<path fill="none" stroke="midnightblue" d="M311.483,-103.855C304.383,-94.5048 295.896,-83.3265 290.144,-75.7511"/>
<polygon fill="midnightblue" stroke="midnightblue" points="308.895,-106.235 317.73,-112.083 314.47,-102.002 308.895,-106.235"/>
</g>
<!-- Node16 -->
<g id="node16" class="node"><title>Node16</title>
<g id="a_node16"><a xlink:href="fuzzy__logic_8c.html" target="_top" xlink:title="Fuzzy Logic. ">
<polygon fill="white" stroke="black" points="550.5,-56.5 550.5,-75.5 624.5,-75.5 624.5,-56.5 550.5,-56.5"/>
<text text-anchor="middle" x="587.5" y="-63.5" font-family="Helvetica,sans-Serif" font-size="10.00">fuzzy_logic.c</text>
</a>
</g>
</g>
<!-- Node15&#45;&gt;Node16 -->
<g id="edge16" class="edge"><title>Node15&#45;&gt;Node16</title>
<path fill="none" stroke="midnightblue" d="M606.158,-102.983C601.405,-93.8168 595.844,-83.0922 592.038,-75.7511"/>
<polygon fill="midnightblue" stroke="midnightblue" points="603.166,-104.817 610.876,-112.083 609.38,-101.594 603.166,-104.817"/>
</g>
<!-- Node18 -->
<g id="node18" class="node"><title>Node18</title>
<g id="a_node18"><a xlink:href="geometry_8c.html" target="_top" xlink:title="Geometry Equations. ">
<polygon fill="white" stroke="black" points="643,-0.5 643,-19.5 708,-19.5 708,-0.5 643,-0.5"/>
<text text-anchor="middle" x="675.5" y="-7.5" font-family="Helvetica,sans-Serif" font-size="10.00">geometry.c</text>
</a>
</g>
</g>
<!-- Node17&#45;&gt;Node18 -->
<g id="edge18" class="edge"><title>Node17&#45;&gt;Node18</title>
<path fill="none" stroke="midnightblue" d="M675.5,-45.8045C675.5,-36.9102 675.5,-26.7798 675.5,-19.7511"/>
<polygon fill="midnightblue" stroke="midnightblue" points="672,-46.083 675.5,-56.083 679,-46.083 672,-46.083"/>
</g>
<!-- Node19&#45;&gt;Node17 -->
<g id="edge20" class="edge"><title>Node19&#45;&gt;Node17</title>
<path fill="none" stroke="midnightblue" d="M726.91,-106.101C714.132,-96.3824 697.887,-84.0269 687.115,-75.8339"/>
<polygon fill="midnightblue" stroke="midnightblue" points="725.014,-109.056 735.093,-112.324 729.252,-103.484 725.014,-109.056"/>
</g>
<!-- Node19&#45;&gt;Node20 -->
<g id="edge21" class="edge"><title>Node19&#45;&gt;Node20</title>
<path fill="none" stroke="midnightblue" d="M754.638,-102.69C758.683,-93.589 763.383,-83.0141 766.611,-75.7511"/>
<polygon fill="midnightblue" stroke="midnightblue" points="751.326,-101.523 750.463,-112.083 757.723,-104.366 751.326,-101.523"/>
</g>
<!-- Node19&#45;&gt;Node22 -->
<g id="edge23" class="edge"><title>Node19&#45;&gt;Node22</title>
<path fill="none" stroke="midnightblue" d="M774.637,-108.232C796.896,-98.1312 827.356,-84.3091 846.732,-75.5164"/>
<polygon fill="midnightblue" stroke="midnightblue" points="773.016,-105.124 765.356,-112.444 775.909,-111.498 773.016,-105.124"/>
</g>
<!-- Node21 -->
<g id="node21" class="node"><title>Node21</title>
<g id="a_node21"><a xlink:href="mathconstants_8c.html" target="_top" xlink:title="Math Constants. ">
<polygon fill="white" stroke="black" points="726,-0.5 726,-19.5 815,-19.5 815,-0.5 726,-0.5"/>
<text text-anchor="middle" x="770.5" y="-7.5" font-family="Helvetica,sans-Serif" font-size="10.00">mathconstants.c</text>
</a>
</g>
</g>
<!-- Node20&#45;&gt;Node21 -->
<g id="edge22" class="edge"><title>Node20&#45;&gt;Node21</title>
<path fill="none" stroke="midnightblue" d="M770.5,-45.8045C770.5,-36.9102 770.5,-26.7798 770.5,-19.7511"/>
<polygon fill="midnightblue" stroke="midnightblue" points="767,-46.083 770.5,-56.083 774,-46.083 767,-46.083"/>
</g>
<!-- Node23 -->
<g id="node23" class="node"><title>Node23</title>
<g id="a_node23"><a xlink:href="mathfunc_8c.html" target="_top" xlink:title="Math Functions. ">
<polygon fill="white" stroke="black" points="833,-0.5 833,-19.5 898,-19.5 898,-0.5 833,-0.5"/>
<text text-anchor="middle" x="865.5" y="-7.5" font-family="Helvetica,sans-Serif" font-size="10.00">mathfunc.c</text>
</a>
</g>
</g>
<!-- Node22&#45;&gt;Node23 -->
<g id="edge24" class="edge"><title>Node22&#45;&gt;Node23</title>
<path fill="none" stroke="midnightblue" d="M865.5,-45.8045C865.5,-36.9102 865.5,-26.7798 865.5,-19.7511"/>
<polygon fill="midnightblue" stroke="midnightblue" points="862,-46.083 865.5,-56.083 869,-46.083 862,-46.083"/>
</g>
<!-- Node24 -->
<g id="node24" class="node"><title>Node24</title>
<g id="a_node24"><a xlink:href="pymathfunc_8c.html" target="_top" xlink:title="Math Functions. ">
<polygon fill="white" stroke="black" points="1131.5,-0.5 1131.5,-19.5 1207.5,-19.5 1207.5,-0.5 1131.5,-0.5"/>
<text text-anchor="middle" x="1169.5" y="-7.5" font-family="Helvetica,sans-Serif" font-size="10.00">pymathfunc.c</text>
</a>
</g>
</g>
<!-- Node22&#45;&gt;Node24 -->
<g id="edge25" class="edge"><title>Node22&#45;&gt;Node24</title>
<path fill="none" stroke="midnightblue" d="M908.213,-55.7311C993.139,-39.3123 1081.7,-24.8333 1131.07,-16.9999"/>
<polygon fill="midnightblue" stroke="midnightblue" points="907.293,-52.3445 898.145,-57.6902 908.63,-59.2156 907.293,-52.3445"/>
</g>
<!-- Node26 -->
<g id="node26" class="node"><title>Node26</title>
<g id="a_node26"><a xlink:href="physics_8c.html" target="_top" xlink:title="Physics Functions. ">
<polygon fill="white" stroke="black" points="916,-56.5 916,-75.5 975,-75.5 975,-56.5 916,-56.5"/>
<text text-anchor="middle" x="945.5" y="-63.5" font-family="Helvetica,sans-Serif" font-size="10.00">physics.c</text>
</a>
</g>
</g>
<!-- Node25&#45;&gt;Node26 -->
<g id="edge29" class="edge"><title>Node25&#45;&gt;Node26</title>
<path fill="none" stroke="midnightblue" d="M945.5,-101.805C945.5,-92.9102 945.5,-82.7798 945.5,-75.7511"/>
<polygon fill="midnightblue" stroke="midnightblue" points="942,-102.083 945.5,-112.083 949,-102.083 942,-102.083"/>
</g>
<!-- Node27 -->
<g id="node27" class="node"><title>Node27</title>
<g id="a_node27"><a xlink:href="pyphysics_8c.html" target="_top" xlink:title="Physics Functions. ">
<polygon fill="white" stroke="black" points="993,-56.5 993,-75.5 1062,-75.5 1062,-56.5 993,-56.5"/>
<text text-anchor="middle" x="1027.5" y="-63.5" font-family="Helvetica,sans-Serif" font-size="10.00">pyphysics.c</text>
</a>
</g>
</g>
<!-- Node25&#45;&gt;Node27 -->
<g id="edge30" class="edge"><title>Node25&#45;&gt;Node27</title>
<path fill="none" stroke="midnightblue" d="M967.333,-106.622C982.313,-96.7574 1001.7,-83.9919 1014.36,-75.6545"/>
<polygon fill="midnightblue" stroke="midnightblue" points="965.101,-103.901 958.675,-112.324 968.951,-109.747 965.101,-103.901"/>
</g>
<!-- Node28&#45;&gt;Node4 -->
<g id="edge32" class="edge"><title>Node28&#45;&gt;Node4</title>
<path fill="none" stroke="midnightblue" d="M1162.34,-107.48C1146.83,-98.9035 1126.69,-87.3236 1109.5,-76 1081,-57.2277 1049.31,-32.5075 1033.19,-19.6343"/>
<polygon fill="midnightblue" stroke="midnightblue" points="1160.88,-110.67 1171.33,-112.403 1164.24,-104.531 1160.88,-110.67"/>
</g>
<!-- Node28&#45;&gt;Node24 -->
<g id="edge35" class="edge"><title>Node28&#45;&gt;Node24</title>
<path fill="none" stroke="midnightblue" d="M1197.13,-103.518C1203.14,-90.3048 1208.8,-71.8049 1203.5,-56 1198.64,-41.5174 1187.08,-27.9752 1178.79,-19.6053"/>
<polygon fill="midnightblue" stroke="midnightblue" points="1194,-101.951 1192.65,-112.459 1200.26,-105.088 1194,-101.951"/>
</g>
<!-- Node28&#45;&gt;Node27 -->
<g id="edge36" class="edge"><title>Node28&#45;&gt;Node27</title>
<path fill="none" stroke="midnightblue" d="M1152.45,-109.172C1122.33,-99.0039 1079.6,-84.5852 1052.73,-75.5164"/>
<polygon fill="midnightblue" stroke="midnightblue" points="1151.55,-112.562 1162.15,-112.444 1153.79,-105.929 1151.55,-112.562"/>
</g>
<!-- Node29 -->
<g id="node29" class="node"><title>Node29</title>
<g id="a_node29"><a xlink:href="pygeometry_8c.html" target="_top" xlink:title="Geometry Equations. ">
<polygon fill="white" stroke="black" points="1118.5,-56.5 1118.5,-75.5 1194.5,-75.5 1194.5,-56.5 1118.5,-56.5"/>
<text text-anchor="middle" x="1156.5" y="-63.5" font-family="Helvetica,sans-Serif" font-size="10.00">pygeometry.c</text>
</a>
</g>
</g>
<!-- Node28&#45;&gt;Node29 -->
<g id="edge33" class="edge"><title>Node28&#45;&gt;Node29</title>
<path fill="none" stroke="midnightblue" d="M1177.32,-103.275C1172.03,-94.0454 1165.78,-83.1703 1161.52,-75.7511"/>
<polygon fill="midnightblue" stroke="midnightblue" points="1174.37,-105.153 1182.38,-112.083 1180.44,-101.668 1174.37,-105.153"/>
</g>
<!-- Node30 -->
<g id="node30" class="node"><title>Node30</title>
<g id="a_node30"><a xlink:href="pymathconstants_8c.html" target="_top" xlink:title="Math Constants. ">
<polygon fill="white" stroke="black" points="1250.5,-56.5 1250.5,-75.5 1350.5,-75.5 1350.5,-56.5 1250.5,-56.5"/>
<text text-anchor="middle" x="1300.5" y="-63.5" font-family="Helvetica,sans-Serif" font-size="10.00">pymathconstants.c</text>
</a>
</g>
</g>
<!-- Node28&#45;&gt;Node30 -->
<g id="edge34" class="edge"><title>Node28&#45;&gt;Node30</title>
<path fill="none" stroke="midnightblue" d="M1214.5,-108.096C1235.61,-98.0073 1264.36,-84.2697 1282.68,-75.5164"/>
<polygon fill="midnightblue" stroke="midnightblue" points="1212.92,-104.974 1205.41,-112.444 1215.94,-111.29 1212.92,-104.974"/>
</g>
<!-- Node31 -->
<g id="node31" class="node"><title>Node31</title>
<g id="a_node31"><a xlink:href="pytools_8c.html" target="_top" xlink:title="Miscellaneous Functions (from tools.c and x86_64_asm_func.c) ">
<polygon fill="white" stroke="black" points="1368.5,-56.5 1368.5,-75.5 1424.5,-75.5 1424.5,-56.5 1368.5,-56.5"/>
<text text-anchor="middle" x="1396.5" y="-63.5" font-family="Helvetica,sans-Serif" font-size="10.00">pytools.c</text>
</a>
</g>
</g>
<!-- Node28&#45;&gt;Node31 -->
<g id="edge37" class="edge"><title>Node28&#45;&gt;Node31</title>
<path fill="none" stroke="midnightblue" d="M1230.39,-109.92C1271.62,-99.2654 1332.77,-83.4666 1368.23,-74.3042"/>
<polygon fill="midnightblue" stroke="midnightblue" points="1229.42,-106.553 1220.62,-112.444 1231.17,-113.331 1229.42,-106.553"/>
</g>
<!-- Node32 -->
<g id="node32" class="node"><title>Node32</title>
<g id="a_node32"><a xlink:href="pytypesize_8c.html" target="_top" xlink:title="Get the size (in bytes) of various C data&#45;types. ">
<polygon fill="white" stroke="black" points="1628.5,-56.5 1628.5,-75.5 1700.5,-75.5 1700.5,-56.5 1628.5,-56.5"/>
<text text-anchor="middle" x="1664.5" y="-63.5" font-family="Helvetica,sans-Serif" font-size="10.00">pytypesize.c</text>
</a>
</g>
</g>
<!-- Node28&#45;&gt;Node32 -->
<g id="edge38" class="edge"><title>Node28&#45;&gt;Node32</title>
<path fill="none" stroke="midnightblue" d="M1241.6,-117C1323.62,-110.568 1484.2,-96.5313 1619.5,-76 1622.34,-75.5697 1625.26,-75.0824 1628.2,-74.5628"/>
<polygon fill="midnightblue" stroke="midnightblue" points="1241.22,-113.52 1231.52,-117.784 1241.76,-120.499 1241.22,-113.52"/>
</g>
<!-- Node33&#45;&gt;Node31 -->
<g id="edge40" class="edge"><title>Node33&#45;&gt;Node31</title>
<path fill="none" stroke="midnightblue" d="M1363.92,-104.431C1372.16,-94.9673 1382.15,-83.4827 1388.88,-75.7511"/>
<polygon fill="midnightblue" stroke="midnightblue" points="1361.19,-102.242 1357.26,-112.083 1366.47,-106.838 1361.19,-102.242"/>
</g>
<!-- Node34 -->
<g id="node34" class="node"><title>Node34</title>
<g id="a_node34"><a xlink:href="tools_8c.html" target="_top" xlink:title="Miscellaneous Functions. ">
<polygon fill="white" stroke="black" points="1442.5,-56.5 1442.5,-75.5 1488.5,-75.5 1488.5,-56.5 1442.5,-56.5"/>
<text text-anchor="middle" x="1465.5" y="-63.5" font-family="Helvetica,sans-Serif" font-size="10.00">tools.c</text>
</a>
</g>
</g>
<!-- Node33&#45;&gt;Node34 -->
<g id="edge41" class="edge"><title>Node33&#45;&gt;Node34</title>
<path fill="none" stroke="midnightblue" d="M1377.22,-108.096C1398.89,-98.0073 1428.4,-84.2697 1447.21,-75.5164"/>
<polygon fill="midnightblue" stroke="midnightblue" points="1375.47,-105.05 1367.88,-112.444 1378.42,-111.396 1375.47,-105.05"/>
</g>
<!-- Node35&#45;&gt;Node31 -->
<g id="edge43" class="edge"><title>Node35&#45;&gt;Node31</title>
<path fill="none" stroke="midnightblue" d="M1428.39,-104.431C1420.32,-94.9673 1410.54,-83.4827 1403.95,-75.7511"/>
<polygon fill="midnightblue" stroke="midnightblue" points="1425.75,-106.74 1434.9,-112.083 1431.08,-102.201 1425.75,-106.74"/>
</g>
<!-- Node36 -->
<g id="node36" class="node"><title>Node36</title>
<g id="a_node36"><a xlink:href="x86__64__asm__func_8c.html" target="_top" xlink:title="x86&#45;64 Assembly Functions ">
<polygon fill="white" stroke="black" points="1506.5,-56.5 1506.5,-75.5 1610.5,-75.5 1610.5,-56.5 1506.5,-56.5"/>
<text text-anchor="middle" x="1558.5" y="-63.5" font-family="Helvetica,sans-Serif" font-size="10.00">x86_64_asm_func.c</text>
</a>
</g>
</g>
<!-- Node35&#45;&gt;Node36 -->
<g id="edge44" class="edge"><title>Node35&#45;&gt;Node36</title>
<path fill="none" stroke="midnightblue" d="M1470.22,-108.096C1491.89,-98.0073 1521.4,-84.2697 1540.21,-75.5164"/>
<polygon fill="midnightblue" stroke="midnightblue" points="1468.47,-105.05 1460.88,-112.444 1471.42,-111.396 1468.47,-105.05"/>
</g>
<!-- Node37&#45;&gt;Node32 -->
<g id="edge46" class="edge"><title>Node37&#45;&gt;Node32</title>
<path fill="none" stroke="midnightblue" d="M1664.5,-101.805C1664.5,-92.9102 1664.5,-82.7798 1664.5,-75.7511"/>
<polygon fill="midnightblue" stroke="midnightblue" points="1661,-102.083 1664.5,-112.083 1668,-102.083 1661,-102.083"/>
</g>
<!-- Node38 -->
<g id="node38" class="node"><title>Node38</title>
<g id="a_node38"><a xlink:href="typesize_8c.html" target="_top" xlink:title="Get the size (in bytes) of various C data&#45;types. ">
<polygon fill="white" stroke="black" points="1718.5,-56.5 1718.5,-75.5 1780.5,-75.5 1780.5,-56.5 1718.5,-56.5"/>
<text text-anchor="middle" x="1749.5" y="-63.5" font-family="Helvetica,sans-Serif" font-size="10.00">typesize.c</text>
</a>
</g>
</g>
<!-- Node37&#45;&gt;Node38 -->
<g id="edge47" class="edge"><title>Node37&#45;&gt;Node38</title>
<path fill="none" stroke="midnightblue" d="M1686.69,-106.901C1702.28,-96.9986 1722.63,-84.0705 1735.88,-75.6545"/>
<polygon fill="midnightblue" stroke="midnightblue" points="1684.72,-104.007 1678.16,-112.324 1688.47,-109.916 1684.72,-104.007"/>
</g>
<!-- Node40 -->
<g id="node40" class="node"><title>Node40</title>
<g id="a_node40"><a xlink:href="tone_8c.html" target="_top" xlink:title="Play tones. ">
<polygon fill="white" stroke="black" points="1798.5,-56.5 1798.5,-75.5 1842.5,-75.5 1842.5,-56.5 1798.5,-56.5"/>
<text text-anchor="middle" x="1820.5" y="-63.5" font-family="Helvetica,sans-Serif" font-size="10.00">tone.c</text>
</a>
</g>
</g>
<!-- Node39&#45;&gt;Node40 -->
<g id="edge49" class="edge"><title>Node39&#45;&gt;Node40</title>
<path fill="none" stroke="midnightblue" d="M1790.92,-104.144C1798.41,-94.7357 1807.44,-83.4046 1813.53,-75.7511"/>
<polygon fill="midnightblue" stroke="midnightblue" points="1788.09,-102.08 1784.6,-112.083 1793.57,-106.44 1788.09,-102.08"/>
</g>
</g>
</svg>
