<?xml version="1.0" encoding="UTF-8" standalone="no"?>
<!DOCTYPE svg PUBLIC "-//W3C//DTD SVG 1.1//EN"
 "http://www.w3.org/Graphics/SVG/1.1/DTD/svg11.dtd">
<!-- Generated by graphviz version 2.38.0 (20140413.2041)
 -->
<!-- Title: math_types.h Pages: 1 -->
<svg width="358pt" height="140pt"
 viewBox="0.00 0.00 357.50 140.00" xmlns="http://www.w3.org/2000/svg" xmlns:xlink="http://www.w3.org/1999/xlink">
<g id="graph0" class="graph" transform="scale(1 1) rotate(0) translate(4 136)">
<title>math_types.h</title>
<polygon fill="white" stroke="none" points="-4,4 -4,-136 353.5,-136 353.5,4 -4,4"/>
<!-- Node1 -->
<g id="node1" class="node"><title>Node1</title>
<polygon fill="#bfbfbf" stroke="black" points="89.5,-112.5 89.5,-131.5 165.5,-131.5 165.5,-112.5 89.5,-112.5"/>
<text text-anchor="middle" x="127.5" y="-119.5" font-family="Helvetica,sans-Serif" font-size="10.00">math_types.h</text>
</g>
<!-- Node2 -->
<g id="node2" class="node"><title>Node2</title>
<g id="a_node2"><a xlink:href="geometry_8h.html" target="_top" xlink:title="Geometry Equations (header) ">
<polygon fill="white" stroke="black" points="0,-56.5 0,-75.5 65,-75.5 65,-56.5 0,-56.5"/>
<text text-anchor="middle" x="32.5" y="-63.5" font-family="Helvetica,sans-Serif" font-size="10.00">geometry.h</text>
</a>
</g>
</g>
<!-- Node1&#45;&gt;Node2 -->
<g id="edge1" class="edge"><title>Node1&#45;&gt;Node2</title>
<path fill="none" stroke="midnightblue" d="M103.182,-107.177C85.7012,-97.2407 62.6699,-84.1492 47.7255,-75.6545"/>
<polygon fill="midnightblue" stroke="midnightblue" points="101.813,-110.425 112.237,-112.324 105.273,-104.339 101.813,-110.425"/>
</g>
<!-- Node4 -->
<g id="node4" class="node"><title>Node4</title>
<g id="a_node4"><a xlink:href="mathconstants_8h.html" target="_top" xlink:title="Math Constants (header) ">
<polygon fill="white" stroke="black" points="83,-56.5 83,-75.5 172,-75.5 172,-56.5 83,-56.5"/>
<text text-anchor="middle" x="127.5" y="-63.5" font-family="Helvetica,sans-Serif" font-size="10.00">mathconstants.h</text>
</a>
</g>
</g>
<!-- Node1&#45;&gt;Node4 -->
<g id="edge3" class="edge"><title>Node1&#45;&gt;Node4</title>
<path fill="none" stroke="midnightblue" d="M127.5,-101.805C127.5,-92.9102 127.5,-82.7798 127.5,-75.7511"/>
<polygon fill="midnightblue" stroke="midnightblue" points="124,-102.083 127.5,-112.083 131,-102.083 124,-102.083"/>
</g>
<!-- Node6 -->
<g id="node6" class="node"><title>Node6</title>
<g id="a_node6"><a xlink:href="mathfunc_8h.html" target="_top" xlink:title="Math Functions (header) ">
<polygon fill="white" stroke="black" points="190,-56.5 190,-75.5 255,-75.5 255,-56.5 190,-56.5"/>
<text text-anchor="middle" x="222.5" y="-63.5" font-family="Helvetica,sans-Serif" font-size="10.00">mathfunc.h</text>
</a>
</g>
</g>
<!-- Node1&#45;&gt;Node6 -->
<g id="edge5" class="edge"><title>Node1&#45;&gt;Node6</title>
<path fill="none" stroke="midnightblue" d="M151.818,-107.177C169.299,-97.2407 192.33,-84.1492 207.274,-75.6545"/>
<polygon fill="midnightblue" stroke="midnightblue" points="149.727,-104.339 142.763,-112.324 153.187,-110.425 149.727,-104.339"/>
</g>
<!-- Node3 -->
<g id="node3" class="node"><title>Node3</title>
<g id="a_node3"><a xlink:href="geometry_8c.html" target="_top" xlink:title="Geometry Equations. ">
<polygon fill="white" stroke="black" points="0,-0.5 0,-19.5 65,-19.5 65,-0.5 0,-0.5"/>
<text text-anchor="middle" x="32.5" y="-7.5" font-family="Helvetica,sans-Serif" font-size="10.00">geometry.c</text>
</a>
</g>
</g>
<!-- Node2&#45;&gt;Node3 -->
<g id="edge2" class="edge"><title>Node2&#45;&gt;Node3</title>
<path fill="none" stroke="midnightblue" d="M32.5,-45.8045C32.5,-36.9102 32.5,-26.7798 32.5,-19.7511"/>
<polygon fill="midnightblue" stroke="midnightblue" points="29.0001,-46.083 32.5,-56.083 36.0001,-46.083 29.0001,-46.083"/>
</g>
<!-- Node5 -->
<g id="node5" class="node"><title>Node5</title>
<g id="a_node5"><a xlink:href="mathconstants_8c.html" target="_top" xlink:title="Math Constants. ">
<polygon fill="white" stroke="black" points="83,-0.5 83,-19.5 172,-19.5 172,-0.5 83,-0.5"/>
<text text-anchor="middle" x="127.5" y="-7.5" font-family="Helvetica,sans-Serif" font-size="10.00">mathconstants.c</text>
</a>
</g>
</g>
<!-- Node4&#45;&gt;Node5 -->
<g id="edge4" class="edge"><title>Node4&#45;&gt;Node5</title>
<path fill="none" stroke="midnightblue" d="M127.5,-45.8045C127.5,-36.9102 127.5,-26.7798 127.5,-19.7511"/>
<polygon fill="midnightblue" stroke="midnightblue" points="124,-46.083 127.5,-56.083 131,-46.083 124,-46.083"/>
</g>
<!-- Node7 -->
<g id="node7" class="node"><title>Node7</title>
<g id="a_node7"><a xlink:href="mathfunc_8c.html" target="_top" xlink:title="Math Functions. ">
<polygon fill="white" stroke="black" points="190,-0.5 190,-19.5 255,-19.5 255,-0.5 190,-0.5"/>
<text text-anchor="middle" x="222.5" y="-7.5" font-family="Helvetica,sans-Serif" font-size="10.00">mathfunc.c</text>
</a>
</g>
</g>
<!-- Node6&#45;&gt;Node7 -->
<g id="edge6" class="edge"><title>Node6&#45;&gt;Node7</title>
<path fill="none" stroke="midnightblue" d="M222.5,-45.8045C222.5,-36.9102 222.5,-26.7798 222.5,-19.7511"/>
<polygon fill="midnightblue" stroke="midnightblue" points="219,-46.083 222.5,-56.083 226,-46.083 219,-46.083"/>
</g>
<!-- Node8 -->
<g id="node8" class="node"><title>Node8</title>
<g id="a_node8"><a xlink:href="pymathfunc_8c.html" target="_top" xlink:title="Math Functions. ">
<polygon fill="white" stroke="black" points="273.5,-0.5 273.5,-19.5 349.5,-19.5 349.5,-0.5 273.5,-0.5"/>
<text text-anchor="middle" x="311.5" y="-7.5" font-family="Helvetica,sans-Serif" font-size="10.00">pymathfunc.c</text>
</a>
</g>
</g>
<!-- Node6&#45;&gt;Node8 -->
<g id="edge7" class="edge"><title>Node6&#45;&gt;Node8</title>
<path fill="none" stroke="midnightblue" d="M245.738,-50.9005C262.058,-40.9986 283.365,-28.0705 297.236,-19.6545"/>
<polygon fill="midnightblue" stroke="midnightblue" points="243.533,-48.1444 236.799,-56.324 247.164,-54.1289 243.533,-48.1444"/>
</g>
</g>
</svg>
