<?xml version="1.0" encoding="UTF-8" standalone="no"?>
<!DOCTYPE svg PUBLIC "-//W3C//DTD SVG 1.1//EN"
 "http://www.w3.org/Graphics/SVG/1.1/DTD/svg11.dtd">
<!-- Generated by graphviz version 2.38.0 (20140413.2041)
 -->
<!-- Title: MATH_MACROS.h Pages: 1 -->
<svg width="369pt" height="140pt"
 viewBox="0.00 0.00 368.50 140.00" xmlns="http://www.w3.org/2000/svg" xmlns:xlink="http://www.w3.org/1999/xlink">
<g id="graph0" class="graph" transform="scale(1 1) rotate(0) translate(4 136)">
<title>MATH_MACROS.h</title>
<polygon fill="white" stroke="none" points="-4,4 -4,-136 364.5,-136 364.5,4 -4,4"/>
<!-- Node1 -->
<g id="node1" class="node"><title>Node1</title>
<polygon fill="#bfbfbf" stroke="black" points="108,-112.5 108,-131.5 211,-131.5 211,-112.5 108,-112.5"/>
<text text-anchor="middle" x="159.5" y="-119.5" font-family="Helvetica,sans-Serif" font-size="10.00">MATH_MACROS.h</text>
</g>
<!-- Node2 -->
<g id="node2" class="node"><title>Node2</title>
<g id="a_node2"><a xlink:href="geometry_8h.html" target="_top" xlink:title="Geometry Equations (header) ">
<polygon fill="white" stroke="black" points="0,-56.5 0,-75.5 65,-75.5 65,-56.5 0,-56.5"/>
<text text-anchor="middle" x="32.5" y="-63.5" font-family="Helvetica,sans-Serif" font-size="10.00">geometry.h</text>
</a>
</g>
</g>
<!-- Node1&#45;&gt;Node2 -->
<g id="edge1" class="edge"><title>Node1&#45;&gt;Node2</title>
<path fill="none" stroke="midnightblue" d="M130.109,-108.503C106.3,-98.3795 73.394,-84.388 52.5294,-75.5164"/>
<polygon fill="midnightblue" stroke="midnightblue" points="128.804,-111.751 139.376,-112.444 131.543,-105.31 128.804,-111.751"/>
</g>
<!-- Node4 -->
<g id="node4" class="node"><title>Node4</title>
<g id="a_node4"><a xlink:href="mathfunc_8h.html" target="_top" xlink:title="Math Functions (header) ">
<polygon fill="white" stroke="black" points="83,-56.5 83,-75.5 148,-75.5 148,-56.5 83,-56.5"/>
<text text-anchor="middle" x="115.5" y="-63.5" font-family="Helvetica,sans-Serif" font-size="10.00">mathfunc.h</text>
</a>
</g>
</g>
<!-- Node1&#45;&gt;Node4 -->
<g id="edge3" class="edge"><title>Node1&#45;&gt;Node4</title>
<path fill="none" stroke="midnightblue" d="M145.765,-104.144C138.099,-94.7357 128.867,-83.4046 122.631,-75.7511"/>
<polygon fill="midnightblue" stroke="midnightblue" points="143.204,-106.541 152.234,-112.083 148.631,-102.12 143.204,-106.541"/>
</g>
<!-- Node7 -->
<g id="node7" class="node"><title>Node7</title>
<g id="a_node7"><a xlink:href="pygeometry_8c.html" target="_top" xlink:title="Geometry Equations. ">
<polygon fill="white" stroke="black" points="166.5,-56.5 166.5,-75.5 242.5,-75.5 242.5,-56.5 166.5,-56.5"/>
<text text-anchor="middle" x="204.5" y="-63.5" font-family="Helvetica,sans-Serif" font-size="10.00">pygeometry.c</text>
</a>
</g>
</g>
<!-- Node1&#45;&gt;Node7 -->
<g id="edge6" class="edge"><title>Node1&#45;&gt;Node7</title>
<path fill="none" stroke="midnightblue" d="M173.547,-104.144C181.387,-94.7357 190.829,-83.4046 197.207,-75.7511"/>
<polygon fill="midnightblue" stroke="midnightblue" points="170.644,-102.16 166.931,-112.083 176.021,-106.641 170.644,-102.16"/>
</g>
<!-- Node8 -->
<g id="node8" class="node"><title>Node8</title>
<g id="a_node8"><a xlink:href="pymathconstants_8c.html" target="_top" xlink:title="Math Constants. ">
<polygon fill="white" stroke="black" points="260.5,-56.5 260.5,-75.5 360.5,-75.5 360.5,-56.5 260.5,-56.5"/>
<text text-anchor="middle" x="310.5" y="-63.5" font-family="Helvetica,sans-Serif" font-size="10.00">pymathconstants.c</text>
</a>
</g>
</g>
<!-- Node1&#45;&gt;Node8 -->
<g id="edge7" class="edge"><title>Node1&#45;&gt;Node8</title>
<path fill="none" stroke="midnightblue" d="M192.946,-109.039C221.358,-98.8786 261.437,-84.5457 286.686,-75.5164"/>
<polygon fill="midnightblue" stroke="midnightblue" points="191.664,-105.781 183.426,-112.444 194.021,-112.372 191.664,-105.781"/>
</g>
<!-- Node3 -->
<g id="node3" class="node"><title>Node3</title>
<g id="a_node3"><a xlink:href="geometry_8c.html" target="_top" xlink:title="Geometry Equations. ">
<polygon fill="white" stroke="black" points="0,-0.5 0,-19.5 65,-19.5 65,-0.5 0,-0.5"/>
<text text-anchor="middle" x="32.5" y="-7.5" font-family="Helvetica,sans-Serif" font-size="10.00">geometry.c</text>
</a>
</g>
</g>
<!-- Node2&#45;&gt;Node3 -->
<g id="edge2" class="edge"><title>Node2&#45;&gt;Node3</title>
<path fill="none" stroke="midnightblue" d="M32.5,-45.8045C32.5,-36.9102 32.5,-26.7798 32.5,-19.7511"/>
<polygon fill="midnightblue" stroke="midnightblue" points="29.0001,-46.083 32.5,-56.083 36.0001,-46.083 29.0001,-46.083"/>
</g>
<!-- Node5 -->
<g id="node5" class="node"><title>Node5</title>
<g id="a_node5"><a xlink:href="mathfunc_8c.html" target="_top" xlink:title="Math Functions. ">
<polygon fill="white" stroke="black" points="83,-0.5 83,-19.5 148,-19.5 148,-0.5 83,-0.5"/>
<text text-anchor="middle" x="115.5" y="-7.5" font-family="Helvetica,sans-Serif" font-size="10.00">mathfunc.c</text>
</a>
</g>
</g>
<!-- Node4&#45;&gt;Node5 -->
<g id="edge4" class="edge"><title>Node4&#45;&gt;Node5</title>
<path fill="none" stroke="midnightblue" d="M115.5,-45.8045C115.5,-36.9102 115.5,-26.7798 115.5,-19.7511"/>
<polygon fill="midnightblue" stroke="midnightblue" points="112,-46.083 115.5,-56.083 119,-46.083 112,-46.083"/>
</g>
<!-- Node6 -->
<g id="node6" class="node"><title>Node6</title>
<g id="a_node6"><a xlink:href="pymathfunc_8c.html" target="_top" xlink:title="Math Functions. ">
<polygon fill="white" stroke="black" points="166.5,-0.5 166.5,-19.5 242.5,-19.5 242.5,-0.5 166.5,-0.5"/>
<text text-anchor="middle" x="204.5" y="-7.5" font-family="Helvetica,sans-Serif" font-size="10.00">pymathfunc.c</text>
</a>
</g>
</g>
<!-- Node4&#45;&gt;Node6 -->
<g id="edge5" class="edge"><title>Node4&#45;&gt;Node6</title>
<path fill="none" stroke="midnightblue" d="M138.738,-50.9005C155.058,-40.9986 176.365,-28.0705 190.236,-19.6545"/>
<polygon fill="midnightblue" stroke="midnightblue" points="136.533,-48.1444 129.799,-56.324 140.164,-54.1289 136.533,-48.1444"/>
</g>
</g>
</svg>
