<?xml version="1.0" encoding="UTF-8" standalone="no"?>
<!DOCTYPE svg PUBLIC "-//W3C//DTD SVG 1.1//EN"
 "http://www.w3.org/Graphics/SVG/1.1/DTD/svg11.dtd">
<!-- Generated by graphviz version 2.38.0 (20140413.2041)
 -->
<!-- Title: pychemistry.c Pages: 1 -->
<svg width="679pt" height="252pt"
 viewBox="0.00 0.00 679.00 252.00" xmlns="http://www.w3.org/2000/svg" xmlns:xlink="http://www.w3.org/1999/xlink">
<g id="graph0" class="graph" transform="scale(1 1) rotate(0) translate(4 248)">
<title>pychemistry.c</title>
<polygon fill="white" stroke="none" points="-4,4 -4,-248 675,-248 675,4 -4,4"/>
<!-- Node1 -->
<g id="node1" class="node"><title>Node1</title>
<polygon fill="#bfbfbf" stroke="black" points="298,-224.5 298,-243.5 376,-243.5 376,-224.5 298,-224.5"/>
<text text-anchor="middle" x="337" y="-231.5" font-family="Helvetica,sans-Serif" font-size="10.00">pychemistry.c</text>
</g>
<!-- Node2 -->
<g id="node2" class="node"><title>Node2</title>
<g id="a_node2"><a xlink:href="PY__MACROS_8h.html" target="_top" xlink:title="Standard Python Header Macros (header) ">
<polygon fill="white" stroke="black" points="242,-168.5 242,-187.5 330,-187.5 330,-168.5 242,-168.5"/>
<text text-anchor="middle" x="286" y="-175.5" font-family="Helvetica,sans-Serif" font-size="10.00">PY_MACROS.h</text>
</a>
</g>
</g>
<!-- Node1&#45;&gt;Node2 -->
<g id="edge1" class="edge"><title>Node1&#45;&gt;Node2</title>
<path fill="none" stroke="midnightblue" d="M328.578,-224.083C321.152,-216.22 310.148,-204.569 301.188,-195.081"/>
<polygon fill="midnightblue" stroke="midnightblue" points="303.676,-192.618 294.265,-187.751 298.587,-197.424 303.676,-192.618"/>
</g>
<!-- Node15 -->
<g id="node15" class="node"><title>Node15</title>
<g id="a_node15"><a xlink:href="chemistry_8h.html" target="_top" xlink:title="Chemistry&#45;related Functions (header) ">
<polygon fill="white" stroke="black" points="354,-168.5 354,-187.5 422,-187.5 422,-168.5 354,-168.5"/>
<text text-anchor="middle" x="388" y="-175.5" font-family="Helvetica,sans-Serif" font-size="10.00">chemistry.h</text>
</a>
</g>
</g>
<!-- Node1&#45;&gt;Node15 -->
<g id="edge14" class="edge"><title>Node1&#45;&gt;Node15</title>
<path fill="none" stroke="midnightblue" d="M345.422,-224.083C352.848,-216.22 363.852,-204.569 372.812,-195.081"/>
<polygon fill="midnightblue" stroke="midnightblue" points="375.413,-197.424 379.735,-187.751 370.324,-192.618 375.413,-197.424"/>
</g>
<!-- Node3 -->
<g id="node3" class="node"><title>Node3</title>
<g id="a_node3"><a xlink:href="MACROS_8h.html" target="_top" xlink:title="Standard Macros Header. ">
<polygon fill="white" stroke="black" points="307.5,-56.5 307.5,-75.5 376.5,-75.5 376.5,-56.5 307.5,-56.5"/>
<text text-anchor="middle" x="342" y="-63.5" font-family="Helvetica,sans-Serif" font-size="10.00">MACROS.h</text>
</a>
</g>
</g>
<!-- Node2&#45;&gt;Node3 -->
<g id="edge2" class="edge"><title>Node2&#45;&gt;Node3</title>
<path fill="none" stroke="midnightblue" d="M274.87,-168.451C259.92,-155.892 236.583,-131.802 249,-112 259.823,-94.7392 279.351,-83.9365 297.727,-77.2591"/>
<polygon fill="midnightblue" stroke="midnightblue" points="299.067,-80.5026 307.467,-74.0451 296.874,-73.8552 299.067,-80.5026"/>
</g>
<!-- Node14 -->
<g id="node14" class="node"><title>Node14</title>
<polygon fill="white" stroke="#bfbfbf" points="258,-112.5 258,-131.5 314,-131.5 314,-112.5 258,-112.5"/>
<text text-anchor="middle" x="286" y="-119.5" font-family="Helvetica,sans-Serif" font-size="10.00">Python.h</text>
</g>
<!-- Node2&#45;&gt;Node14 -->
<g id="edge13" class="edge"><title>Node2&#45;&gt;Node14</title>
<path fill="none" stroke="midnightblue" d="M286,-168.083C286,-161.006 286,-150.861 286,-141.986"/>
<polygon fill="midnightblue" stroke="midnightblue" points="289.5,-141.751 286,-131.751 282.5,-141.751 289.5,-141.751"/>
</g>
<!-- Node4 -->
<g id="node4" class="node"><title>Node4</title>
<polygon fill="white" stroke="#bfbfbf" points="0,-0.5 0,-19.5 62,-19.5 62,-0.5 0,-0.5"/>
<text text-anchor="middle" x="31" y="-7.5" font-family="Helvetica,sans-Serif" font-size="10.00">complex.h</text>
</g>
<!-- Node3&#45;&gt;Node4 -->
<g id="edge3" class="edge"><title>Node3&#45;&gt;Node4</title>
<path fill="none" stroke="midnightblue" d="M307.236,-59.8735C257.375,-52.38 162.465,-37.5931 72.248,-20.1596"/>
<polygon fill="midnightblue" stroke="midnightblue" points="72.892,-16.7193 62.4074,-18.2435 71.5541,-23.5903 72.892,-16.7193"/>
</g>
<!-- Node5 -->
<g id="node5" class="node"><title>Node5</title>
<polygon fill="white" stroke="#bfbfbf" points="80.5,-0.5 80.5,-19.5 127.5,-19.5 127.5,-0.5 80.5,-0.5"/>
<text text-anchor="middle" x="104" y="-7.5" font-family="Helvetica,sans-Serif" font-size="10.00">errno.h</text>
</g>
<!-- Node3&#45;&gt;Node5 -->
<g id="edge4" class="edge"><title>Node3&#45;&gt;Node5</title>
<path fill="none" stroke="midnightblue" d="M307.42,-57.9617C268.563,-49.9319 203.382,-36.0995 137.848,-20.1107"/>
<polygon fill="midnightblue" stroke="midnightblue" points="138.302,-16.6184 127.756,-17.6318 136.632,-23.4163 138.302,-16.6184"/>
</g>
<!-- Node6 -->
<g id="node6" class="node"><title>Node6</title>
<polygon fill="white" stroke="#bfbfbf" points="146,-0.5 146,-19.5 190,-19.5 190,-0.5 146,-0.5"/>
<text text-anchor="middle" x="168" y="-7.5" font-family="Helvetica,sans-Serif" font-size="10.00">float.h</text>
</g>
<!-- Node3&#45;&gt;Node6 -->
<g id="edge5" class="edge"><title>Node3&#45;&gt;Node6</title>
<path fill="none" stroke="midnightblue" d="M314.429,-56.4435C283.253,-46.768 232.572,-31.0397 199.764,-20.8577"/>
<polygon fill="midnightblue" stroke="midnightblue" points="200.785,-17.51 190.197,-17.8886 198.71,-24.1954 200.785,-17.51"/>
</g>
<!-- Node7 -->
<g id="node7" class="node"><title>Node7</title>
<polygon fill="white" stroke="#bfbfbf" points="208.5,-0.5 208.5,-19.5 267.5,-19.5 267.5,-0.5 208.5,-0.5"/>
<text text-anchor="middle" x="238" y="-7.5" font-family="Helvetica,sans-Serif" font-size="10.00">inttypes.h</text>
</g>
<!-- Node3&#45;&gt;Node7 -->
<g id="edge6" class="edge"><title>Node3&#45;&gt;Node7</title>
<path fill="none" stroke="midnightblue" d="M325.291,-56.324C308.688,-47.7034 282.998,-34.3643 263.78,-24.3855"/>
<polygon fill="midnightblue" stroke="midnightblue" points="265.156,-21.1565 254.668,-19.6545 261.93,-27.3689 265.156,-21.1565"/>
</g>
<!-- Node8 -->
<g id="node8" class="node"><title>Node8</title>
<polygon fill="white" stroke="#bfbfbf" points="286,-0.5 286,-19.5 334,-19.5 334,-0.5 286,-0.5"/>
<text text-anchor="middle" x="310" y="-7.5" font-family="Helvetica,sans-Serif" font-size="10.00">limits.h</text>
</g>
<!-- Node3&#45;&gt;Node8 -->
<g id="edge7" class="edge"><title>Node3&#45;&gt;Node8</title>
<path fill="none" stroke="midnightblue" d="M336.716,-56.083C332.289,-48.6127 325.837,-37.7244 320.382,-28.5199"/>
<polygon fill="midnightblue" stroke="midnightblue" points="323.295,-26.5697 315.186,-19.7511 317.273,-30.1383 323.295,-26.5697"/>
</g>
<!-- Node9 -->
<g id="node9" class="node"><title>Node9</title>
<polygon fill="white" stroke="#bfbfbf" points="352,-0.5 352,-19.5 398,-19.5 398,-0.5 352,-0.5"/>
<text text-anchor="middle" x="375" y="-7.5" font-family="Helvetica,sans-Serif" font-size="10.00">stdio.h</text>
</g>
<!-- Node3&#45;&gt;Node9 -->
<g id="edge8" class="edge"><title>Node3&#45;&gt;Node9</title>
<path fill="none" stroke="midnightblue" d="M347.449,-56.083C352.014,-48.6127 358.668,-37.7244 364.293,-28.5199"/>
<polygon fill="midnightblue" stroke="midnightblue" points="367.424,-30.109 369.652,-19.7511 361.451,-26.4588 367.424,-30.109"/>
</g>
<!-- Node10 -->
<g id="node10" class="node"><title>Node10</title>
<polygon fill="white" stroke="#bfbfbf" points="416,-0.5 416,-19.5 464,-19.5 464,-0.5 416,-0.5"/>
<text text-anchor="middle" x="440" y="-7.5" font-family="Helvetica,sans-Serif" font-size="10.00">stdlib.h</text>
</g>
<!-- Node3&#45;&gt;Node10 -->
<g id="edge9" class="edge"><title>Node3&#45;&gt;Node10</title>
<path fill="none" stroke="midnightblue" d="M357.745,-56.324C373.319,-47.7428 397.377,-34.486 415.459,-24.5224"/>
<polygon fill="midnightblue" stroke="midnightblue" points="417.224,-27.546 424.294,-19.6545 413.846,-21.4152 417.224,-27.546"/>
</g>
<!-- Node11 -->
<g id="node11" class="node"><title>Node11</title>
<polygon fill="white" stroke="#bfbfbf" points="482.5,-0.5 482.5,-19.5 531.5,-19.5 531.5,-0.5 482.5,-0.5"/>
<text text-anchor="middle" x="507" y="-7.5" font-family="Helvetica,sans-Serif" font-size="10.00">string.h</text>
</g>
<!-- Node3&#45;&gt;Node11 -->
<g id="edge10" class="edge"><title>Node3&#45;&gt;Node11</title>
<path fill="none" stroke="midnightblue" d="M368.145,-56.4435C396.433,-47.1854 441.656,-32.3854 472.761,-22.2054"/>
<polygon fill="midnightblue" stroke="midnightblue" points="473.91,-25.5123 482.325,-19.0755 471.732,-18.8595 473.91,-25.5123"/>
</g>
<!-- Node12 -->
<g id="node12" class="node"><title>Node12</title>
<polygon fill="white" stroke="#bfbfbf" points="549.5,-0.5 549.5,-19.5 600.5,-19.5 600.5,-0.5 549.5,-0.5"/>
<text text-anchor="middle" x="575" y="-7.5" font-family="Helvetica,sans-Serif" font-size="10.00">wchar.h</text>
</g>
<!-- Node3&#45;&gt;Node12 -->
<g id="edge11" class="edge"><title>Node3&#45;&gt;Node12</title>
<path fill="none" stroke="midnightblue" d="M376.602,-57.5755C414.35,-49.3877 476.798,-35.5869 539.367,-20.3404"/>
<polygon fill="midnightblue" stroke="midnightblue" points="540.525,-23.6601 549.406,-17.8816 538.86,-16.861 540.525,-23.6601"/>
</g>
<!-- Node13 -->
<g id="node13" class="node"><title>Node13</title>
<polygon fill="white" stroke="#bfbfbf" points="619,-0.5 619,-19.5 671,-19.5 671,-0.5 619,-0.5"/>
<text text-anchor="middle" x="645" y="-7.5" font-family="Helvetica,sans-Serif" font-size="10.00">stdarg.h</text>
</g>
<!-- Node3&#45;&gt;Node13 -->
<g id="edge12" class="edge"><title>Node3&#45;&gt;Node13</title>
<path fill="none" stroke="midnightblue" d="M376.871,-60.116C426.326,-52.9779 519.852,-38.7022 608.712,-20.1303"/>
<polygon fill="midnightblue" stroke="midnightblue" points="609.623,-23.5152 618.683,-18.0237 608.176,-16.6664 609.623,-23.5152"/>
</g>
<!-- Node15&#45;&gt;Node3 -->
<g id="edge15" class="edge"><title>Node15&#45;&gt;Node3</title>
<path fill="none" stroke="midnightblue" d="M381.922,-168.396C375.929,-159.595 366.843,-145.355 361,-132 354.373,-116.853 349.294,-98.7333 346.061,-85.4774"/>
<polygon fill="midnightblue" stroke="midnightblue" points="349.453,-84.6107 343.787,-75.6585 342.634,-86.1904 349.453,-84.6107"/>
</g>
<!-- Node16 -->
<g id="node16" class="node"><title>Node16</title>
<polygon fill="white" stroke="#bfbfbf" points="370.5,-112.5 370.5,-131.5 417.5,-131.5 417.5,-112.5 370.5,-112.5"/>
<text text-anchor="middle" x="394" y="-119.5" font-family="Helvetica,sans-Serif" font-size="10.00">math.h</text>
</g>
<!-- Node15&#45;&gt;Node16 -->
<g id="edge16" class="edge"><title>Node15&#45;&gt;Node16</title>
<path fill="none" stroke="midnightblue" d="M388.991,-168.083C389.786,-160.927 390.929,-150.635 391.923,-141.691"/>
<polygon fill="midnightblue" stroke="midnightblue" points="395.402,-142.076 393.028,-131.751 388.445,-141.303 395.402,-142.076"/>
</g>
<!-- Node17 -->
<g id="node17" class="node"><title>Node17</title>
<g id="a_node17"><a xlink:href="chemistry__types_8h.html" target="_top" xlink:title="Chemistry&#45;related Data&#45;types (header) ">
<polygon fill="white" stroke="black" points="435.5,-112.5 435.5,-131.5 532.5,-131.5 532.5,-112.5 435.5,-112.5"/>
<text text-anchor="middle" x="484" y="-119.5" font-family="Helvetica,sans-Serif" font-size="10.00">chemistry_types.h</text>
</a>
</g>
</g>
<!-- Node15&#45;&gt;Node17 -->
<g id="edge17" class="edge"><title>Node15&#45;&gt;Node17</title>
<path fill="none" stroke="midnightblue" d="M403.424,-168.324C418.54,-159.822 441.815,-146.729 459.471,-136.797"/>
<polygon fill="midnightblue" stroke="midnightblue" points="461.614,-139.608 468.614,-131.655 458.183,-133.507 461.614,-139.608"/>
</g>
<!-- Node17&#45;&gt;Node3 -->
<g id="edge18" class="edge"><title>Node17&#45;&gt;Node3</title>
<path fill="none" stroke="midnightblue" d="M461.5,-112.444C437.923,-103.478 400.678,-89.314 374.036,-79.1827"/>
<polygon fill="midnightblue" stroke="midnightblue" points="374.986,-75.7995 364.395,-75.5164 372.498,-82.3424 374.986,-75.7995"/>
</g>
</g>
</svg>
