<?xml version="1.0" encoding="UTF-8" standalone="no"?>
<!DOCTYPE svg PUBLIC "-//W3C//DTD SVG 1.1//EN"
 "http://www.w3.org/Graphics/SVG/1.1/DTD/svg11.dtd">
<!-- Generated by graphviz version 2.38.0 (20140413.2041)
 -->
<!-- Title: GPIO_PinControlInterface_t Pages: 1 -->
<!--zoomable 529 -->
<svg id="main" version="1.1" xmlns="http://www.w3.org/2000/svg" xmlns:xlink="http://www.w3.org/1999/xlink" xml:space="preserve" onload="init(evt)">
<style type="text/css"><![CDATA[
.edge:hover path { stroke: red; }
.edge:hover polygon { stroke: red; fill: red; }
]]></style>
<script type="text/javascript"><![CDATA[
var edges = document.getElementsByTagName('g');
if (edges && edges.length) {
  for (var i=0;i<edges.length;i++) {
    if (edges[i].id.substr(0,4)=='edge') {
      edges[i].setAttribute('class','edge');
    }
  }
}
]]></script>
        <defs>
                <circle id="rim" cx="0" cy="0" r="7"/>
                <circle id="rim2" cx="0" cy="0" r="3.5"/>
                <g id="zoomPlus">
                        <use xlink:href="#rim" fill="#404040">
                                <set attributeName="fill" to="#808080" begin="zoomplus.mouseover" end="zoomplus.mouseout"/>
                        </use>
                        <path d="M-4,0h8M0,-4v8" fill="none" stroke="white" stroke-width="1.5" pointer-events="none"/>
                </g>
                <g id="zoomMin">
                        <use xlink:href="#rim" fill="#404040">
                                <set attributeName="fill" to="#808080" begin="zoomminus.mouseover" end="zoomminus.mouseout"/>
                        </use>
                        <path d="M-4,0h8" fill="none" stroke="white" stroke-width="1.5" pointer-events="none"/>
                </g>
                <g id="dirArrow">
                        <path fill="none" stroke="white" stroke-width="1.5" d="M0,-3.0v7 M-2.5,-0.5L0,-3.0L2.5,-0.5"/>
                </g>
               <g id="resetDef">
                       <use xlink:href="#rim2" fill="#404040">
                               <set attributeName="fill" to="#808080" begin="reset.mouseover" end="reset.mouseout"/>
                       </use>
               </g>
        </defs>

<script type="text/javascript">
var viewWidth = 417;
var viewHeight = 529;
var sectionId = 'dynsection-0';
</script>
<script xlink:href="svgpan.js"/>
<svg id="graph" class="graph">
<g id="viewport">
<title>GPIO_PinControlInterface_t</title>
<polygon fill="white" stroke="none" points="-4,4 -4,-525 413,-525 413,4 -4,4"/>
<!-- Node1 -->
<g id="node1" class="node"><title>Node1</title>
<polygon fill="#bfbfbf" stroke="black" points="270,-251 270,-270 409,-270 409,-251 270,-251"/>
<text text-anchor="middle" x="339.5" y="-258" font-family="Helvetica,sans-Serif" font-size="10.00">GPIO_PinControlInterface_t</text>
</g>
<!-- Node2 -->
<g id="node2" class="node"><title>Node2</title>
<polygon fill="white" stroke="#bfbfbf" points="15,-490.5 15,-520.5 149,-520.5 149,-490.5 15,-490.5"/>
<text text-anchor="start" x="23" y="-508.5" font-family="Helvetica,sans-Serif" font-size="10.00">_Bool(*)(int16_t pinIndex,</text>
<text text-anchor="middle" x="82" y="-497.5" font-family="Helvetica,sans-Serif" font-size="10.00"> GPIO_PullUpDown_t pull)</text>
</g>
<!-- Node2&#45;&gt;Node1 -->
<g id="edge1" class="edge"><title>Node2&#45;&gt;Node1</title>
<path fill="none" stroke="#9a32cd" stroke-dasharray="5,2" d="M159.01,-492.358C191.053,-483.484 226.705,-468.768 252,-444.5 305.999,-392.693 329.883,-300.506 336.498,-270.347"/>
<polygon fill="#9a32cd" stroke="#9a32cd" points="157.984,-489.009 149.197,-494.929 159.758,-495.781 157.984,-489.009"/>
<text text-anchor="middle" x="217" y="-486.5" font-family="Helvetica,sans-Serif" font-size="10.00"> setPull</text>
</g>
<!-- Node3 -->
<g id="node3" class="node"><title>Node3</title>
<polygon fill="white" stroke="#bfbfbf" points="10.5,-441.5 10.5,-471.5 153.5,-471.5 153.5,-441.5 10.5,-441.5"/>
<text text-anchor="start" x="18.5" y="-459.5" font-family="Helvetica,sans-Serif" font-size="10.00">_Bool(*)(int16_t pinIndex,</text>
<text text-anchor="middle" x="82" y="-448.5" font-family="Helvetica,sans-Serif" font-size="10.00"> GPIO_RiseTime_t riseTime)</text>
</g>
<!-- Node3&#45;&gt;Node1 -->
<g id="edge2" class="edge"><title>Node3&#45;&gt;Node1</title>
<path fill="none" stroke="#9a32cd" stroke-dasharray="5,2" d="M161.135,-438.258C192.03,-428.099 226.235,-412.848 252,-390.5 293.572,-354.442 323.605,-293.826 334.258,-270.272"/>
<polygon fill="#9a32cd" stroke="#9a32cd" points="159.72,-435.034 151.236,-441.38 161.825,-441.71 159.72,-435.034"/>
<text text-anchor="middle" x="217" y="-432.5" font-family="Helvetica,sans-Serif" font-size="10.00"> setRiseTime</text>
</g>
<!-- Node4 -->
<g id="node4" class="node"><title>Node4</title>
<polygon fill="white" stroke="#bfbfbf" points="28.5,-392.5 28.5,-422.5 135.5,-422.5 135.5,-392.5 28.5,-392.5"/>
<text text-anchor="start" x="36.5" y="-410.5" font-family="Helvetica,sans-Serif" font-size="10.00">GPIO_RiseTime_t(*)</text>
<text text-anchor="middle" x="82" y="-399.5" font-family="Helvetica,sans-Serif" font-size="10.00">(int16_t pinIndex)</text>
</g>
<!-- Node4&#45;&gt;Node1 -->
<g id="edge3" class="edge"><title>Node4&#45;&gt;Node1</title>
<path fill="none" stroke="#9a32cd" stroke-dasharray="5,2" d="M145.527,-389.988C151.81,-387.925 158.059,-385.75 164,-383.5 204.351,-368.218 216.324,-366.769 252,-342.5 284.166,-320.619 315.738,-286.653 330.241,-270.152"/>
<polygon fill="#9a32cd" stroke="#9a32cd" points="144.131,-386.759 135.665,-393.129 146.255,-393.429 144.131,-386.759"/>
<text text-anchor="middle" x="217" y="-378.5" font-family="Helvetica,sans-Serif" font-size="10.00"> getRiseTime</text>
</g>
<!-- Node5 -->
<g id="node5" class="node"><title>Node5</title>
<polygon fill="white" stroke="#bfbfbf" points="0,-343.5 0,-373.5 164,-373.5 164,-343.5 0,-343.5"/>
<text text-anchor="start" x="8" y="-361.5" font-family="Helvetica,sans-Serif" font-size="10.00">_Bool(*)(int16_t pinIndex,</text>
<text text-anchor="middle" x="82" y="-350.5" font-family="Helvetica,sans-Serif" font-size="10.00"> GPIO_OutputType_t outputType)</text>
</g>
<!-- Node5&#45;&gt;Node1 -->
<g id="edge4" class="edge"><title>Node5&#45;&gt;Node1</title>
<path fill="none" stroke="#9a32cd" stroke-dasharray="5,2" d="M145.315,-340.384C151.64,-338.441 157.957,-336.458 164,-334.5 203.447,-321.717 213.807,-319.649 252,-303.5 276.406,-293.181 303.635,-279.22 320.906,-270.043"/>
<polygon fill="#9a32cd" stroke="#9a32cd" points="143.957,-337.138 135.407,-343.394 145.993,-343.836 143.957,-337.138"/>
<text text-anchor="middle" x="217" y="-330.5" font-family="Helvetica,sans-Serif" font-size="10.00"> setOutputType</text>
</g>
<!-- Node6 -->
<g id="node6" class="node"><title>Node6</title>
<polygon fill="white" stroke="#bfbfbf" points="29,-294.5 29,-324.5 135,-324.5 135,-294.5 29,-294.5"/>
<text text-anchor="start" x="37" y="-312.5" font-family="Helvetica,sans-Serif" font-size="10.00">GPIO_LineLevel_t(*)</text>
<text text-anchor="middle" x="82" y="-301.5" font-family="Helvetica,sans-Serif" font-size="10.00">(int16_t pinIndex)</text>
</g>
<!-- Node6&#45;&gt;Node1 -->
<g id="edge5" class="edge"><title>Node6&#45;&gt;Node1</title>
<path fill="none" stroke="#9a32cd" stroke-dasharray="5,2" d="M145.046,-297.601C189.17,-289.139 247.66,-277.921 288.733,-270.044"/>
<polygon fill="#9a32cd" stroke="#9a32cd" points="144.174,-294.204 135.012,-299.525 145.492,-301.079 144.174,-294.204"/>
<text text-anchor="middle" x="217" y="-291.5" font-family="Helvetica,sans-Serif" font-size="10.00"> getLineLevel</text>
</g>
<!-- Node7 -->
<g id="node7" class="node"><title>Node7</title>
<polygon fill="white" stroke="#bfbfbf" points="19,-245.5 19,-275.5 145,-275.5 145,-245.5 19,-245.5"/>
<text text-anchor="start" x="27" y="-263.5" font-family="Helvetica,sans-Serif" font-size="10.00">_Bool(*)(int16_t pinIndex,</text>
<text text-anchor="middle" x="82" y="-252.5" font-family="Helvetica,sans-Serif" font-size="10.00"> GPIO_LineLevel_t level)</text>
</g>
<!-- Node7&#45;&gt;Node1 -->
<g id="edge6" class="edge"><title>Node7&#45;&gt;Node1</title>
<path fill="none" stroke="#9a32cd" stroke-dasharray="5,2" d="M155.566,-260.5C191.41,-260.5 234.429,-260.5 269.743,-260.5"/>
<polygon fill="#9a32cd" stroke="#9a32cd" points="155.176,-257 145.176,-260.5 155.176,-264 155.176,-257"/>
<text text-anchor="middle" x="217" y="-263.5" font-family="Helvetica,sans-Serif" font-size="10.00"> setLineLevel</text>
</g>
<!-- Node8 -->
<g id="node8" class="node"><title>Node8</title>
<polygon fill="white" stroke="#bfbfbf" points="24,-196.5 24,-226.5 140,-226.5 140,-196.5 24,-196.5"/>
<text text-anchor="start" x="32" y="-214.5" font-family="Helvetica,sans-Serif" font-size="10.00">GPIO_OutputType_t(*)</text>
<text text-anchor="middle" x="82" y="-203.5" font-family="Helvetica,sans-Serif" font-size="10.00">(int16_t pinIndex)</text>
</g>
<!-- Node8&#45;&gt;Node1 -->
<g id="edge7" class="edge"><title>Node8&#45;&gt;Node1</title>
<path fill="none" stroke="#9a32cd" stroke-dasharray="5,2" d="M149.932,-224.336C193.351,-232.663 248.997,-243.335 288.56,-250.922"/>
<polygon fill="#9a32cd" stroke="#9a32cd" points="150.501,-220.882 140.021,-222.436 149.183,-227.756 150.501,-220.882"/>
<text text-anchor="middle" x="217" y="-245.5" font-family="Helvetica,sans-Serif" font-size="10.00"> getOutputType</text>
</g>
<!-- Node9 -->
<g id="node9" class="node"><title>Node9</title>
<polygon fill="white" stroke="#bfbfbf" points="19,-147.5 19,-177.5 145,-177.5 145,-147.5 19,-147.5"/>
<text text-anchor="start" x="27" y="-165.5" font-family="Helvetica,sans-Serif" font-size="10.00">_Bool(*)(int16_t pinIndex,</text>
<text text-anchor="middle" x="82" y="-154.5" font-family="Helvetica,sans-Serif" font-size="10.00"> GPIO_Direction_t dir)</text>
</g>
<!-- Node9&#45;&gt;Node1 -->
<g id="edge8" class="edge"><title>Node9&#45;&gt;Node1</title>
<path fill="none" stroke="#9a32cd" stroke-dasharray="5,2" d="M142.237,-180.641C149.573,-182.929 156.963,-185.255 164,-187.5 203.232,-200.017 213.982,-200.675 252,-216.5 276.888,-226.86 304.455,-241.457 321.63,-250.949"/>
<polygon fill="#9a32cd" stroke="#9a32cd" points="142.895,-177.18 132.307,-177.555 140.817,-183.865 142.895,-177.18"/>
<text text-anchor="middle" x="217" y="-219.5" font-family="Helvetica,sans-Serif" font-size="10.00"> setPinDirection</text>
</g>
<!-- Node10 -->
<g id="node10" class="node"><title>Node10</title>
<polygon fill="white" stroke="#bfbfbf" points="30,-98.5 30,-128.5 134,-128.5 134,-98.5 30,-98.5"/>
<text text-anchor="start" x="38" y="-116.5" font-family="Helvetica,sans-Serif" font-size="10.00">GPIO_Direction_t(*)</text>
<text text-anchor="middle" x="82" y="-105.5" font-family="Helvetica,sans-Serif" font-size="10.00">(int16_t pinIndex)</text>
</g>
<!-- Node10&#45;&gt;Node1 -->
<g id="edge9" class="edge"><title>Node10&#45;&gt;Node1</title>
<path fill="none" stroke="#9a32cd" stroke-dasharray="5,2" d="M144.138,-131.524C150.879,-133.762 157.61,-136.108 164,-138.5 204.064,-153.501 216.475,-153.665 252,-177.5 284.665,-199.416 316.245,-234.212 330.539,-250.924"/>
<polygon fill="#9a32cd" stroke="#9a32cd" points="144.888,-128.088 134.296,-128.331 142.727,-134.746 144.888,-128.088"/>
<text text-anchor="middle" x="217" y="-180.5" font-family="Helvetica,sans-Serif" font-size="10.00"> getPinDirection</text>
</g>
<!-- Node11 -->
<g id="node11" class="node"><title>Node11</title>
<polygon fill="white" stroke="#bfbfbf" points="22.5,-49.5 22.5,-79.5 141.5,-79.5 141.5,-49.5 22.5,-49.5"/>
<text text-anchor="start" x="30.5" y="-67.5" font-family="Helvetica,sans-Serif" font-size="10.00">GPIO_PullUpDown_t(*)</text>
<text text-anchor="middle" x="82" y="-56.5" font-family="Helvetica,sans-Serif" font-size="10.00">(int16_t pinIndex)</text>
</g>
<!-- Node11&#45;&gt;Node1 -->
<g id="edge10" class="edge"><title>Node11&#45;&gt;Node1</title>
<path fill="none" stroke="#9a32cd" stroke-dasharray="5,2" d="M151.388,-79.3765C184.594,-89.2687 223.392,-105.064 252,-129.5 294.275,-165.61 324.102,-227.356 334.476,-250.95"/>
<polygon fill="#9a32cd" stroke="#9a32cd" points="152.31,-75.9999 141.733,-76.617 150.386,-82.7304 152.31,-75.9999"/>
<text text-anchor="middle" x="217" y="-132.5" font-family="Helvetica,sans-Serif" font-size="10.00"> getPull</text>
</g>
<!-- Node12 -->
<g id="node12" class="node"><title>Node12</title>
<polygon fill="white" stroke="#bfbfbf" points="13,-0.5 13,-30.5 151,-30.5 151,-0.5 13,-0.5"/>
<text text-anchor="start" x="21" y="-18.5" font-family="Helvetica,sans-Serif" font-size="10.00">_Bool(*)(GPIO_PinInitStruct</text>
<text text-anchor="middle" x="82" y="-7.5" font-family="Helvetica,sans-Serif" font-size="10.00">_t *initStruct)</text>
</g>
<!-- Node12&#45;&gt;Node1 -->
<g id="edge11" class="edge"><title>Node12&#45;&gt;Node1</title>
<path fill="none" stroke="#9a32cd" stroke-dasharray="5,2" d="M161.206,-28.9488C192.605,-37.7195 227.164,-52.0836 252,-75.5 306.948,-127.307 330.341,-220.975 336.649,-250.98"/>
<polygon fill="#9a32cd" stroke="#9a32cd" points="161.7,-25.4597 151.138,-26.2933 159.915,-32.2282 161.7,-25.4597"/>
<text text-anchor="middle" x="217" y="-78.5" font-family="Helvetica,sans-Serif" font-size="10.00"> reconfig</text>
</g>
</g>
</svg>
        <g id="navigator" transform="translate(0 0)" fill="#404254">
                <rect fill="#f2f5e9" fill-opacity="0.5" stroke="#606060" stroke-width=".5" x="0" y="0" width="60" height="60"/>
                <use id="zoomplus" xlink:href="#zoomPlus" x="17" y="9" onmousedown="handleZoom(evt,'in')"/>
                <use id="zoomminus" xlink:href="#zoomMin" x="42" y="9" onmousedown="handleZoom(evt,'out')"/>
                <use id="reset" xlink:href="#resetDef" x="30" y="36" onmousedown="handleReset()"/>
                <g id="arrowUp" xlink:href="#dirArrow" transform="translate(30 24)" onmousedown="handlePan(0,-1)">
                  <use xlink:href="#rim" fill="#404040">
                        <set attributeName="fill" to="#808080" begin="arrowUp.mouseover" end="arrowUp.mouseout"/>
                  </use>
                  <path fill="none" stroke="white" stroke-width="1.5" d="M0,-3.0v7 M-2.5,-0.5L0,-3.0L2.5,-0.5"/>
                </g>
                <g id="arrowRight" xlink:href="#dirArrow" transform="rotate(90) translate(36 -43)" onmousedown="handlePan(1,0)">
                  <use xlink:href="#rim" fill="#404040">
                        <set attributeName="fill" to="#808080" begin="arrowRight.mouseover" end="arrowRight.mouseout"/>
                  </use>
                  <path fill="none" stroke="white" stroke-width="1.5" d="M0,-3.0v7 M-2.5,-0.5L0,-3.0L2.5,-0.5"/>
                </g>
                <g id="arrowDown" xlink:href="#dirArrow" transform="rotate(180) translate(-30 -48)" onmousedown="handlePan(0,1)">
                  <use xlink:href="#rim" fill="#404040">
                        <set attributeName="fill" to="#808080" begin="arrowDown.mouseover" end="arrowDown.mouseout"/>
                  </use>
                  <path fill="none" stroke="white" stroke-width="1.5" d="M0,-3.0v7 M-2.5,-0.5L0,-3.0L2.5,-0.5"/>
                </g>
                <g id="arrowLeft" xlink:href="#dirArrow" transform="rotate(270) translate(-36 17)" onmousedown="handlePan(-1,0)">
                  <use xlink:href="#rim" fill="#404040">
                        <set attributeName="fill" to="#808080" begin="arrowLeft.mouseover" end="arrowLeft.mouseout"/>
                  </use>
                  <path fill="none" stroke="white" stroke-width="1.5" d="M0,-3.0v7 M-2.5,-0.5L0,-3.0L2.5,-0.5"/>
                </g>
        </g>
        <svg viewBox="0 0 15 15" width="100%" height="30px" preserveAspectRatio="xMaxYMin meet">
         <g id="arrow_out" transform="scale(0.3 0.3)">
          <a xlink:href="structGPIO__PinControlInterface__t__coll__graph_org.svg" target="_base">
           <rect id="button" ry="5" rx="5" y="6" x="6" height="38" width="38"
                fill="#f2f5e9" fill-opacity="0.5" stroke="#606060" stroke-width="1.0"/>
           <path id="arrow"
             d="M 11.500037,31.436501 C 11.940474,20.09759 22.043105,11.32322 32.158766,21.979434 L 37.068811,17.246167 C 37.068811,17.246167 37.088388,32 37.088388,32 L 22.160133,31.978069 C 22.160133,31.978069 26.997745,27.140456 26.997745,27.140456 C 18.528582,18.264221 13.291696,25.230495 11.500037,31.436501 z"
             style="fill:#404040;"/>
          </a>
         </g>
        </svg>
</svg>
