<?xml version="1.0" encoding="UTF-8" standalone="no"?>
<!DOCTYPE svg PUBLIC "-//W3C//DTD SVG 1.1//EN"
 "http://www.w3.org/Graphics/SVG/1.1/DTD/svg11.dtd">
<!-- Generated by graphviz version 2.38.0 (20140413.2041)
 -->
<!-- Title: GPIO_ControlInterface_t Pages: 1 -->
<svg width="691pt" height="529pt"
 viewBox="0.00 0.00 691.00 529.00" xmlns="http://www.w3.org/2000/svg" xmlns:xlink="http://www.w3.org/1999/xlink">
<g id="graph0" class="graph" transform="scale(1 1) rotate(0) translate(4 525)">
<title>GPIO_ControlInterface_t</title>
<polygon fill="white" stroke="none" points="-4,4 -4,-525 687,-525 687,4 -4,4"/>
<!-- Node1 -->
<g id="node1" class="node"><title>Node1</title>
<polygon fill="#bfbfbf" stroke="black" points="558,-295 558,-314 683,-314 683,-295 558,-295"/>
<text text-anchor="middle" x="620.5" y="-302" font-family="Helvetica,sans-Serif" font-size="10.00">GPIO_ControlInterface_t</text>
</g>
<!-- Node2 -->
<g id="node2" class="node"><title>Node2</title>
<polygon fill="white" stroke="#bfbfbf" points="270,-338.5 270,-368.5 413,-368.5 413,-338.5 270,-338.5"/>
<text text-anchor="start" x="278" y="-356.5" font-family="Helvetica,sans-Serif" font-size="10.00">int16_t(*)(GPIO_PinInitStruct</text>
<text text-anchor="middle" x="341.5" y="-345.5" font-family="Helvetica,sans-Serif" font-size="10.00">_t *initStruct)</text>
</g>
<!-- Node2&#45;&gt;Node1 -->
<g id="edge1" class="edge"><title>Node2&#45;&gt;Node1</title>
<path fill="none" stroke="#9a32cd" stroke-dasharray="5,2" d="M423.294,-339.892C459.076,-333.787 501.661,-326.417 540,-319.5 549.538,-317.779 559.709,-315.897 569.48,-314.064"/>
<polygon fill="#9a32cd" stroke="#9a32cd" points="422.662,-336.449 413.391,-341.578 423.837,-343.349 422.662,-336.449"/>
<text text-anchor="middle" x="485.5" y="-341.5" font-family="Helvetica,sans-Serif" font-size="10.00"> registerPin</text>
</g>
<!-- Node3 -->
<g id="node3" class="node"><title>Node3</title>
<polygon fill="white" stroke="#bfbfbf" points="271.5,-289.5 271.5,-319.5 411.5,-319.5 411.5,-289.5 271.5,-289.5"/>
<text text-anchor="start" x="279.5" y="-307.5" font-family="Helvetica,sans-Serif" font-size="10.00">int8_t(*)(GPIO_PinControl</text>
<text text-anchor="middle" x="341.5" y="-296.5" font-family="Helvetica,sans-Serif" font-size="10.00">Interface_t *controlInterface)</text>
</g>
<!-- Node3&#45;&gt;Node1 -->
<g id="edge2" class="edge"><title>Node3&#45;&gt;Node1</title>
<path fill="none" stroke="#9a32cd" stroke-dasharray="5,2" d="M421.879,-304.5C465.073,-304.5 517.712,-304.5 557.799,-304.5"/>
<polygon fill="#9a32cd" stroke="#9a32cd" points="421.684,-301 411.684,-304.5 421.684,-308 421.684,-301"/>
<text text-anchor="middle" x="485.5" y="-307.5" font-family="Helvetica,sans-Serif" font-size="10.00"> registerExternGpioBlock</text>
</g>
<!-- Node4 -->
<g id="node4" class="node"><title>Node4</title>
<g id="a_node4"><a xlink:href="structGPIO__PinControlInterface__t.html" target="_top" xlink:title="GPIO_PinControlInterface_t">
<polygon fill="white" stroke="black" points="272,-251 272,-270 411,-270 411,-251 272,-251"/>
<text text-anchor="middle" x="341.5" y="-258" font-family="Helvetica,sans-Serif" font-size="10.00">GPIO_PinControlInterface_t</text>
</a>
</g>
</g>
<!-- Node4&#45;&gt;Node1 -->
<g id="edge3" class="edge"><title>Node4&#45;&gt;Node1</title>
<path fill="none" stroke="#9a32cd" stroke-dasharray="5,2" d="M421.176,-271.304C457.413,-276.472 500.948,-282.952 540,-289.5 549.974,-291.172 560.626,-293.091 570.786,-294.984"/>
<polygon fill="#9a32cd" stroke="#9a32cd" points="421.552,-267.822 411.159,-269.882 420.568,-274.752 421.552,-267.822"/>
<text text-anchor="middle" x="485.5" y="-292.5" font-family="Helvetica,sans-Serif" font-size="10.00"> ctrl</text>
</g>
<!-- Node5 -->
<g id="node5" class="node"><title>Node5</title>
<polygon fill="white" stroke="#bfbfbf" points="15,-490.5 15,-520.5 149,-520.5 149,-490.5 15,-490.5"/>
<text text-anchor="start" x="23" y="-508.5" font-family="Helvetica,sans-Serif" font-size="10.00">_Bool(*)(int16_t pinIndex,</text>
<text text-anchor="middle" x="82" y="-497.5" font-family="Helvetica,sans-Serif" font-size="10.00"> GPIO_PullUpDown_t pull)</text>
</g>
<!-- Node5&#45;&gt;Node4 -->
<g id="edge4" class="edge"><title>Node5&#45;&gt;Node4</title>
<path fill="none" stroke="#9a32cd" stroke-dasharray="5,2" d="M158.925,-499.862C192.616,-493.258 229.625,-479.554 252,-451.5 299.926,-391.41 220.138,-337.994 270,-279.5 273.289,-275.641 277.272,-272.524 281.651,-270.012"/>
<polygon fill="#9a32cd" stroke="#9a32cd" points="158.294,-496.419 149.062,-501.617 159.521,-503.311 158.294,-496.419"/>
<text text-anchor="middle" x="217" y="-495.5" font-family="Helvetica,sans-Serif" font-size="10.00"> setPull</text>
</g>
<!-- Node6 -->
<g id="node6" class="node"><title>Node6</title>
<polygon fill="white" stroke="#bfbfbf" points="10.5,-441.5 10.5,-471.5 153.5,-471.5 153.5,-441.5 10.5,-441.5"/>
<text text-anchor="start" x="18.5" y="-459.5" font-family="Helvetica,sans-Serif" font-size="10.00">_Bool(*)(int16_t pinIndex,</text>
<text text-anchor="middle" x="82" y="-448.5" font-family="Helvetica,sans-Serif" font-size="10.00"> GPIO_RiseTime_t riseTime)</text>
</g>
<!-- Node6&#45;&gt;Node4 -->
<g id="edge5" class="edge"><title>Node6&#45;&gt;Node4</title>
<path fill="none" stroke="#9a32cd" stroke-dasharray="5,2" d="M163.579,-444.473C196.106,-435.392 230.876,-419.457 252,-391.5 282.394,-351.275 236.249,-316.953 270,-279.5 273.479,-275.639 277.652,-272.528 282.208,-270.024"/>
<polygon fill="#9a32cd" stroke="#9a32cd" points="162.37,-441.171 153.574,-447.077 164.133,-447.945 162.37,-441.171"/>
<text text-anchor="middle" x="217" y="-439.5" font-family="Helvetica,sans-Serif" font-size="10.00"> setRiseTime</text>
</g>
<!-- Node7 -->
<g id="node7" class="node"><title>Node7</title>
<polygon fill="white" stroke="#bfbfbf" points="28.5,-392.5 28.5,-422.5 135.5,-422.5 135.5,-392.5 28.5,-392.5"/>
<text text-anchor="start" x="36.5" y="-410.5" font-family="Helvetica,sans-Serif" font-size="10.00">GPIO_RiseTime_t(*)</text>
<text text-anchor="middle" x="82" y="-399.5" font-family="Helvetica,sans-Serif" font-size="10.00">(int16_t pinIndex)</text>
</g>
<!-- Node7&#45;&gt;Node4 -->
<g id="edge6" class="edge"><title>Node7&#45;&gt;Node4</title>
<path fill="none" stroke="#9a32cd" stroke-dasharray="5,2" d="M145.505,-389.93C151.793,-387.879 158.049,-385.722 164,-383.5 204.248,-368.473 224.023,-376.104 252,-343.5 271.242,-321.076 248.993,-300.279 270,-279.5 273.875,-275.667 278.438,-272.585 283.347,-270.111"/>
<polygon fill="#9a32cd" stroke="#9a32cd" points="144.113,-386.699 135.638,-393.058 146.229,-393.372 144.113,-386.699"/>
<text text-anchor="middle" x="217" y="-379.5" font-family="Helvetica,sans-Serif" font-size="10.00"> getRiseTime</text>
</g>
<!-- Node8 -->
<g id="node8" class="node"><title>Node8</title>
<polygon fill="white" stroke="#bfbfbf" points="0,-343.5 0,-373.5 164,-373.5 164,-343.5 0,-343.5"/>
<text text-anchor="start" x="8" y="-361.5" font-family="Helvetica,sans-Serif" font-size="10.00">_Bool(*)(int16_t pinIndex,</text>
<text text-anchor="middle" x="82" y="-350.5" font-family="Helvetica,sans-Serif" font-size="10.00"> GPIO_OutputType_t outputType)</text>
</g>
<!-- Node8&#45;&gt;Node4 -->
<g id="edge7" class="edge"><title>Node8&#45;&gt;Node4</title>
<path fill="none" stroke="#9a32cd" stroke-dasharray="5,2" d="M142.237,-340.359C149.573,-338.071 156.963,-335.745 164,-333.5 203.232,-320.983 218.787,-328.846 252,-304.5 263.042,-296.405 258.739,-287.287 270,-279.5 275.63,-275.607 282.022,-272.51 288.604,-270.048"/>
<polygon fill="#9a32cd" stroke="#9a32cd" points="140.817,-337.135 132.307,-343.445 142.895,-343.82 140.817,-337.135"/>
<text text-anchor="middle" x="217" y="-331.5" font-family="Helvetica,sans-Serif" font-size="10.00"> setOutputType</text>
</g>
<!-- Node9 -->
<g id="node9" class="node"><title>Node9</title>
<polygon fill="white" stroke="#bfbfbf" points="29,-294.5 29,-324.5 135,-324.5 135,-294.5 29,-294.5"/>
<text text-anchor="start" x="37" y="-312.5" font-family="Helvetica,sans-Serif" font-size="10.00">GPIO_LineLevel_t(*)</text>
<text text-anchor="middle" x="82" y="-301.5" font-family="Helvetica,sans-Serif" font-size="10.00">(int16_t pinIndex)</text>
</g>
<!-- Node9&#45;&gt;Node4 -->
<g id="edge8" class="edge"><title>Node9&#45;&gt;Node4</title>
<path fill="none" stroke="#9a32cd" stroke-dasharray="5,2" d="M144.937,-297.714C189.43,-289.247 248.648,-277.979 290.221,-270.068"/>
<polygon fill="#9a32cd" stroke="#9a32cd" points="144.278,-294.276 135.109,-299.584 145.587,-301.153 144.278,-294.276"/>
<text text-anchor="middle" x="217" y="-292.5" font-family="Helvetica,sans-Serif" font-size="10.00"> getLineLevel</text>
</g>
<!-- Node10 -->
<g id="node10" class="node"><title>Node10</title>
<polygon fill="white" stroke="#bfbfbf" points="19,-245.5 19,-275.5 145,-275.5 145,-245.5 19,-245.5"/>
<text text-anchor="start" x="27" y="-263.5" font-family="Helvetica,sans-Serif" font-size="10.00">_Bool(*)(int16_t pinIndex,</text>
<text text-anchor="middle" x="82" y="-252.5" font-family="Helvetica,sans-Serif" font-size="10.00"> GPIO_LineLevel_t level)</text>
</g>
<!-- Node10&#45;&gt;Node4 -->
<g id="edge9" class="edge"><title>Node10&#45;&gt;Node4</title>
<path fill="none" stroke="#9a32cd" stroke-dasharray="5,2" d="M155.093,-260.5C191.62,-260.5 235.746,-260.5 271.786,-260.5"/>
<polygon fill="#9a32cd" stroke="#9a32cd" points="155.005,-257 145.005,-260.5 155.005,-264 155.005,-257"/>
<text text-anchor="middle" x="217" y="-263.5" font-family="Helvetica,sans-Serif" font-size="10.00"> setLineLevel</text>
</g>
<!-- Node11 -->
<g id="node11" class="node"><title>Node11</title>
<polygon fill="white" stroke="#bfbfbf" points="24,-196.5 24,-226.5 140,-226.5 140,-196.5 24,-196.5"/>
<text text-anchor="start" x="32" y="-214.5" font-family="Helvetica,sans-Serif" font-size="10.00">GPIO_OutputType_t(*)</text>
<text text-anchor="middle" x="82" y="-203.5" font-family="Helvetica,sans-Serif" font-size="10.00">(int16_t pinIndex)</text>
</g>
<!-- Node11&#45;&gt;Node4 -->
<g id="edge10" class="edge"><title>Node11&#45;&gt;Node4</title>
<path fill="none" stroke="#9a32cd" stroke-dasharray="5,2" d="M150.168,-224.281C194.079,-232.637 250.491,-243.372 290.47,-250.98"/>
<polygon fill="#9a32cd" stroke="#9a32cd" points="150.626,-220.806 140.148,-222.375 149.317,-227.682 150.626,-220.806"/>
<text text-anchor="middle" x="217" y="-246.5" font-family="Helvetica,sans-Serif" font-size="10.00"> getOutputType</text>
</g>
<!-- Node12 -->
<g id="node12" class="node"><title>Node12</title>
<polygon fill="white" stroke="#bfbfbf" points="19,-147.5 19,-177.5 145,-177.5 145,-147.5 19,-147.5"/>
<text text-anchor="start" x="27" y="-165.5" font-family="Helvetica,sans-Serif" font-size="10.00">_Bool(*)(int16_t pinIndex,</text>
<text text-anchor="middle" x="82" y="-154.5" font-family="Helvetica,sans-Serif" font-size="10.00"> GPIO_Direction_t dir)</text>
</g>
<!-- Node12&#45;&gt;Node4 -->
<g id="edge11" class="edge"><title>Node12&#45;&gt;Node4</title>
<path fill="none" stroke="#9a32cd" stroke-dasharray="5,2" d="M145.315,-180.616C151.64,-182.559 157.957,-184.542 164,-186.5 203.447,-199.283 213.734,-201.524 252,-217.5 276.906,-227.898 304.78,-241.841 322.472,-250.992"/>
<polygon fill="#9a32cd" stroke="#9a32cd" points="145.993,-177.164 135.407,-177.606 143.957,-183.862 145.993,-177.164"/>
<text text-anchor="middle" x="217" y="-220.5" font-family="Helvetica,sans-Serif" font-size="10.00"> setPinDirection</text>
</g>
<!-- Node13 -->
<g id="node13" class="node"><title>Node13</title>
<polygon fill="white" stroke="#bfbfbf" points="30,-98.5 30,-128.5 134,-128.5 134,-98.5 30,-98.5"/>
<text text-anchor="start" x="38" y="-116.5" font-family="Helvetica,sans-Serif" font-size="10.00">GPIO_Direction_t(*)</text>
<text text-anchor="middle" x="82" y="-105.5" font-family="Helvetica,sans-Serif" font-size="10.00">(int16_t pinIndex)</text>
</g>
<!-- Node13&#45;&gt;Node4 -->
<g id="edge12" class="edge"><title>Node13&#45;&gt;Node4</title>
<path fill="none" stroke="#9a32cd" stroke-dasharray="5,2" d="M144.2,-130.579C150.929,-132.769 157.641,-135.092 164,-137.5 204.351,-152.782 216.186,-154.435 252,-178.5 284.685,-200.463 317.093,-234.391 332.003,-250.866"/>
<polygon fill="#9a32cd" stroke="#9a32cd" points="144.959,-127.148 134.369,-127.472 142.849,-133.823 144.959,-127.148"/>
<text text-anchor="middle" x="217" y="-181.5" font-family="Helvetica,sans-Serif" font-size="10.00"> getPinDirection</text>
</g>
<!-- Node14 -->
<g id="node14" class="node"><title>Node14</title>
<polygon fill="white" stroke="#bfbfbf" points="22.5,-49.5 22.5,-79.5 141.5,-79.5 141.5,-49.5 22.5,-49.5"/>
<text text-anchor="start" x="30.5" y="-67.5" font-family="Helvetica,sans-Serif" font-size="10.00">GPIO_PullUpDown_t(*)</text>
<text text-anchor="middle" x="82" y="-56.5" font-family="Helvetica,sans-Serif" font-size="10.00">(int16_t pinIndex)</text>
</g>
<!-- Node14&#45;&gt;Node4 -->
<g id="edge13" class="edge"><title>Node14&#45;&gt;Node4</title>
<path fill="none" stroke="#9a32cd" stroke-dasharray="5,2" d="M151.387,-79.8282C184.593,-89.9287 223.391,-105.949 252,-130.5 294.061,-166.594 325.065,-227.189 336.099,-250.732"/>
<polygon fill="#9a32cd" stroke="#9a32cd" points="152.312,-76.4523 141.732,-77.0076 150.349,-83.1714 152.312,-76.4523"/>
<text text-anchor="middle" x="217" y="-133.5" font-family="Helvetica,sans-Serif" font-size="10.00"> getPull</text>
</g>
<!-- Node15 -->
<g id="node15" class="node"><title>Node15</title>
<polygon fill="white" stroke="#bfbfbf" points="13,-0.5 13,-30.5 151,-30.5 151,-0.5 13,-0.5"/>
<text text-anchor="start" x="21" y="-18.5" font-family="Helvetica,sans-Serif" font-size="10.00">_Bool(*)(GPIO_PinInitStruct</text>
<text text-anchor="middle" x="82" y="-7.5" font-family="Helvetica,sans-Serif" font-size="10.00">_t *initStruct)</text>
</g>
<!-- Node15&#45;&gt;Node4 -->
<g id="edge14" class="edge"><title>Node15&#45;&gt;Node4</title>
<path fill="none" stroke="#9a32cd" stroke-dasharray="5,2" d="M160.85,-29.2928C192.367,-38.2388 227.11,-52.8318 252,-76.5 306.457,-128.285 331.412,-220.487 338.382,-250.651"/>
<polygon fill="#9a32cd" stroke="#9a32cd" points="161.753,-25.9113 151.187,-26.6939 159.935,-32.6711 161.753,-25.9113"/>
<text text-anchor="middle" x="217" y="-79.5" font-family="Helvetica,sans-Serif" font-size="10.00"> reconfig</text>
</g>
</g>
</svg>
