<?xml version="1.0" encoding="UTF-8" standalone="no"?>
<!DOCTYPE svg PUBLIC "-//W3C//DTD SVG 1.1//EN"
 "http://www.w3.org/Graphics/SVG/1.1/DTD/svg11.dtd">
<!-- Generated by graphviz version 2.38.0 (20140413.2041)
 -->
<!-- Title: GPIO_Pin_t Pages: 1 -->
<svg width="124pt" height="106pt"
 viewBox="0.00 0.00 123.50 106.00" xmlns="http://www.w3.org/2000/svg" xmlns:xlink="http://www.w3.org/1999/xlink">
<g id="graph0" class="graph" transform="scale(1 1) rotate(0) translate(4 102)">
<title>GPIO_Pin_t</title>
<polygon fill="white" stroke="none" points="-4,4 -4,-102 119.5,-102 119.5,4 -4,4"/>
<!-- Node1 -->
<g id="node1" class="node"><title>Node1</title>
<polygon fill="#bfbfbf" stroke="black" points="24,-0.5 24,-19.5 93,-19.5 93,-0.5 24,-0.5"/>
<text text-anchor="middle" x="58.5" y="-7.5" font-family="Helvetica,sans-Serif" font-size="10.00">GPIO_Pin_t</text>
</g>
<!-- Node2 -->
<g id="node2" class="node"><title>Node2</title>
<polygon fill="white" stroke="#bfbfbf" points="0,-78.5 0,-97.5 51,-97.5 51,-78.5 0,-78.5"/>
<text text-anchor="middle" x="25.5" y="-85.5" font-family="Helvetica,sans-Serif" font-size="10.00">uint16_t</text>
</g>
<!-- Node2&#45;&gt;Node1 -->
<g id="edge1" class="edge"><title>Node2&#45;&gt;Node1</title>
<path fill="none" stroke="#9a32cd" stroke-dasharray="5,2" d="M33.4572,-68.6744C40.2142,-53.1127 49.6108,-31.4722 54.7586,-19.6165"/>
<polygon fill="#9a32cd" stroke="#9a32cd" points="30.058,-67.7152 29.2855,-78.2818 36.4788,-70.5032 30.058,-67.7152"/>
<text text-anchor="middle" x="53.5" y="-46.5" font-family="Helvetica,sans-Serif" font-size="10.00"> bit</text>
</g>
<!-- Node3 -->
<g id="node3" class="node"><title>Node3</title>
<polygon fill="white" stroke="#bfbfbf" points="69.5,-78.5 69.5,-97.5 115.5,-97.5 115.5,-78.5 69.5,-78.5"/>
<text text-anchor="middle" x="92.5" y="-85.5" font-family="Helvetica,sans-Serif" font-size="10.00">uint8_t</text>
</g>
<!-- Node3&#45;&gt;Node1 -->
<g id="edge2" class="edge"><title>Node3&#45;&gt;Node1</title>
<path fill="none" stroke="#9a32cd" stroke-dasharray="5,2" d="M84.5018,-69.1216C77.5265,-53.5297 67.7096,-31.5862 62.3547,-19.6165"/>
<polygon fill="#9a32cd" stroke="#9a32cd" points="81.3212,-70.5829 88.5998,-78.2818 87.7109,-67.7243 81.3212,-70.5829"/>
<text text-anchor="middle" x="92.5" y="-52" font-family="Helvetica,sans-Serif" font-size="10.00"> port</text>
<text text-anchor="middle" x="92.5" y="-41" font-family="Helvetica,sans-Serif" font-size="10.00">block</text>
</g>
</g>
</svg>
