<?xml version="1.0" encoding="UTF-8" standalone="no"?>
<!DOCTYPE svg PUBLIC "-//W3C//DTD SVG 1.1//EN"
 "http://www.w3.org/Graphics/SVG/1.1/DTD/svg11.dtd">
<!-- Generated by graphviz version 2.38.0 (20140413.2041)
 -->
<!-- Title: HeapStruct Pages: 1 -->
<svg width="157pt" height="106pt"
 viewBox="0.00 0.00 156.50 106.00" xmlns="http://www.w3.org/2000/svg" xmlns:xlink="http://www.w3.org/1999/xlink">
<g id="graph0" class="graph" transform="scale(1 1) rotate(0) translate(4 102)">
<title>HeapStruct</title>
<polygon fill="white" stroke="none" points="-4,4 -4,-102 152.5,-102 152.5,4 -4,4"/>
<!-- Node1 -->
<g id="node1" class="node"><title>Node1</title>
<polygon fill="#bfbfbf" stroke="black" points="47.5,-0.5 47.5,-19.5 113.5,-19.5 113.5,-0.5 47.5,-0.5"/>
<text text-anchor="middle" x="80.5" y="-7.5" font-family="Helvetica,sans-Serif" font-size="10.00">HeapStruct</text>
</g>
<!-- Node2 -->
<g id="node2" class="node"><title>Node2</title>
<polygon fill="white" stroke="#bfbfbf" points="0,-78.5 0,-97.5 81,-97.5 81,-78.5 0,-78.5"/>
<text text-anchor="middle" x="40.5" y="-85.5" font-family="Helvetica,sans-Serif" font-size="10.00">ElementType *</text>
</g>
<!-- Node2&#45;&gt;Node1 -->
<g id="edge1" class="edge"><title>Node2&#45;&gt;Node1</title>
<path fill="none" stroke="#9a32cd" stroke-dasharray="5,2" d="M43.1116,-68.133C45.005,-58.6335 48.1976,-47.2102 53.5,-38 57.5351,-30.991 63.8563,-24.5304 69.3682,-19.6874"/>
<polygon fill="#9a32cd" stroke="#9a32cd" points="39.6334,-67.7129 41.4371,-78.1531 46.5376,-68.8668 39.6334,-67.7129"/>
<text text-anchor="middle" x="76" y="-46.5" font-family="Helvetica,sans-Serif" font-size="10.00"> Elements</text>
</g>
<!-- Node3 -->
<g id="node3" class="node"><title>Node3</title>
<polygon fill="white" stroke="#bfbfbf" points="99,-78.5 99,-97.5 142,-97.5 142,-78.5 99,-78.5"/>
<text text-anchor="middle" x="120.5" y="-85.5" font-family="Helvetica,sans-Serif" font-size="10.00">size_t</text>
</g>
<!-- Node3&#45;&gt;Node1 -->
<g id="edge2" class="edge"><title>Node3&#45;&gt;Node1</title>
<path fill="none" stroke="#9a32cd" stroke-dasharray="5,2" d="M113.257,-68.9769C109.264,-59.5635 104.007,-47.9615 98.5,-38 95.0112,-31.689 90.5112,-24.939 86.8834,-19.7668"/>
<polygon fill="#9a32cd" stroke="#9a32cd" points="110.125,-70.5621 117.175,-78.4708 116.596,-67.8918 110.125,-70.5621"/>
<text text-anchor="middle" x="128.5" y="-52" font-family="Helvetica,sans-Serif" font-size="10.00"> Size</text>
<text text-anchor="middle" x="128.5" y="-41" font-family="Helvetica,sans-Serif" font-size="10.00">Capacity</text>
</g>
</g>
</svg>
