<?xml version="1.0" encoding="UTF-8" standalone="no"?>
<!DOCTYPE svg PUBLIC "-//W3C//DTD SVG 1.1//EN"
 "http://www.w3.org/Graphics/SVG/1.1/DTD/svg11.dtd">
<!-- Generated by graphviz version 2.38.0 (20140413.2041)
 -->
<!-- Title: prisml Pages: 1 -->
<svg width="58pt" height="117pt"
 viewBox="0.00 0.00 57.50 117.00" xmlns="http://www.w3.org/2000/svg" xmlns:xlink="http://www.w3.org/1999/xlink">
<g id="graph0" class="graph" transform="scale(1 1) rotate(0) translate(4 113)">
<title>prisml</title>
<polygon fill="white" stroke="none" points="-4,4 -4,-113 53.5,-113 53.5,4 -4,4"/>
<!-- Node1 -->
<g id="node1" class="node"><title>Node1</title>
<polygon fill="#bfbfbf" stroke="black" points="1,-0.5 1,-19.5 44,-19.5 44,-0.5 1,-0.5"/>
<text text-anchor="middle" x="22.5" y="-7.5" font-family="Helvetica,sans-Serif" font-size="10.00">prisml</text>
</g>
<!-- Node2 -->
<g id="node2" class="node"><title>Node2</title>
<polygon fill="white" stroke="#bfbfbf" points="0,-89.5 0,-108.5 45,-108.5 45,-89.5 0,-89.5"/>
<text text-anchor="middle" x="22.5" y="-96.5" font-family="Helvetica,sans-Serif" font-size="10.00">double</text>
</g>
<!-- Node2&#45;&gt;Node1 -->
<g id="edge1" class="edge"><title>Node2&#45;&gt;Node1</title>
<path fill="none" stroke="#9a32cd" stroke-dasharray="5,2" d="M22.5,-79.1946C22.5,-60.7379 22.5,-33.412 22.5,-19.6249"/>
<polygon fill="#9a32cd" stroke="#9a32cd" points="19.0001,-79.34 22.5,-89.34 26.0001,-79.3401 19.0001,-79.34"/>
<text text-anchor="middle" x="36" y="-63" font-family="Helvetica,sans-Serif" font-size="10.00"> width</text>
<text text-anchor="middle" x="36" y="-52" font-family="Helvetica,sans-Serif" font-size="10.00">height</text>
<text text-anchor="middle" x="36" y="-41" font-family="Helvetica,sans-Serif" font-size="10.00">depth</text>
</g>
</g>
</svg>
