<?xml version="1.0" encoding="UTF-8" standalone="no"?>
<!DOCTYPE svg PUBLIC "-//W3C//DTD SVG 1.1//EN"
 "http://www.w3.org/Graphics/SVG/1.1/DTD/svg11.dtd">
<!-- Generated by graphviz version 2.38.0 (20140413.2041)
 -->
<!-- Title: aminoacid Pages: 1 -->
<svg width="71pt" height="128pt"
 viewBox="0.00 0.00 70.50 128.00" xmlns="http://www.w3.org/2000/svg" xmlns:xlink="http://www.w3.org/1999/xlink">
<g id="graph0" class="graph" transform="scale(1 1) rotate(0) translate(4 124)">
<title>aminoacid</title>
<polygon fill="white" stroke="none" points="-4,4 -4,-124 66.5,-124 66.5,4 -4,4"/>
<!-- Node1 -->
<g id="node1" class="node"><title>Node1</title>
<polygon fill="#bfbfbf" stroke="black" points="0,-0.5 0,-19.5 61,-19.5 61,-0.5 0,-0.5"/>
<text text-anchor="middle" x="30.5" y="-7.5" font-family="Helvetica,sans-Serif" font-size="10.00">aminoacid</text>
</g>
<!-- Node2 -->
<g id="node2" class="node"><title>Node2</title>
<polygon fill="white" stroke="#bfbfbf" points="13,-100.5 13,-119.5 48,-119.5 48,-100.5 13,-100.5"/>
<text text-anchor="middle" x="30.5" y="-107.5" font-family="Helvetica,sans-Serif" font-size="10.00">char</text>
</g>
<!-- Node2&#45;&gt;Node1 -->
<g id="edge1" class="edge"><title>Node2&#45;&gt;Node1</title>
<path fill="none" stroke="#9a32cd" stroke-dasharray="5,2" d="M30.5,-90.2203C30.5,-68.9514 30.5,-35.2197 30.5,-19.5374"/>
<polygon fill="#9a32cd" stroke="#9a32cd" points="27.0001,-90.3031 30.5,-100.303 34.0001,-90.3032 27.0001,-90.3031"/>
<text text-anchor="middle" x="46.5" y="-74" font-family="Helvetica,sans-Serif" font-size="10.00"> sym</text>
<text text-anchor="middle" x="46.5" y="-63" font-family="Helvetica,sans-Serif" font-size="10.00">symbol</text>
<text text-anchor="middle" x="46.5" y="-52" font-family="Helvetica,sans-Serif" font-size="10.00">smiles</text>
<text text-anchor="middle" x="46.5" y="-41" font-family="Helvetica,sans-Serif" font-size="10.00">name</text>
</g>
</g>
</svg>
