<?xml version="1.0" encoding="UTF-8" standalone="no"?>
<!DOCTYPE svg PUBLIC "-//W3C//DTD SVG 1.1//EN"
 "http://www.w3.org/Graphics/SVG/1.1/DTD/svg11.dtd">
<!-- Generated by graphviz version 2.38.0 (20140413.2041)
 -->
<!-- Title: USARTDriver_t Pages: 1 -->
<svg width="127pt" height="150pt"
 viewBox="0.00 0.00 127.00 150.00" xmlns="http://www.w3.org/2000/svg" xmlns:xlink="http://www.w3.org/1999/xlink">
<g id="graph0" class="graph" transform="scale(1 1) rotate(0) translate(4 146)">
<title>USARTDriver_t</title>
<polygon fill="white" stroke="none" points="-4,4 -4,-146 123,-146 123,4 -4,4"/>
<!-- Node1 -->
<g id="node1" class="node"><title>Node1</title>
<polygon fill="#bfbfbf" stroke="black" points="0,-0.5 0,-19.5 86,-19.5 86,-0.5 0,-0.5"/>
<text text-anchor="middle" x="43" y="-7.5" font-family="Helvetica,sans-Serif" font-size="10.00">USARTDriver_t</text>
</g>
<!-- Node2 -->
<g id="node2" class="node"><title>Node2</title>
<polygon fill="white" stroke="#bfbfbf" points="17.5,-122.5 17.5,-141.5 68.5,-141.5 68.5,-122.5 17.5,-122.5"/>
<text text-anchor="middle" x="43" y="-129.5" font-family="Helvetica,sans-Serif" font-size="10.00">uint16_t</text>
</g>
<!-- Node2&#45;&gt;Node1 -->
<g id="edge1" class="edge"><title>Node2&#45;&gt;Node1</title>
<path fill="none" stroke="#9a32cd" stroke-dasharray="5,2" d="M43,-112.145C43,-85.7231 43,-38.7637 43,-19.5519"/>
<polygon fill="#9a32cd" stroke="#9a32cd" points="39.5001,-112.37 43,-122.37 46.5001,-112.37 39.5001,-112.37"/>
<text text-anchor="middle" x="81" y="-96" font-family="Helvetica,sans-Serif" font-size="10.00"> readBytes</text>
<text text-anchor="middle" x="81" y="-85" font-family="Helvetica,sans-Serif" font-size="10.00">readLineTruncate</text>
<text text-anchor="middle" x="81" y="-74" font-family="Helvetica,sans-Serif" font-size="10.00">writeLine</text>
<text text-anchor="middle" x="81" y="-63" font-family="Helvetica,sans-Serif" font-size="10.00">readLine</text>
<text text-anchor="middle" x="81" y="-52" font-family="Helvetica,sans-Serif" font-size="10.00">writeBytes</text>
<text text-anchor="middle" x="81" y="-41" font-family="Helvetica,sans-Serif" font-size="10.00">rxBytesAvailable</text>
</g>
</g>
</svg>
