<?xml version="1.0" encoding="UTF-8" standalone="no"?>
<!DOCTYPE svg PUBLIC "-//W3C//DTD SVG 1.1//EN"
 "http://www.w3.org/Graphics/SVG/1.1/DTD/svg11.dtd">
<!-- Generated by graphviz version 2.38.0 (20140413.2041)
 -->
<!-- Title: subatomicparticle Pages: 1 -->
<svg width="183pt" height="106pt"
 viewBox="0.00 0.00 183.00 106.00" xmlns="http://www.w3.org/2000/svg" xmlns:xlink="http://www.w3.org/1999/xlink">
<g id="graph0" class="graph" transform="scale(1 1) rotate(0) translate(4 102)">
<title>subatomicparticle</title>
<polygon fill="white" stroke="none" points="-4,4 -4,-102 179,-102 179,4 -4,4"/>
<!-- Node1 -->
<g id="node1" class="node"><title>Node1</title>
<polygon fill="#bfbfbf" stroke="black" points="34,-0.5 34,-19.5 127,-19.5 127,-0.5 34,-0.5"/>
<text text-anchor="middle" x="80.5" y="-7.5" font-family="Helvetica,sans-Serif" font-size="10.00">subatomicparticle</text>
</g>
<!-- Node2 -->
<g id="node2" class="node"><title>Node2</title>
<polygon fill="white" stroke="#bfbfbf" points="0,-78.5 0,-97.5 45,-97.5 45,-78.5 0,-78.5"/>
<text text-anchor="middle" x="22.5" y="-85.5" font-family="Helvetica,sans-Serif" font-size="10.00">double</text>
</g>
<!-- Node2&#45;&gt;Node1 -->
<g id="edge1" class="edge"><title>Node2&#45;&gt;Node1</title>
<path fill="none" stroke="#9a32cd" stroke-dasharray="5,2" d="M31.4624,-69.1278C36.6918,-59.4741 43.7714,-47.6015 51.5,-38 56.9349,-31.2481 64.045,-24.6019 69.8647,-19.5929"/>
<polygon fill="#9a32cd" stroke="#9a32cd" points="28.2537,-67.7114 26.7329,-78.1965 34.4604,-70.9483 28.2537,-67.7114"/>
<text text-anchor="middle" x="64" y="-52" font-family="Helvetica,sans-Serif" font-size="10.00"> spin</text>
<text text-anchor="middle" x="64" y="-41" font-family="Helvetica,sans-Serif" font-size="10.00">parity</text>
</g>
<!-- Node3 -->
<g id="node3" class="node"><title>Node3</title>
<polygon fill="white" stroke="#bfbfbf" points="63,-78.5 63,-97.5 98,-97.5 98,-78.5 63,-78.5"/>
<text text-anchor="middle" x="80.5" y="-85.5" font-family="Helvetica,sans-Serif" font-size="10.00">char</text>
</g>
<!-- Node3&#45;&gt;Node1 -->
<g id="edge2" class="edge"><title>Node3&#45;&gt;Node1</title>
<path fill="none" stroke="#9a32cd" stroke-dasharray="5,2" d="M80.5,-68.2239C80.5,-52.6974 80.5,-31.3582 80.5,-19.6165"/>
<polygon fill="#9a32cd" stroke="#9a32cd" points="77.0001,-68.2818 80.5,-78.2818 84.0001,-68.2819 77.0001,-68.2818"/>
<text text-anchor="middle" x="98" y="-52" font-family="Helvetica,sans-Serif" font-size="10.00"> symbol</text>
<text text-anchor="middle" x="98" y="-41" font-family="Helvetica,sans-Serif" font-size="10.00">name</text>
</g>
<!-- Node4 -->
<g id="node4" class="node"><title>Node4</title>
<polygon fill="white" stroke="#bfbfbf" points="116,-78.5 116,-97.5 175,-97.5 175,-78.5 116,-78.5"/>
<text text-anchor="middle" x="145.5" y="-85.5" font-family="Helvetica,sans-Serif" font-size="10.00">signed int</text>
</g>
<!-- Node4&#45;&gt;Node1 -->
<g id="edge3" class="edge"><title>Node4&#45;&gt;Node1</title>
<path fill="none" stroke="#9a32cd" stroke-dasharray="5,2" d="M138.449,-68.9829C134.003,-59.1147 127.572,-47.0824 119.5,-38 112.935,-30.6134 103.956,-24.2191 96.2676,-19.5099"/>
<polygon fill="#9a32cd" stroke="#9a32cd" points="135.251,-70.4053 142.351,-78.2689 141.704,-67.6938 135.251,-70.4053"/>
<text text-anchor="middle" x="150" y="-46.5" font-family="Helvetica,sans-Serif" font-size="10.00"> charge</text>
</g>
</g>
</svg>
