<?xml version="1.0" encoding="UTF-8" standalone="no"?>
<!DOCTYPE svg PUBLIC "-//W3C//DTD SVG 1.1//EN"
 "http://www.w3.org/Graphics/SVG/1.1/DTD/svg11.dtd">
<!-- Generated by graphviz version 2.38.0 (20140413.2041)
 -->
<!-- Title: doublepair_t Pages: 1 -->
<svg width="77pt" height="106pt"
 viewBox="0.00 0.00 77.00 106.00" xmlns="http://www.w3.org/2000/svg" xmlns:xlink="http://www.w3.org/1999/xlink">
<g id="graph0" class="graph" transform="scale(1 1) rotate(0) translate(4 102)">
<title>doublepair_t</title>
<polygon fill="white" stroke="none" points="-4,4 -4,-102 73,-102 73,4 -4,4"/>
<!-- Node1 -->
<g id="node1" class="node"><title>Node1</title>
<polygon fill="#bfbfbf" stroke="black" points="0,-0.5 0,-19.5 69,-19.5 69,-0.5 0,-0.5"/>
<text text-anchor="middle" x="34.5" y="-7.5" font-family="Helvetica,sans-Serif" font-size="10.00">doublepair_t</text>
</g>
<!-- Node2 -->
<g id="node2" class="node"><title>Node2</title>
<polygon fill="white" stroke="#bfbfbf" points="12,-78.5 12,-97.5 57,-97.5 57,-78.5 12,-78.5"/>
<text text-anchor="middle" x="34.5" y="-85.5" font-family="Helvetica,sans-Serif" font-size="10.00">double</text>
</g>
<!-- Node2&#45;&gt;Node1 -->
<g id="edge1" class="edge"><title>Node2&#45;&gt;Node1</title>
<path fill="none" stroke="#9a32cd" stroke-dasharray="5,2" d="M34.5,-68.2239C34.5,-52.6974 34.5,-31.3582 34.5,-19.6165"/>
<polygon fill="#9a32cd" stroke="#9a32cd" points="31.0001,-68.2818 34.5,-78.2818 38.0001,-68.2819 31.0001,-68.2818"/>
<text text-anchor="middle" x="39" y="-52" font-family="Helvetica,sans-Serif" font-size="10.00"> x</text>
<text text-anchor="middle" x="39" y="-41" font-family="Helvetica,sans-Serif" font-size="10.00">y</text>
</g>
</g>
</svg>
