<?xml version="1.0" encoding="UTF-8" standalone="no"?>
<!DOCTYPE svg PUBLIC "-//W3C//DTD SVG 1.1//EN"
 "http://www.w3.org/Graphics/SVG/1.1/DTD/svg11.dtd">
<!-- Generated by graphviz version 2.38.0 (20140413.2041)
 -->
<!-- Title: codon Pages: 1 -->
<svg width="139pt" height="195pt"
 viewBox="0.00 0.00 139.00 195.00" xmlns="http://www.w3.org/2000/svg" xmlns:xlink="http://www.w3.org/1999/xlink">
<g id="graph0" class="graph" transform="scale(1 1) rotate(0) translate(4 191)">
<title>codon</title>
<polygon fill="white" stroke="none" points="-4,4 -4,-191 135,-191 135,4 -4,4"/>
<!-- Node1 -->
<g id="node1" class="node"><title>Node1</title>
<polygon fill="#bfbfbf" stroke="black" points="0,-0.5 0,-19.5 43,-19.5 43,-0.5 0,-0.5"/>
<text text-anchor="middle" x="21.5" y="-7.5" font-family="Helvetica,sans-Serif" font-size="10.00">codon</text>
</g>
<!-- Node2 -->
<g id="node2" class="node"><title>Node2</title>
<polygon fill="white" stroke="#bfbfbf" points="20,-167.5 20,-186.5 55,-186.5 55,-167.5 20,-167.5"/>
<text text-anchor="middle" x="37.5" y="-174.5" font-family="Helvetica,sans-Serif" font-size="10.00">char</text>
</g>
<!-- Node2&#45;&gt;Node1 -->
<g id="edge1" class="edge"><title>Node2&#45;&gt;Node1</title>
<path fill="none" stroke="#9a32cd" stroke-dasharray="5,2" d="M31.565,-157.61C26.1439,-139.782 18.527,-111.86 15.5,-87 14.4256,-78.1763 15.0258,-75.8762 15.5,-67 16.3971,-50.206 18.7972,-30.6996 20.2757,-19.7067"/>
<polygon fill="#9a32cd" stroke="#9a32cd" points="28.2674,-158.792 34.596,-167.289 34.9476,-156.7 28.2674,-158.792"/>
<text text-anchor="middle" x="38.5" y="-74.5" font-family="Helvetica,sans-Serif" font-size="10.00"> sequence</text>
</g>
<!-- Node3 -->
<g id="node3" class="node"><title>Node3</title>
<g id="a_node3"><a xlink:href="chemistry__types_8h.html#structaminoacid" target="_top" xlink:title="aminoacid">
<polygon fill="white" stroke="black" points="70,-67.5 70,-86.5 131,-86.5 131,-67.5 70,-67.5"/>
<text text-anchor="middle" x="100.5" y="-74.5" font-family="Helvetica,sans-Serif" font-size="10.00">aminoacid</text>
</a>
</g>
</g>
<!-- Node2&#45;&gt;Node3 -->
<g id="edge3" class="edge"><title>Node2&#45;&gt;Node3</title>
<path fill="none" stroke="#9a32cd" stroke-dasharray="5,2" d="M48.6405,-158.67C62.2401,-137.515 84.6979,-102.581 95.0117,-86.5374"/>
<polygon fill="#9a32cd" stroke="#9a32cd" points="45.5543,-156.999 43.0908,-167.303 51.4426,-160.784 45.5543,-156.999"/>
<text text-anchor="middle" x="97.5" y="-141" font-family="Helvetica,sans-Serif" font-size="10.00"> sym</text>
<text text-anchor="middle" x="97.5" y="-130" font-family="Helvetica,sans-Serif" font-size="10.00">symbol</text>
<text text-anchor="middle" x="97.5" y="-119" font-family="Helvetica,sans-Serif" font-size="10.00">smiles</text>
<text text-anchor="middle" x="97.5" y="-108" font-family="Helvetica,sans-Serif" font-size="10.00">name</text>
</g>
<!-- Node3&#45;&gt;Node1 -->
<g id="edge2" class="edge"><title>Node3&#45;&gt;Node1</title>
<path fill="none" stroke="#9a32cd" stroke-dasharray="5,2" d="M81.9209,-60.7134C66.3562,-47.907 44.6997,-30.0884 31.9855,-19.6273"/>
<polygon fill="#9a32cd" stroke="#9a32cd" points="79.8998,-63.5829 89.8457,-67.2338 84.3474,-58.1774 79.8998,-63.5829"/>
<text text-anchor="middle" x="80.5" y="-41" font-family="Helvetica,sans-Serif" font-size="10.00"> amino</text>
</g>
</g>
</svg>
