<?xml version="1.0" encoding="UTF-8" standalone="no"?>
<!DOCTYPE svg PUBLIC "-//W3C//DTD SVG 1.1//EN"
 "http://www.w3.org/Graphics/SVG/1.1/DTD/svg11.dtd">
<!-- Generated by graphviz version 2.38.0 (20140413.2041)
 -->
<!-- Title: GPIO_PinInitStruct_t Pages: 1 -->
<svg width="432pt" height="218pt"
 viewBox="0.00 0.00 432.00 218.00" xmlns="http://www.w3.org/2000/svg" xmlns:xlink="http://www.w3.org/1999/xlink">
<g id="graph0" class="graph" transform="scale(1 1) rotate(0) translate(4 214)">
<title>GPIO_PinInitStruct_t</title>
<polygon fill="white" stroke="none" points="-4,4 -4,-214 428,-214 428,4 -4,4"/>
<!-- Node1 -->
<g id="node1" class="node"><title>Node1</title>
<polygon fill="#bfbfbf" stroke="black" points="315,-95.5 315,-114.5 424,-114.5 424,-95.5 315,-95.5"/>
<text text-anchor="middle" x="369.5" y="-102.5" font-family="Helvetica,sans-Serif" font-size="10.00">GPIO_PinInitStruct_t</text>
</g>
<!-- Node2 -->
<g id="node2" class="node"><title>Node2</title>
<polygon fill="white" stroke="#bfbfbf" points="118,-190.5 118,-209.5 214,-209.5 214,-190.5 118,-190.5"/>
<text text-anchor="middle" x="166" y="-197.5" font-family="Helvetica,sans-Serif" font-size="10.00">GPIO_LineLevel_t</text>
</g>
<!-- Node2&#45;&gt;Node1 -->
<g id="edge1" class="edge"><title>Node2&#45;&gt;Node1</title>
<path fill="none" stroke="#9a32cd" stroke-dasharray="5,2" d="M223.565,-187.94C247.056,-181.698 274.116,-172.854 297,-161 321.361,-148.381 345.637,-127.045 358.69,-114.672"/>
<polygon fill="#9a32cd" stroke="#9a32cd" points="222.558,-184.585 213.739,-190.457 224.295,-191.366 222.558,-184.585"/>
<text text-anchor="middle" x="268" y="-185" font-family="Helvetica,sans-Serif" font-size="10.00"> initLineLevel</text>
</g>
<!-- Node3 -->
<g id="node3" class="node"><title>Node3</title>
<g id="a_node3"><a xlink:href="extra__datatypes_8h.html#structGPIO__Pin__t" target="_top" xlink:title="GPIO_Pin_t">
<polygon fill="white" stroke="black" points="131.5,-152.5 131.5,-171.5 200.5,-171.5 200.5,-152.5 131.5,-152.5"/>
<text text-anchor="middle" x="166" y="-159.5" font-family="Helvetica,sans-Serif" font-size="10.00">GPIO_Pin_t</text>
</a>
</g>
</g>
<!-- Node3&#45;&gt;Node1 -->
<g id="edge2" class="edge"><title>Node3&#45;&gt;Node1</title>
<path fill="none" stroke="#9a32cd" stroke-dasharray="5,2" d="M210.789,-153.427C236.184,-148.076 268.65,-140.582 297,-132 313.51,-127.003 331.69,-120.118 345.586,-114.552"/>
<polygon fill="#9a32cd" stroke="#9a32cd" points="209.805,-150.057 200.724,-155.515 211.226,-156.911 209.805,-150.057"/>
<text text-anchor="middle" x="268" y="-149" font-family="Helvetica,sans-Serif" font-size="10.00"> pin</text>
</g>
<!-- Node4 -->
<g id="node4" class="node"><title>Node4</title>
<polygon fill="white" stroke="#bfbfbf" points="0,-174.5 0,-193.5 51,-193.5 51,-174.5 0,-174.5"/>
<text text-anchor="middle" x="25.5" y="-181.5" font-family="Helvetica,sans-Serif" font-size="10.00">uint16_t</text>
</g>
<!-- Node4&#45;&gt;Node3 -->
<g id="edge3" class="edge"><title>Node4&#45;&gt;Node3</title>
<path fill="none" stroke="#9a32cd" stroke-dasharray="5,2" d="M61.2639,-178.478C82.7183,-175.07 110.102,-170.72 131.347,-167.346"/>
<polygon fill="#9a32cd" stroke="#9a32cd" points="60.5881,-175.041 51.261,-180.067 61.6863,-181.955 60.5881,-175.041"/>
<text text-anchor="middle" x="81" y="-179" font-family="Helvetica,sans-Serif" font-size="10.00"> bit</text>
</g>
<!-- Node5 -->
<g id="node5" class="node"><title>Node5</title>
<polygon fill="white" stroke="#bfbfbf" points="2.5,-129.5 2.5,-148.5 48.5,-148.5 48.5,-129.5 2.5,-129.5"/>
<text text-anchor="middle" x="25.5" y="-136.5" font-family="Helvetica,sans-Serif" font-size="10.00">uint8_t</text>
</g>
<!-- Node5&#45;&gt;Node3 -->
<g id="edge4" class="edge"><title>Node5&#45;&gt;Node3</title>
<path fill="none" stroke="#9a32cd" stroke-dasharray="5,2" d="M58.7115,-142.312C69.626,-143.584 81.8692,-145.174 93,-147 105.6,-149.067 119.343,-151.807 131.413,-154.38"/>
<polygon fill="#9a32cd" stroke="#9a32cd" points="59.0617,-138.829 48.7339,-141.193 58.2816,-145.786 59.0617,-138.829"/>
<text text-anchor="middle" x="81" y="-161" font-family="Helvetica,sans-Serif" font-size="10.00"> port</text>
<text text-anchor="middle" x="81" y="-150" font-family="Helvetica,sans-Serif" font-size="10.00">block</text>
</g>
<!-- Node6 -->
<g id="node6" class="node"><title>Node6</title>
<polygon fill="white" stroke="#bfbfbf" points="117.5,-114.5 117.5,-133.5 214.5,-133.5 214.5,-114.5 117.5,-114.5"/>
<text text-anchor="middle" x="166" y="-121.5" font-family="Helvetica,sans-Serif" font-size="10.00">GPIO_RiseTime_t</text>
</g>
<!-- Node6&#45;&gt;Node1 -->
<g id="edge5" class="edge"><title>Node6&#45;&gt;Node1</title>
<path fill="none" stroke="#9a32cd" stroke-dasharray="5,2" d="M224.898,-118.541C253.175,-115.874 286.987,-112.686 314.696,-110.073"/>
<polygon fill="#9a32cd" stroke="#9a32cd" points="224.38,-115.074 214.753,-119.497 225.037,-122.043 224.38,-115.074"/>
<text text-anchor="middle" x="268" y="-120" font-family="Helvetica,sans-Serif" font-size="10.00"> riseTime</text>
</g>
<!-- Node7 -->
<g id="node7" class="node"><title>Node7</title>
<polygon fill="white" stroke="#bfbfbf" points="113,-76.5 113,-95.5 219,-95.5 219,-76.5 113,-76.5"/>
<text text-anchor="middle" x="166" y="-83.5" font-family="Helvetica,sans-Serif" font-size="10.00">GPIO_OutputType_t</text>
</g>
<!-- Node7&#45;&gt;Node1 -->
<g id="edge6" class="edge"><title>Node7&#45;&gt;Node1</title>
<path fill="none" stroke="#9a32cd" stroke-dasharray="5,2" d="M229.176,-91.6686C250.663,-93.6464 274.892,-95.8974 297,-98 302.712,-98.5432 308.679,-99.1172 314.626,-99.6934"/>
<polygon fill="#9a32cd" stroke="#9a32cd" points="229.471,-88.1811 219.192,-90.7512 228.83,-95.1517 229.471,-88.1811"/>
<text text-anchor="middle" x="268" y="-101" font-family="Helvetica,sans-Serif" font-size="10.00"> outputType</text>
</g>
<!-- Node8 -->
<g id="node8" class="node"><title>Node8</title>
<polygon fill="white" stroke="#bfbfbf" points="111,-38.5 111,-57.5 221,-57.5 221,-38.5 111,-38.5"/>
<text text-anchor="middle" x="166" y="-45.5" font-family="Helvetica,sans-Serif" font-size="10.00">GPIO_PullUpDown_t</text>
</g>
<!-- Node8&#45;&gt;Node1 -->
<g id="edge7" class="edge"><title>Node8&#45;&gt;Node1</title>
<path fill="none" stroke="#9a32cd" stroke-dasharray="5,2" d="M225.056,-59.6498C247.686,-64.6449 273.73,-70.956 297,-78 313.51,-82.9975 331.69,-89.882 345.586,-95.4483"/>
<polygon fill="#9a32cd" stroke="#9a32cd" points="225.769,-56.2231 215.254,-57.5206 224.283,-63.0635 225.769,-56.2231"/>
<text text-anchor="middle" x="268" y="-81" font-family="Helvetica,sans-Serif" font-size="10.00"> pull</text>
</g>
<!-- Node9 -->
<g id="node9" class="node"><title>Node9</title>
<polygon fill="white" stroke="#bfbfbf" points="119,-0.5 119,-19.5 213,-19.5 213,-0.5 119,-0.5"/>
<text text-anchor="middle" x="166" y="-7.5" font-family="Helvetica,sans-Serif" font-size="10.00">GPIO_Direction_t</text>
</g>
<!-- Node9&#45;&gt;Node1 -->
<g id="edge8" class="edge"><title>Node9&#45;&gt;Node1</title>
<path fill="none" stroke="#9a32cd" stroke-dasharray="5,2" d="M223.002,-21.9108C246.623,-28.1608 273.933,-37.0512 297,-49 321.361,-61.6188 345.637,-82.9545 358.69,-95.328"/>
<polygon fill="#9a32cd" stroke="#9a32cd" points="223.683,-18.4725 213.129,-19.3926 221.953,-25.2554 223.683,-18.4725"/>
<text text-anchor="middle" x="268" y="-52" font-family="Helvetica,sans-Serif" font-size="10.00"> direction</text>
</g>
</g>
</svg>
