<?xml version="1.0" encoding="UTF-8" standalone="no"?>
<!DOCTYPE svg PUBLIC "-//W3C//DTD SVG 1.1//EN"
 "http://www.w3.org/Graphics/SVG/1.1/DTD/svg11.dtd">
<!-- Generated by graphviz version 2.38.0 (20140413.2041)
 -->
<!-- Title: typesize.h Pages: 1 -->
<svg width="160pt" height="84pt"
 viewBox="0.00 0.00 160.00 84.00" xmlns="http://www.w3.org/2000/svg" xmlns:xlink="http://www.w3.org/1999/xlink">
<g id="graph0" class="graph" transform="scale(1 1) rotate(0) translate(4 80)">
<title>typesize.h</title>
<polygon fill="white" stroke="none" points="-4,4 -4,-80 156,-80 156,4 -4,4"/>
<!-- Node1 -->
<g id="node1" class="node"><title>Node1</title>
<polygon fill="#bfbfbf" stroke="black" points="47,-56.5 47,-75.5 109,-75.5 109,-56.5 47,-56.5"/>
<text text-anchor="middle" x="78" y="-63.5" font-family="Helvetica,sans-Serif" font-size="10.00">typesize.h</text>
</g>
<!-- Node2 -->
<g id="node2" class="node"><title>Node2</title>
<g id="a_node2"><a xlink:href="pytypesize_8c.html" target="_top" xlink:title="Get the size (in bytes) of various C data&#45;types. ">
<polygon fill="white" stroke="black" points="0,-0.5 0,-19.5 72,-19.5 72,-0.5 0,-0.5"/>
<text text-anchor="middle" x="36" y="-7.5" font-family="Helvetica,sans-Serif" font-size="10.00">pytypesize.c</text>
</a>
</g>
</g>
<!-- Node1&#45;&gt;Node2 -->
<g id="edge1" class="edge"><title>Node1&#45;&gt;Node2</title>
<path fill="none" stroke="midnightblue" d="M64.8898,-48.144C57.5722,-38.7357 48.7591,-27.4046 42.8064,-19.7511"/>
<polygon fill="midnightblue" stroke="midnightblue" points="62.1624,-50.3383 71.0646,-56.083 67.6878,-46.0406 62.1624,-50.3383"/>
</g>
<!-- Node3 -->
<g id="node3" class="node"><title>Node3</title>
<g id="a_node3"><a xlink:href="typesize_8c.html" target="_top" xlink:title="Get the size (in bytes) of various C data&#45;types. ">
<polygon fill="white" stroke="black" points="90,-0.5 90,-19.5 152,-19.5 152,-0.5 90,-0.5"/>
<text text-anchor="middle" x="121" y="-7.5" font-family="Helvetica,sans-Serif" font-size="10.00">typesize.c</text>
</a>
</g>
</g>
<!-- Node1&#45;&gt;Node3 -->
<g id="edge2" class="edge"><title>Node1&#45;&gt;Node3</title>
<path fill="none" stroke="midnightblue" d="M91.4224,-48.144C98.9142,-38.7357 107.937,-27.4046 114.032,-19.7511"/>
<polygon fill="midnightblue" stroke="midnightblue" points="88.5919,-46.0799 85.1006,-56.083 94.0679,-50.4404 88.5919,-46.0799"/>
</g>
</g>
</svg>
